<?xml version="1.0" standalone="no"?><!DOCTYPE svg PUBLIC "-//W3C//DTD SVG 1.1//EN" "http://www.w3.org/Graphics/SVG/1.1/DTD/svg11.dtd"><svg t="1566381572584" class="icon" viewBox="0 0 1024 1024" version="1.1" xmlns="http://www.w3.org/2000/svg" p-id="52571" width="128" height="128" xmlns:xlink="http://www.w3.org/1999/xlink"><defs><style type="text/css"></style></defs><path d="M773.1 107.6c18.1 0 37.7 6.1 49 21 12 15.7 12.9 40.3 1.9 56.8-6 9-14.5 16.6-22.8 23.3-4.4 3.6-9 6.9-13.7 10.1-2.5 1.6-8.7 7.5-11.7 7.5H581.6c2.9 0 11.9-11.4 14.1-13.6 5.2-5 10.6-9.9 16.1-14.7 11.5-10.2 23.2-20.1 35.3-29.6 23.5-18.3 48.3-35.7 75.4-48.3 16-7.3 33.2-12.5 50.6-12.5z m-566.6 13.6c19.3-18.2 52-16.7 75.6-9.2 17.6 5.6 34.3 14.1 50 23.7 17.6 10.6 34.3 22.7 50.4 35.4 15.7 12.5 31 25.7 45.6 39.6 5.6 5.2 11.2 10.7 16.6 16.1h-189c-3.6 0-10.4-4.6-13.7-6.5-5.1-2.6-10.1-5.6-14.9-8.7-9.5-6.4-18.2-14-25.5-22.8-14.7-18.2-14.7-42.9-0.4-61.8 1.9-2.3 3.5-4.1 5.3-5.8zM112 426.5V306.8c0-22.2 18.1-40.3 40.3-40.3h340.1v199.7H152.2c-22.2 0.6-40.2-17.5-40.2-39.7z m80 439.8V506.5h299.9v400H232.3c-22.3 0-40.3-18-40.3-40.2z m640 0c0 22.2-18.1 40.3-40.3 40.3H531.6V506.5H832v359.8z m80-439.8c0 22.2-18.1 40.3-40.3 40.3H531.6V266.5h340.1c22.2 0 40.3 18.1 40.3 40.3v119.7z" p-id="52572" fill="#ffffff"></path></svg>