<?xml version="1.0" standalone="no"?><!DOCTYPE svg PUBLIC "-//W3C//DTD SVG 1.1//EN" "http://www.w3.org/Graphics/SVG/1.1/DTD/svg11.dtd"><svg t="1566381202569" class="icon" viewBox="0 0 1024 1024" version="1.1" xmlns="http://www.w3.org/2000/svg" p-id="42875" xmlns:xlink="http://www.w3.org/1999/xlink" width="128" height="128"><defs><style type="text/css"></style></defs><path d="M320 32c-32 0-64 25.6-64 57.6v57.6h486.4c32 0 64 25.6 64 57.6V832h64c32 0 64-25.6 64-57.6V89.6c0-32-25.6-57.6-64-57.6H320z m0 0" fill="#ffffff" p-id="42876"></path><path d="M704 192H153.6c-32 0-64 25.6-64 57.6v678.4c0 32 25.6 57.6 64 57.6H704c32 0 64-25.6 64-57.6V249.6c0-32-25.6-57.6-64-57.6z m-128 448c19.2 0 32 12.8 32 25.6s-12.8 25.6-32 25.6H448V768c0 12.8-12.8 25.6-32 25.6s-25.6-12.8-25.6-25.6v-76.8H288c-19.2 0-32-12.8-32-25.6s12.8-25.6 32-25.6h102.4v-57.6H288c-19.2 0-32-6.4-32-25.6 0-12.8 12.8-25.6 32-25.6h83.2L281.6 435.2c-12.8-6.4-6.4-25.6 6.4-32 12.8-12.8 32-12.8 38.4 0l96 96L512 396.8c6.4-6.4 25.6-6.4 38.4 0 12.8 12.8 12.8 25.6 6.4 32L467.2 531.2H576c19.2 0 32 12.8 32 25.6 0 19.2-19.2 25.6-32 25.6H448v57.6h128z m0 0" fill="#ffffff" p-id="42877"></path></svg>