<?xml version="1.0" standalone="no"?><!DOCTYPE svg PUBLIC "-//W3C//DTD SVG 1.1//EN" "http://www.w3.org/Graphics/SVG/1.1/DTD/svg11.dtd"><svg t="1566381243664" class="icon" viewBox="0 0 1120 1024" version="1.1" xmlns="http://www.w3.org/2000/svg" p-id="44299" xmlns:xlink="http://www.w3.org/1999/xlink" width="140" height="128"><defs><style type="text/css"></style></defs><path d="M421.039312 2.067295c-9.555496 2.113235-18.008434 8.820458-22.464603 17.778735-3.583311 7.350381-3.491431 5.742485-3.491431 45.480484v35.281831h263.694931v-35.51153c0-33.076716-0.09188-35.741229-0.872858-39.69206-1.332257-6.477524-3.583311-10.658053-8.03948-15.114221-4.04271-3.99677-7.90166-6.201884-13.598205-7.80978-2.848273-0.826918-7.488201-0.872858-107.729027-0.964738-85.586003-0.04594-105.248273 0.04594-107.499327 0.551279zM395.083278 563.31485c0 379.187797 0.09188 430.456707 0.689098 433.02934 2.251054 9.417676 9.739255 17.962494 20.121669 22.832122 6.799103 3.215792-2.067295 2.986092 111.542037 2.986093 101.067743 0 102.767519 0 106.30489-0.918798 7.074742-1.791655 14.103544-6.064065 18.008435-10.979632 2.802333-3.491431 5.466846-9.187977 6.339703-13.460386 0.597218-3.169852 0.689098-47.27214 0.689099-433.580619V133.225662H395.083278v430.089188zM24.34842 199.608793c-8.177299 1.653836-14.838582 5.788425-18.881292 11.76061-2.296994 3.445491-3.491431 6.155944-4.593989 10.749933C0.046221 225.610767 0.000281 228.137461 0.000281 278.257873V330.76716h296.771647v-49.752894c0-30.044684-0.18376-51.636429-0.459399-54.622521-1.378197-14.517003-7.80978-22.740242-20.672947-26.369493-2.848273-0.826918-7.85572-0.872858-125.645581-0.964737-99.873306-0.04594-123.210767 0.04594-125.645581 0.551278zM923.621636 308.578197c-4.180529 0.367519-11.99031 1.699776-19.75415 3.353611-9.923015 2.159175-125.232122 29.401525-138.279048 32.709197-26.507313 6.661283-34.730552 11.76061-37.027546 22.786182-1.240377 5.926245 0.04594 16.630238 3.996769 33.168596 2.205114 9.325796 129.320772 476.993809 129.780171 477.499147 0.321579 0.367519 222.119336-51.866128 223.313773-52.601166 0.367519-0.229699-17.916555-68.220727-63.948318-237.555137-35.46559-130.469269-65.648093-241.689726-67.118169-247.202512-4.548048-17.043697-6.936922-22.786182-11.071512-27.058591-4.226469-4.364289-10.382414-5.926245-19.89197-5.099327zM0.000281 577.694033v214.309556h296.771647V363.384477H0.000281V577.694033zM0.000281 856.732885v32.525437l51.36079 0.275639c28.207088 0.18376 84.161866 0.413459 124.359264 0.551279s83.840287 0.367519 97.070974 0.505339l23.980619 0.275639V824.161507H0.000281v32.571378zM988.856271 906.393899c-84.299686 20.029789-111.633917 26.645132-111.587977 27.150471 0.04594 0.367519 2.664513 10.244594 5.834365 22.005204 3.169852 11.76061 6.707223 24.991297 7.90166 29.401525 4.548048 17.181516 8.085419 25.634455 12.771288 30.595962 7.350381 7.90166 16.722118 8.498878 42.907851 2.756393 10.474293-2.296994 126.380619-29.769044 137.222431-32.479497 34.363033-8.728578 39.46236-14.838582 34.041454-40.886496-2.159175-10.290534-16.630238-65.234634-17.181517-65.142755-0.13782 0.04594-50.487932 11.99031-111.909555 26.599193zM0.000281 958.581606c0 39.46236-0.09188 38.176043 3.032033 44.515747 4.08865 8.361059 13.046927 15.481741 22.832122 18.146254 3.353611 0.918798 4.272409 0.918798 123.486406 0.826918l120.086855-0.13782 3.353612-1.240377c8.912337-3.215792 16.584298-9.693315 20.213548-16.905877 3.675191-7.396321 3.491431-5.053387 3.675191-45.158905l0.13782-35.695289H0.000281v35.649349z" p-id="44300" fill="#ffffff"></path></svg>