<?xml version="1.0" standalone="no"?><!DOCTYPE svg PUBLIC "-//W3C//DTD SVG 1.1//EN" "http://www.w3.org/Graphics/SVG/1.1/DTD/svg11.dtd"><svg t="1566381511653" class="icon" viewBox="0 0 1024 1024" version="1.1" xmlns="http://www.w3.org/2000/svg" p-id="50230" xmlns:xlink="http://www.w3.org/1999/xlink" width="128" height="128"><defs><style type="text/css"></style></defs><path d="M831.687805 0H190.414049C105.297171 0 36.06478 69.23239 36.06478 154.349268v150.652878h83.11883c19.68078 0 35.665171 15.98439 35.66517 35.665171 0 19.68078-15.98439 35.665171-35.66517 35.665171H36.06478v95.007219h83.11883c12.68761 0 24.476098 6.793366 30.869853 17.782634 6.393756 10.989268 6.393756 24.576 0 35.665171-6.393756 10.989268-18.082341 17.782634-30.869853 17.782634H36.06478v95.00722h83.11883c19.68078 0 35.665171 15.98439 35.66517 35.665171 0 19.68078-15.98439 35.665171-35.66517 35.66517H36.06478v162.141659c0 0.699317 0.199805 1.398634 0.199805 2.097951 2.397659 83.018927 70.531122 149.953561 154.149464 149.953561H831.687805c85.116878 0 154.349268-69.23239 154.349268-154.349268V154.349268C986.037073 69.23239 916.804683 0 831.687805 0zM511.100878 219.985171c74.826927 0 135.467707 61.44 135.467707 137.365853S585.927805 494.716878 511.100878 494.716878c-74.826927 0-135.56761-61.44-135.56761-137.365854s60.740683-137.365854 135.56761-137.365853z m236.269268 520.991219c-3.896195 84.317659-97.604683 84.317659-236.36917 84.617366-138.764488-0.299707-232.472976-0.299707-236.369171-84.617366-3.896195-84.317659 51.150049-156.44722 93.508683-191.612878 42.358634-35.165659 73.32839-33.56722 73.32839-33.567219l69.632-0.299708 69.632 0.199805s30.969756-1.598439 73.32839 33.56722c42.258732 35.265561 97.304976 107.29522 93.308878 191.71278z" fill="#ffffff" p-id="50231"></path></svg>