<?xml version="1.0" standalone="no"?><!DOCTYPE svg PUBLIC "-//W3C//DTD SVG 1.1//EN" "http://www.w3.org/Graphics/SVG/1.1/DTD/svg11.dtd"><svg t="1566381444052" class="icon" viewBox="0 0 1024 1024" version="1.1" xmlns="http://www.w3.org/2000/svg" p-id="49004" width="128" height="128" xmlns:xlink="http://www.w3.org/1999/xlink"><defs><style type="text/css"></style></defs><path d="M427.9 157.6s-1.7 0 0 0z m0 0c-62.3 0-106.8 21.4-135.3 55.2-32 40.9-37.4 106.8-17.8 190.5-7.1 10.7-14.2 24.9-10.7 40.9 3.6 21.4 7.1 35.6 17.8 44.5 3.6 7.1 10.7 10.7 14.2 14.2 7.1 28.5 21.4 62.3 37.4 76.5v58.7c-10.7 24.9-44.5 37.4-83.7 51.6-32 14.2-69.4 28.5-97.9 48.1-35.6 28.5-51.6 62.3-55.2 106.8 0 3.6 0 10.7 3.6 14.2 3.6 3.6 7.1 7.1 14.2 7.1h631.9c3.6 0 10.7-3.6 14.2-7.1 3.6-3.6 3.6-7.1 3.6-14.2-3.6-44.5-21.4-80.1-55.2-106.8-28.5-24.9-65.9-37.4-97.9-48.1-37.4-14.2-73-28.5-83.7-51.6v-58.7c7.1-7.1 14.2-21.4 21.4-32 3.6-10.7 10.7-28.5 14.2-44.5 7.1-3.6 10.7-7.1 14.2-14.2 7.1-10.7 14.2-24.9 17.8-44.5 3.6-17.8-3.6-32-10.7-40.9 3.6-17.8 10.7-40.9 14.2-73 3.6-40.9-3.6-76.5-17.8-101.5-14.2-24.9-35.6-37.4-65.9-40.9-17.4-21.4-47.7-30.3-86.9-30.3zM894.3 786h-83.7c-10.7 0-21.4-10.7-21.4-21.4s10.7-21.4 21.4-21.4h76.5c-3.6-28.5-14.2-48.1-37.4-65.9-21.4-17.8-48.1-28.5-73-37.4-35.6-14.2-69.4-28.5-80.1-51.6v-51.6c0-7.1 3.6-14.2 7.1-17.8 3.6-3.6 7.1-10.7 14.2-21.4 3.6-7.1 7.1-17.8 10.7-32 0-7.1 7.1-10.7 10.7-14.2 3.6 0 3.6-3.6 3.6-3.6 3.6-3.6 7.1-10.7 10.7-28.5 0-10.7-3.6-17.8-3.6-17.8-3.6-7.1-7.1-14.2-3.6-17.8 3.6-14.2 7.1-32 10.7-55.2 3.6-32 0-51.6-10.7-69.4-10.7-14.2-21.4-21.4-37.4-24.9-3.6 0-10.7-3.6-14.2-7.1-7.1-10.7-28.5-17.8-51.6-17.8-14.2 0-28.5 0-37.4 3.6-10.7 3.6-21.4-3.6-24.9-17.8-3.6-10.7 3.6-21.4 17.8-24.9 7.1-10.7 21.4-10.7 37.4-10.7 35.6 0 62.3 10.7 83.7 28.5 24.9 7.1 44.5 21.4 58.7 40.9 14.2 24.9 21.4 55.2 17.8 97.9 0 21.4-7.1 40.9-10.7 55.2 7.1 7.1 10.7 21.4 7.1 37.4-3.6 21.4-7.1 35.6-17.8 48.1L764.3 478c-3.6 14.2-7.1 24.9-14.2 35.6-3.6 10.7-10.7 17.8-14.2 24.9v35.6c7.1 10.7 32 21.4 55.2 28.5 28.5 10.7 58.7 24.9 83.7 44.5 32 28.5 48.1 62.3 51.6 105 0 10.7-3.6 17.8-10.7 24.9-5.4 5.4-12.5 9-21.4 9z m0 0" p-id="49005" fill="#ffffff"></path></svg>