<?xml version="1.0" standalone="no"?><!DOCTYPE svg PUBLIC "-//W3C//DTD SVG 1.1//EN" "http://www.w3.org/Graphics/SVG/1.1/DTD/svg11.dtd"><svg t="1594629499925" class="icon" viewBox="0 0 1024 1024" version="1.1" xmlns="http://www.w3.org/2000/svg" p-id="4110" xmlns:xlink="http://www.w3.org/1999/xlink" width="200" height="200"><defs><style type="text/css"></style></defs><path d="M0 198.9v612.9C0 850.6 31.4 882 70.2 882h883.6c38.8 0 70.2-31.4 70.2-70.2V198.9c0-31.4-25.5-56.9-56.9-56.9H56.9C25.5 142 0 167.5 0 198.9z m954 70v69.9c0 27.1-14.1 52.2-37.2 66.3L565.4 619.6c-28.6 17.4-64.5 17.3-93-0.2l-397-245.3c-3.3-2.1-5.4-5.7-5.4-9.7v-95.5c0-31.4 25.5-56.9 56.9-56.9h770.2c31.4 0 56.9 25.5 56.9 56.9zM70 741.8V472.4c0-8.5 9.3-13.6 16.5-9.2l412 254.4c5.7 3.5 12.1 5.2 18.4 5.2 0.6 0 1.3 0 1.9-0.1 0.6 0 1.3 0.1 1.9 0.1 6.2 0 12.5-1.7 18.2-5.1L954 464.5v277.3c0 38.8-31.4 70.2-70.2 70.2H140.2c-38.8 0-70.2-31.4-70.2-70.2z" p-id="4111"></path></svg>