<?xml version="1.0" standalone="no"?><!DOCTYPE svg PUBLIC "-//W3C//DTD SVG 1.1//EN" "http://www.w3.org/Graphics/SVG/1.1/DTD/svg11.dtd"><svg t="1566381613860" class="icon" viewBox="0 0 1066 1024" version="1.1" xmlns="http://www.w3.org/2000/svg" p-id="53558" width="133.25" height="128" xmlns:xlink="http://www.w3.org/1999/xlink"><defs><style type="text/css"></style></defs><path d="M338.64491 0H144.298486C65.877251 0 0.213333 65.066585 0.213333 143.487821v194.346423c0 78.421235 65.663918 140.799824 144.085153 140.799824h334.548915V143.487821C478.847401 65.066585 417.066145 0 338.64491 0z m545.193985 0h-194.38909c-78.421235 0-143.914487 65.066585-143.914487 143.487821v335.146247h338.303577a139.605159 139.605159 0 0 0 140.373158-140.799824V143.487821c0-78.421235-61.951923-143.487821-140.373158-143.487821z m68.949247 337.834244c0 39.253284-29.738629 70.613245-68.949247 70.613245h-268.074331v-264.959668c0-39.253284 34.51729-72.106577 73.685241-72.106577h194.38909c39.210618 0 68.991914 32.853292 68.991914 72.106577v194.346423zM0.213333 688.639139v194.389091C0.213333 961.449465 65.877251 1023.99872 144.298486 1023.99872h194.346424c78.421235 0 140.202491-62.549255 140.202491-140.97049v-337.663578H144.298486c-78.421235 0-144.085153 64.853252-144.085153 143.274487z m883.625562-143.274487h-338.303577v337.663578c0 78.421235 65.493251 140.97049 143.914487 140.97049h194.38909a139.733159 139.733159 0 0 0 140.373158-140.97049V688.639139c0-78.421235-61.951923-143.274488-140.373158-143.274487z" p-id="53559" fill="#ffffff"></path></svg>