<?xml version="1.0" standalone="no"?><!DOCTYPE svg PUBLIC "-//W3C//DTD SVG 1.1//EN" "http://www.w3.org/Graphics/SVG/1.1/DTD/svg11.dtd"><svg t="1566381328485" class="icon" viewBox="0 0 1025 1024" version="1.1" xmlns="http://www.w3.org/2000/svg" p-id="47323" xmlns:xlink="http://www.w3.org/1999/xlink" width="128.125" height="128"><defs><style type="text/css"></style></defs><path d="M101.333333 254.933333c12.8 0 23.466667-7.466667 27.733334-20.266666 0 0 13.866667-35.2 40.533333-62.933334 28.8-28.8 66.133333-49.066667 67.2-50.133333 12.8-7.466667 19.2-22.4 13.866667-36.266667-17.066667-50.133333-66.133333-85.333333-121.6-85.333333C57.6 0 0 58.666667 0 130.133333c0 28.8 9.6 55.466667 26.666667 78.933334 17.066667 22.4 40.533333 38.4 67.2 45.866666h7.466666zM893.866667 0C839.466667 0 790.4 35.2 772.266667 86.4c-5.333333 13.866667 1.066667 29.866667 14.933333 36.266667 0 0 40.533333 20.266667 69.333333 49.066666 26.666667 26.666667 37.333333 59.733333 37.333334 61.866667 4.266667 12.8 16 21.333333 28.8 21.333333 3.2 0 5.333333 0 8.533333-1.066666 26.666667-7.466667 50.133333-23.466667 67.2-45.866667 17.066667-22.4 26.666667-50.133333 26.666667-78.933333C1024 58.666667 965.333333 0 893.866667 0z m42.666666 379.733333c-23.466667-54.4-56.533333-104.533333-99.2-146.133333-42.666667-42.666667-91.733333-75.733333-146.133333-99.2-56.533333-24.533333-117.333333-36.266667-179.2-36.266667-61.866667 0-122.666667 11.733333-179.2 36.266667-54.4 23.466667-104.533333 56.533333-146.133333 99.2-42.666667 42.666667-75.733333 91.733333-99.2 146.133333-24.533333 56.533333-36.266667 117.333333-36.266667 179.2S62.933333 681.6 86.4 738.133333c23.466667 54.4 56.533333 104.533333 99.2 146.133334 42.666667 42.666667 91.733333 75.733333 146.133333 99.2 56.533333 24.533333 117.333333 36.266667 179.2 36.266666s122.666667-11.733333 179.2-36.266666c54.4-23.466667 104.533333-56.533333 146.133334-99.2 42.666667-42.666667 75.733333-91.733333 99.2-146.133334 24.533333-56.533333 36.266667-117.333333 36.266666-179.2s-10.666667-122.666667-35.2-179.2z m-134.4 75.733334L498.133333 714.666667s-1.066667 0-1.066666 1.066666c0 0-1.066667 0-1.066667 1.066667-1.066667 0-1.066667 1.066667-2.133333 1.066667h-1.066667-1.066667-1.066666c-1.066667 0-1.066667 1.066667-2.133334 1.066666 0 0-1.066667 0-1.066666 1.066667-2.133333 1.066667-3.2 1.066667-5.333334 2.133333-1.066667 0-2.133333 0-3.2 1.066667H472.533333h-1.066666-1.066667-1.066667-1.066666c-2.133333 0-4.266667-1.066667-5.333334-2.133333 0 0-1.066667 0-1.066666-1.066667h-1.066667c-1.066667 0-1.066667-1.066667-2.133333-1.066667h-1.066667-1.066667-1.066666c-1.066667-1.066667-2.133333-2.133333-3.2-2.133333 0 0-1.066667 0-1.066667-1.066667L253.866667 540.8c-16-14.933333-17.066667-39.466667-3.2-55.466667 14.933333-16 39.466667-17.066667 55.466666-3.2l167.466667 150.4 277.333333-237.866666c16-13.866667 41.6-11.733333 55.466667 4.266666 13.866667 17.066667 11.733333 41.6-4.266667 56.533334z" p-id="47324" fill="#ffffff"></path></svg>