<?xml version="1.0" standalone="no"?><!DOCTYPE svg PUBLIC "-//W3C//DTD SVG 1.1//EN" "http://www.w3.org/Graphics/SVG/1.1/DTD/svg11.dtd"><svg t="1566381404373" class="icon" viewBox="0 0 1024 1024" version="1.1" xmlns="http://www.w3.org/2000/svg" p-id="48156" xmlns:xlink="http://www.w3.org/1999/xlink" width="128" height="128"><defs><style type="text/css"></style></defs><path d="M901.12 61.44H122.88C71.68 61.44 30.72 102.4 30.72 153.6v542.72c0 51.2 40.96 92.16 92.16 92.16h302.08v117.76H286.72c-10.24 0-15.36 5.12-15.36 15.36v30.72c0 10.24 5.12 15.36 15.36 15.36h450.56c10.24 0 15.36-5.12 15.36-15.36V921.6c0-10.24-5.12-15.36-15.36-15.36h-133.12v-117.76h302.08c51.2 0 92.16-40.96 92.16-92.16V153.6c-5.12-51.2-46.08-92.16-97.28-92.16z m-629.76 512c0 15.36-15.36 30.72-30.72 30.72s-30.72-15.36-30.72-30.72V450.56c0-15.36 15.36-30.72 30.72-30.72s30.72 15.36 30.72 30.72v122.88z m179.2 0c0 15.36-15.36 30.72-30.72 30.72s-30.72-15.36-30.72-30.72V363.52c0-15.36 15.36-30.72 30.72-30.72s30.72 15.36 30.72 30.72v209.92z m184.32 0c0 15.36-15.36 30.72-30.72 30.72s-30.72-15.36-30.72-30.72v-153.6c0-15.36 15.36-30.72 30.72-30.72s30.72 15.36 30.72 30.72v153.6z m179.2 0c0 15.36-15.36 30.72-30.72 30.72s-30.72-15.36-30.72-30.72V271.36c0-15.36 15.36-30.72 30.72-30.72s30.72 15.36 30.72 30.72v302.08z" fill="#ffffff" p-id="48157"></path></svg>