<?xml version="1.0" standalone="no"?><!DOCTYPE svg PUBLIC "-//W3C//DTD SVG 1.1//EN" "http://www.w3.org/Graphics/SVG/1.1/DTD/svg11.dtd"><svg t="1594205627276" class="icon" viewBox="0 0 1024 1024" version="1.1" xmlns="http://www.w3.org/2000/svg" p-id="1662" xmlns:xlink="http://www.w3.org/1999/xlink" width="200" height="200"><defs><style type="text/css"></style></defs><path d="M512 1024C229.888 1024 0 794.112 0 512S229.888 0 512 0s512 229.888 512 512-229.888 512-512 512z m0-972.8c-253.952 0-460.8 206.848-460.8 460.8s206.848 460.8 460.8 460.8 460.8-206.848 460.8-460.8-206.848-460.8-460.8-460.8z" p-id="1663"></path><path d="M778.24 753.152H245.76c-14.336 0-25.6-11.264-25.6-25.6s11.264-25.6 25.6-25.6h532.48c14.336 0 25.6 11.264 25.6 25.6s-11.264 25.6-25.6 25.6zM801.792 498.176c-5.632-12.8-20.992-18.432-33.792-12.8l-230.4 104.448V274.944c0-14.336-11.264-25.6-25.6-25.6s-25.6 11.264-25.6 25.6v314.368L256.512 485.888c-12.8-5.632-28.16 0-33.792 12.8s0 28.16 12.8 33.792l266.24 120.32h1.024c0.512 0.512 1.536 0.512 2.048 0.512h1.024c0.512 0 1.024 0.512 1.536 0.512h10.24c0.512 0 1.024 0 1.536-0.512h1.024c0.512 0 1.536-0.512 2.048-0.512 0 0 0.512 0 0.512-0.512h0.512l266.24-120.32c12.288-5.632 17.92-20.48 12.288-33.792z" p-id="1664"></path></svg>