<?xml version="1.0" standalone="no"?><!DOCTYPE svg PUBLIC "-//W3C//DTD SVG 1.1//EN" "http://www.w3.org/Graphics/SVG/1.1/DTD/svg11.dtd"><svg t="1658453278300" class="icon" viewBox="0 0 1024 1024" version="1.1" xmlns="http://www.w3.org/2000/svg" p-id="3643" xmlns:xlink="http://www.w3.org/1999/xlink" width="32" height="32"><defs><style type="text/css">@font-face { font-family: feedback-iconfont; src: url("//at.alicdn.com/t/font_1031158_u69w8yhxdu.woff2?t=1630033759944") format("woff2"), url("//at.alicdn.com/t/font_1031158_u69w8yhxdu.woff?t=1630033759944") format("woff"), url("//at.alicdn.com/t/font_1031158_u69w8yhxdu.ttf?t=1630033759944") format("truetype"); }
</style></defs><path d="M917.333333 85.333333H106.666667c-23.466667 0-42.666667 19.2-42.666667 42.666667v746.666667c0 23.466667 19.2 42.666667 42.666667 42.666666h810.666666c23.466667 0 42.666667-19.2 42.666667-42.666666V128c0-23.466667-19.2-42.666667-42.666667-42.666667z m-21.333333 768H128V149.333333h768v704z" p-id="3644"></path><path d="M832 757.333333H192v-64h640zM827.733333 266.666667L544 550.4c-17.066667 17.066667-42.666667 17.066667-59.733333 0l-14.933334-14.933333 313.6-313.6 44.8 44.8z" p-id="3645"></path><path d="M403.2 377.6l157.866667 157.866667-14.933334 14.933333c-17.066667 17.066667-42.666667 17.066667-59.733333 0l-157.866667-157.866667 14.933334-14.933333c17.066667-17.066667 42.666667-17.066667 59.733333 0z" p-id="3646"></path><path d="M185.6 535.466667l157.866667-157.866667c17.066667-17.066667 42.666667-17.066667 59.733333 0l14.933333 14.933333-187.733333 187.733334-44.8-44.8zM832 256v215.466667c0 17.066667-14.933333 32-32 32s-32-14.933333-32-32V213.333333h21.333333c23.466667 0 42.666667 19.2 42.666667 42.666667z" p-id="3647"></path><path d="M832 277.333333H584.533333c-17.066667 0-32-14.933333-32-32s14.933333-32 32-32H789.333333c23.466667 0 42.666667 19.2 42.666667 42.666667v21.333333z" p-id="3648"></path></svg>