<?xml version="1.0" standalone="no"?><!DOCTYPE svg PUBLIC "-//W3C//DTD SVG 1.1//EN" "http://www.w3.org/Graphics/SVG/1.1/DTD/svg11.dtd"><svg t="1608630807966" class="icon" viewBox="0 0 1024 1024" version="1.1" xmlns="http://www.w3.org/2000/svg" p-id="2662" xmlns:xlink="http://www.w3.org/1999/xlink" width="200" height="200"><defs><style type="text/css"></style></defs><path d="M555.285333 120.896h283.861334a107.306667 107.306667 0 0 1 107.242666 107.221333v645.973334A107.306667 107.306667 0 0 1 839.146667 981.333333H193.173333a107.306667 107.306667 0 0 1-107.221333-107.242666V394.666667h78.208v473.536c0 18.88 15.637333 34.901333 34.922667 34.901333h634.176c18.88 0 34.901333-15.616 34.901333-34.901333V234.026667c0-18.88-15.616-34.922667-34.901333-34.922667h-277.973334V120.896z m-340.629333 183.509333a41.322667 41.322667 0 0 0 58.304 0l192-191.530666a41.066667 41.066667 0 0 0 0-58.154667 41.322667 41.322667 0 0 0-58.304 0l-162.858667 162.432-87.466666-87.253333a41.322667 41.322667 0 0 0-58.304 0 41.066667 41.066667 0 0 0 0 58.176l116.629333 116.330666zM242.389333 746.666667c0-21.610667 17.344-39.104 39.466667-39.104h77.504a39.082667 39.082667 0 1 1 0 78.229333h-77.482667A39.210667 39.210667 0 0 1 242.389333 746.666667z m0-195.562667c0-21.589333 17.344-39.104 39.466667-39.104h77.504a39.082667 39.082667 0 1 1 0 78.229333h-77.482667a39.189333 39.189333 0 0 1-39.488-39.125333z m234.666667 195.562667c0-21.610667 17.706667-39.104 38.997333-39.104H750.933333c21.546667 0 39.018667 17.344 39.018667 39.104 0 21.610667-17.706667 39.104-38.997333 39.104H516.053333A38.954667 38.954667 0 0 1 477.056 746.666667z m0-195.562667c0-21.589333 17.706667-39.104 38.997333-39.104H750.933333c21.546667 0 39.018667 17.365333 39.018667 39.104 0 21.610667-17.706667 39.125333-38.997333 39.125333H516.053333a38.954667 38.954667 0 0 1-38.997333-39.125333z m0-195.541333c0-21.610667 17.706667-39.125333 38.997333-39.125334H750.933333c21.546667 0 39.018667 17.365333 39.018667 39.125334 0 21.589333-17.706667 39.104-38.997333 39.104H516.053333a38.954667 38.954667 0 0 1-38.997333-39.104z" p-id="2663" fill="#ffffff"></path></svg>