<?xml version="1.0" standalone="no"?><!DOCTYPE svg PUBLIC "-//W3C//DTD SVG 1.1//EN" "http://www.w3.org/Graphics/SVG/1.1/DTD/svg11.dtd"><svg t="1630905018835" class="icon" viewBox="0 0 1024 1024" version="1.1" xmlns="http://www.w3.org/2000/svg" p-id="5129" xmlns:xlink="http://www.w3.org/1999/xlink" width="250" height="250"><defs><style type="text/css"></style></defs><path d="M512 156.4m-99.6 0a99.6 99.6 0 1 0 199.2 0 99.6 99.6 0 1 0-199.2 0Z" p-id="5130" fill="#8a8a8a"></path><path d="M966.4 559.3l-53.7-202.8c-1.5-5.6-5.2-10.4-10.3-13l-71.8-37v-2.9c40-10.7 68-52.2 57.6-98.8-6.6-29.6-29.9-53.6-58.6-60.4-52.3-12.4-98.8 28.1-98.8 79.9 0 38.2 25.5 70.1 59.8 79.3v2.9l-71.8 37c-0.9 0.4-1.4 1.3-2.2 1.8l62.9 184.1c7.3 21.3-1 44.6-20.1 57l-48.1 31.3 36.8 246.5c1.5 10 9.9 17.4 19.7 17.4h85.4c9.8 0 18.2-7.4 19.7-17.4l37.3-249.6 47.9-32.9c7.3-4.8 10.6-13.8 8.3-22.4zM264.4 586.5c-19.1-12.4-27.3-35.8-20.1-57l62.9-184.1c-0.8-0.6-1.4-1.4-2.2-1.8l-71.8-37v-2.9c40-10.7 68-52.2 57.6-98.8-6.6-29.6-29.9-53.6-58.6-60.4-52.3-12.4-98.8 28.1-98.8 79.9 0 38.2 25.5 70.1 59.8 79.3v2.9l-71.8 37c-5.1 2.6-8.8 7.3-10.3 13L57.6 559.3c-2.3 8.5 1 17.6 8.2 22.5l47.9 32.9L151 864.3c1.5 10 9.9 17.4 19.7 17.4H256c9.8 0 18.2-7.4 19.7-17.4l36.8-246.5-48.1-31.3z" p-id="5131" fill="#8a8a8a"></path><path d="M737.4 518.5l-68.6-200.8c-4.3-12.5-14.3-22.3-27.1-26.5L533.5 256h-43l-108.2 35.2c-12.8 4.2-22.8 14-27.1 26.5l-68.6 200.8c-6.1 17.9 0.8 37.6 16.9 48l101.3 65.9 20.2 315c0.7 11 10.1 19.6 21.4 19.6h131.2c11.3 0 20.7-8.6 21.4-19.6l20.2-315 101.3-65.9c16-10.4 23-30.1 16.9-48zM568.9 512L512 568.9 455.1 512l28.4-143.4-28.4-55.7h113.8l-28.4 56.9L568.9 512z" p-id="5132" fill="#8a8a8a"></path></svg>