<svg t="1765249772050" class="icon" viewBox="0 0 1024 1024" version="1.1" xmlns="http://www.w3.org/2000/svg" p-id="6457" width="32" height="32"><path d="M676.2 445.7h56v130h-56zM292.2 444.7h56v130h-56zM741 319.8H285v-143c0-40.3 32.7-73 73-73h310c40.3 0 73 32.7 73 73v143z m-400-56h344v-87c0-9.4-7.6-17-17-17H358c-9.4 0-17 7.6-17 17v87z" fill="#ffffff" p-id="6458"></path><path d="M917 920.2H107c-40.3 0-73-32.7-73-73v-510c0-40.3 32.7-73 73-73h810c40.3 0 73 32.7 73 73v510c0 40.3-32.7 73-73 73z m-810-600c-9.4 0-17 7.6-17 17v510c0 9.4 7.6 17 17 17h810c9.4 0 17-7.6 17-17v-510c0-9.4-7.6-17-17-17H107z" fill="#ffffff" p-id="6459"></path><path d="M63.5 480.9h897v56h-897z" fill="#ffffff" p-id="6460"></path></svg>
