<?xml version="1.0" standalone="no"?><!DOCTYPE svg PUBLIC "-//W3C//DTD SVG 1.1//EN" "http://www.w3.org/Graphics/SVG/1.1/DTD/svg11.dtd"><svg t="1594009683303" class="icon" viewBox="0 0 1228 1024" version="1.1" xmlns="http://www.w3.org/2000/svg" p-id="13254" xmlns:xlink="http://www.w3.org/1999/xlink" width="239.84375" height="200"><defs><style type="text/css"></style></defs><path d="M1198.716404 349.568231L870.397389 29.441192A103.551689 103.551689 0 0 0 797.949606 0.00128a103.29569 103.29569 0 0 0-72.575782 29.311912L614.398157 137.600867 503.550489 29.441192a104.703686 104.703686 0 0 0-145.151564 0L30.207909 349.440232a98.559704 98.559704 0 0 0 0 141.951574l179.199463 183.039451L537.598387 994.558296A103.42369 103.42369 0 0 0 610.302169 1023.998208c1.407996 0 2.559992-0.767998 3.967988-0.767998 1.407996 0 2.559992 0.767998 3.967988 0.767998A103.551689 103.551689 0 0 0 691.197926 994.558296l328.063016-319.99904c6.78398-7.244778 12.441563-15.487954 16.76795-24.447926l162.687512-158.719524A98.303705 98.303705 0 0 0 1228.796314 420.352019a98.303705 98.303705 0 0 0-30.07991-70.783788z m-222.591332 259.327222l-52.991841 51.199847-72.575783-71.039787a36.863889 36.863889 0 0 0-51.199846 0 34.815896 34.815896 0 0 0 0 49.91985l72.575782 71.039787-45.567863 45.183864-72.575782-71.039786a36.863889 36.863889 0 0 0-51.199847 0 34.815896 34.815896 0 0 0 0 49.91985l72.703782 71.039787-47.103859 45.951862-72.575782-71.039787a36.863889 36.863889 0 0 0-51.199846 0 34.815896 34.815896 0 0 0 0 49.91985l72.575782 71.039787-45.055865 44.031868a29.695911 29.695911 0 0 1-17.279948 7.935976 30.463909 30.463909 0 0 1-17.535947-7.935976L81.407756 441.471956a29.055913 29.055913 0 0 1-8.959973-21.119937c0-7.884776 3.19999-15.462354 8.831973-20.991937L409.598771 79.233042a31.231906 31.231906 0 0 1 43.135871 0L563.19831 187.648717s-91.263726 93.18372-122.879631 125.823623c-24.831926 25.599923 4.607986 58.111826 4.607986 58.111825a162.431513 162.431513 0 0 0 225.919322 0l40.447879-39.423881 257.023229 250.367248c5.683183 5.555183 8.883173 13.18396 8.831974 21.119937-0.179199 1.791995-0.511998 3.532789-1.023997 5.247984z m171.391485-167.295498l-114.431656 111.359666a95.103715 95.103715 0 0 0-13.951958-20.351939L760.701718 280.320439a34.303897 34.303897 0 0 0-7.935976-38.399885 36.863889 36.863889 0 0 0-51.199847 0l-81.663755 79.871761a90.879727 90.879727 0 0 1-105.727683 13.439959l216.319352-210.943367 45.439863-44.287867c12.031964-11.519965 30.975907-11.519965 43.007871 0l328.063016 319.99904c5.683183 5.503983 8.857573 13.081561 8.831973 20.991937 0.255999 7.731177-2.739192 15.231954-8.319975 20.607938z" p-id="13255"></path></svg>