<?xml version="1.0" standalone="no"?><!DOCTYPE svg PUBLIC "-//W3C//DTD SVG 1.1//EN" "http://www.w3.org/Graphics/SVG/1.1/DTD/svg11.dtd"><svg t="1594009523169" class="icon" viewBox="0 0 1024 1024" version="1.1" xmlns="http://www.w3.org/2000/svg" p-id="11580" xmlns:xlink="http://www.w3.org/1999/xlink" width="200" height="200"><defs><style type="text/css"></style></defs><path d="M527.237 874.212a362.6 362.6 0 0 0 70.003-9.777v65.551c-27.568 5.596-56.1 8.534-85.32 8.534-235.605 0-426.6-190.995-426.6-426.6 0-235.605 190.995-426.6 426.6-426.6 235.605 0 426.6 190.995 426.6 426.6 0 29.22-2.938 57.752-8.534 85.32h-65.55c6.598-27.361 10.094-55.932 10.094-85.32 0-145.511-85.71-271.004-209.397-328.747 3.537 11.715 9.696 30.863 10.334 34.05 3.968 19.839-2.537 39.44-24.633 47.476-12.81 4.658-25.476 3.92-39.456-0.14-4.497-1.306-54.925-26.809-69.596-14.998-14.671 11.811-5.414 46.347-4.825 51.46 4.933 42.804 4.671 58.709-9.08 79.337-26.325 39.486-64.908 64.29-133.82 87.26-33.09 11.03-81.26 31.099-84.772 44.302-3.512 13.203 20.765 46.678 21.885 53.485 3.915 23.773-9.199 43.557-33.097 51.523-16.512 5.504-32.393 2.92-49.559-4.91-5.473-2.496-31.525-17.677-34.105-19.195-25.559-15.035-41.773-20.275-59.556-17.395 11.147 63.1 38.61 120.569 77.877 167.892 9.123-3.008 18.673-5.34 28.635-7 15.166-2.527 27.465-7.91 45.05-18.657 2.545-1.556 11.398-7.082 12.83-7.965 5.462-3.366 9.786-5.9 14.17-8.236 27.752-14.791 53.682-17.97 83.738-5.949 65.26 26.105 129.102 120.59 110.084 178.7z m-77.425-4.98a551.299 551.299 0 0 0 18.154-17.326c8.746-8.745-35.43-81.32-74.579-96.98-10.889-4.355-17.61-3.531-29.876 3.007-2.996 1.596-6.27 3.515-10.692 6.24-1.178 0.726-10.172 6.34-13.036 8.091-18.923 11.564-34.88 19.24-52.925 23.986 46.436 36.806 102.099 62.478 162.954 72.982z m147.45-709.822c-27.368-6.602-55.947-10.1-85.342-10.1-200.15 0-362.426 162.162-362.61 362.27 33.896-4.338 61.879 5.109 97.543 26.087 0.776 0.457-1.558-15.824-1.558-25.747 0-49.523 40.845-75.78 128.527-105.008 56.608-18.87 83.587-36.213 100.812-62.05 1.49-2.235-2.206-44.959-2.549-48.39-4.569-45.69 1.238-75.554 31.303-98.103 12.811-9.608 26.99-15.04 42.044-16.486 18.58-1.785 33.903 1.603 55.564 10.092-2.454-10.604-3.742-20.887-3.756-31.961 0-0.197 0.007-0.399 0.021-0.604z m149.28 661.795l0.015 60.904c17.15 15.317 39.703 24.416 63.983 24.416 41.005 0 77.082-25.95 90.528-63.976l60.33 21.332c-22.417 63.398-82.526 106.634-150.858 106.634-68.332 0-128.44-43.236-150.857-106.634l-15.08-42.65 101.939-0.026z m127.984-21.33l0.007-60.894c-17.15-15.323-39.707-24.426-63.993-24.426-41.011 0-77.093 25.959-90.533 63.992l-60.334-21.32c22.409-63.412 82.524-106.662 150.867-106.662 68.343 0 128.458 43.25 150.867 106.661l15.076 42.661-101.957-0.012z" p-id="11581"></path></svg>