<?xml version="1.0" standalone="no"?><!DOCTYPE svg PUBLIC "-//W3C//DTD SVG 1.1//EN" "http://www.w3.org/Graphics/SVG/1.1/DTD/svg11.dtd"><svg t="1595575564909" class="icon" viewBox="0 0 1059 1024" version="1.1" xmlns="http://www.w3.org/2000/svg" p-id="4101" xmlns:xlink="http://www.w3.org/1999/xlink" width="206.8359375" height="200"><defs><style type="text/css"></style></defs><path d="M607.974 479.868c13.24 113.24 109.214 201.092 225.703 201.092 116.454 0 212.427-87.852 225.633-201.057h-0.353a26.483 26.483 0 0 0-2.966-15.254L859.913 96.503a26.342 26.342 0 0 0-13.17-17.231 26.024 26.024 0 0 0-7.38-2.507l-0.636-0.106a26.27 26.27 0 0 0-3.637-0.389c-0.353 0-0.707-0.14-1.06-0.14H555.644V36.086c0-17.937-11.865-32.485-26.483-32.485s-26.483 14.548-26.483 32.485V76.13H224.362c-0.353 0-0.706 0.106-1.06 0.141l-0.988 0.071a24.4 24.4 0 0 0-13.912 5.897l-0.142 0.106a25.353 25.353 0 0 0-5.26 6.179 26.483 26.483 0 0 0-3.355 7.945L3.495 464.684A26.342 26.342 0 0 0 0.53 478.35c-0.036 0.53-0.142 1.06-0.142 1.59H0.035c13.242 113.204 109.18 201.056 225.633 201.056 116.525 0 212.463-87.852 225.704-201.057h-0.353a26.483 26.483 0 0 0-3.001-15.254l-178.67-335.448h233.365v819.2H224.327c-13.983 0-25.318 11.9-25.318 26.553s11.335 26.518 25.318 26.518H834.03c13.948 0 25.283-11.864 25.283-26.518s-11.3-26.553-25.318-26.553H555.644v-819.2H790.14L611.47 464.684a26.377 26.377 0 0 0-2.967 13.665c-0.035 0.53-0.141 1.06-0.141 1.59h-0.353z m-382.27 148.056A174.433 174.433 0 0 1 59.639 506.456h274.538c12.006 0 21.716-11.864 21.716-26.518s-9.71-26.518-21.716-26.518H69.527l156.247-293.358 171.785 322.49a174.504 174.504 0 0 1-171.855 145.372z m607.973 0a174.433 174.433 0 0 1-166.064-121.468h276.833c12.111 0 21.892-11.864 21.892-26.518s-9.78-26.518-21.892-26.518H677.5l156.248-293.358 171.75 322.49a174.504 174.504 0 0 1-171.82 145.372z" p-id="4102"></path></svg>