<?xml version="1.0" standalone="no"?><!DOCTYPE svg PUBLIC "-//W3C//DTD SVG 1.1//EN" "http://www.w3.org/Graphics/SVG/1.1/DTD/svg11.dtd"><svg t="1594008802104" class="icon" viewBox="0 0 1024 1024" version="1.1" xmlns="http://www.w3.org/2000/svg" p-id="5959" xmlns:xlink="http://www.w3.org/1999/xlink" width="200" height="200"><defs><style type="text/css"></style></defs><path d="M832 128 256 128C185.6 128 128 185.6 128 256l0 576c0 70.4 57.6 128 128 128l576 0c70.4 0 128-57.6 128-128L960 256C960 185.6 902.4 128 832 128zM896 832c0 35.2-28.8 64-64 64L256 896c-35.2 0-64-28.8-64-64L192 256c0-35.2 28.8-64 64-64l576 0c35.2 0 64 28.8 64 64L896 832zM800 256 576 256 576 224C576 206.08 561.92 192 544 192 526.08 192 512 206.08 512 224L512 256 288 256C270.08 256 256 270.08 256 288l0 64C256 369.92 270.08 384 288 384 305.92 384 320 369.92 320 352L320 320l448 0 0 32C768 369.92 782.08 384 800 384S832 369.92 832 352l0-64C832 270.08 817.92 256 800 256zM736 384l-384 0C334.08 384 320 398.08 320 416l0 384C320 817.92 334.08 832 352 832l384 0c17.92 0 32-14.08 32-32l0-128c0-17.92-14.08-32-32-32L384 640 384 576l352 0C753.92 576 768 561.92 768 544l0-128C768 398.08 753.92 384 736 384zM704 704l0 64L384 768l0-64L704 704zM704 512 384 512 384 448l320 0L704 512z" p-id="5960"></path></svg>