<?xml version="1.0" standalone="no"?><!DOCTYPE svg PUBLIC "-//W3C//DTD SVG 1.1//EN" "http://www.w3.org/Graphics/SVG/1.1/DTD/svg11.dtd"><svg t="1594012599345" class="icon" viewBox="0 0 1024 1024" version="1.1" xmlns="http://www.w3.org/2000/svg" p-id="17080" xmlns:xlink="http://www.w3.org/1999/xlink" width="200" height="200"><defs><style type="text/css"></style></defs><path d="M508.3 467.6c161.9 37.7 282.4 182.6 282.4 357.7 0 11.3-7.5 18.8-18.8 18.8s-18.8-7.5-18.8-18.8c0-182.6-146.9-329.5-329.5-329.5S94.1 642.7 94.1 825.3c0 11.3-7.5 18.8-18.8 18.8s-18.8-7.5-18.8-18.8c0-173.2 120.5-320.1 282.4-357.7-71.5-33.9-122.4-105.4-122.4-190.2 0-114.9 92.3-207.1 207.1-207.1s207.1 92.3 207.1 207.1c0 84.7-50.9 158.2-122.4 190.2z m109.2-5.7v-3.8c0-11.3 7.5-18.8 18.8-18.8 82.8 0 150.6-67.8 150.6-150.6s-67.8-150.6-150.6-150.6c-11.3 0-18.8-7.5-18.8-18.8s7.5-18.8 18.8-18.8c103.6 0 188.3 84.7 188.3 188.3 0 73.4-41.4 135.6-101.7 167.6 133.7 37.7 233.5 161.9 233.5 308.8 0 11.3-7.5 18.8-18.8 18.8s-18.8-7.5-18.8-18.8c0-156.3-126.2-282.4-282.4-282.4-11.3 0-18.8-7.5-18.8-18.8l-0.1-2.1z m-22.6-184.5c0-94.1-75.3-169.5-169.5-169.5S256 183.3 256 277.4s75.3 169.5 169.5 169.5c92.2 0 169.4-75.4 169.4-169.5z" p-id="17081"></path></svg>