<?xml version="1.0" standalone="no"?><!DOCTYPE svg PUBLIC "-//W3C//DTD SVG 1.1//EN" "http://www.w3.org/Graphics/SVG/1.1/DTD/svg11.dtd"><svg t="1605514667510" class="icon" viewBox="0 0 1027 1024" version="1.1" xmlns="http://www.w3.org/2000/svg" p-id="2880" xmlns:xlink="http://www.w3.org/1999/xlink" width="200.5859375" height="200"><defs><style type="text/css"></style></defs><path d="M243.409887 453.562115L488.358266 659.111242a90.616278 90.616278 0 0 1 11.186824 127.702051l-54.361755 64.81748a90.606263 90.606263 0 0 1-127.702052 11.176809L72.522889 657.158304a90.606263 90.606263 0 0 1-11.176809-127.702051l54.361755-64.81748a90.696399 90.696399 0 0 1 127.702052-11.076658z m-49.955128 59.489466a12.909415 12.909415 0 0 0-18.257458 1.642471L120.805501 579.521546a12.889384 12.889384 0 0 0 1.64247 18.247443l244.958395 205.559141a12.91943 12.91943 0 0 0 18.267472-1.64247l54.361755-64.827494a12.909415 12.909415 0 0 0-1.64247-18.257458zM606.195482 21.231931l244.938364 205.549126a90.596248 90.596248 0 0 1 11.176809 127.692037l-54.361755 64.827495a90.606263 90.606263 0 0 1-127.702052 11.176809L435.278439 224.82812A90.606263 90.606263 0 0 1 424.131675 97.146099l54.361755-64.81748A90.686384 90.686384 0 0 1 606.195482 21.231931z m-49.955128 59.489466a12.889384 12.889384 0 0 0-18.247442 1.642471L483.621142 147.221407a12.929445 12.929445 0 0 0 1.64247 18.267473l244.938364 205.509066a12.909415 12.909415 0 0 0 18.257458-1.64247L802.831204 304.527982a12.909415 12.909415 0 0 0-1.64247-18.257458z m120.731569 368.323925l316.936643 265.969994a90.596248 90.596248 0 0 1 11.226884 127.692037l-54.361755 64.827494a90.596248 90.596248 0 0 1-127.692036 11.176809L506.084925 652.751677a90.616278 90.616278 0 0 1-11.176809-127.702052l54.361755-64.827494a90.616278 90.616278 0 0 1 127.702052-11.176809z m-49.955128 59.489467a12.909415 12.909415 0 0 0-18.257457 1.64247l-54.361755 64.827494a12.909415 12.909415 0 0 0 1.64247 18.257458L872.936636 859.22219a12.909415 12.909415 0 0 0 18.257457-1.64247l54.361755-64.81748a12.909415 12.909415 0 0 0-1.632455-18.257457z" p-id="2881" fill="#e05341"></path><path d="M727.53797 368.634392L435.719102 716.347319 196.118765 515.30497l291.808853-347.712927zM497.471972 276.936487L305.56336 505.670481 426.184763 606.91274l191.908612-228.74401zM39.50323 944.971148h543.717701a38.87847 38.87847 0 0 1 0 77.746924H39.50323a38.87847 38.87847 0 1 1 0-77.746924z" p-id="2882" fill="#e05341"></path></svg>