<?xml version="1.0" standalone="no"?><!DOCTYPE svg PUBLIC "-//W3C//DTD SVG 1.1//EN" "http://www.w3.org/Graphics/SVG/1.1/DTD/svg11.dtd"><svg t="1660119491040" class="icon" viewBox="0 0 1024 1024" version="1.1" xmlns="http://www.w3.org/2000/svg" p-id="2149" width="32" height="32" xmlns:xlink="http://www.w3.org/1999/xlink"><defs><style type="text/css">@font-face { font-family: feedback-iconfont; src: url("//at.alicdn.com/t/font_1031158_u69w8yhxdu.woff2?t=1630033759944") format("woff2"), url("//at.alicdn.com/t/font_1031158_u69w8yhxdu.woff?t=1630033759944") format("woff"), url("//at.alicdn.com/t/font_1031158_u69w8yhxdu.ttf?t=1630033759944") format("truetype"); }
</style></defs><path d="M940.2368 341.4016a20.48 20.48 0 0 0-38.0928 15.1552 419.84 419.84 0 0 1-647.4752 487.3216H358.4a20.48 20.48 0 0 0 0-40.96H200.6016a20.48 20.48 0 0 0-14.4384 34.9184 460.8 460.8 0 0 0 754.0736-496.4352zM92.16 512a419.84 419.84 0 0 1 677.1712-331.8784H665.6a20.48 20.48 0 0 0 0 40.96h157.7984a20.48 20.48 0 0 0 14.4384-34.9184A460.8 460.8 0 0 0 89.1904 695.5008a20.48 20.48 0 0 0 18.8416 12.3904 20.48 20.48 0 0 0 8.0896-1.7408 20.48 20.48 0 0 0 10.24-26.9312A417.28 417.28 0 0 1 92.16 512z" p-id="2150"></path><path d="M655.36 486.6048a20.48 20.48 0 0 0 0-40.96H532.48V440.32l102.4-103.0144a20.48 20.48 0 1 0-28.8768-28.8768L512 402.7392l-100.2496-100.1472a20.48 20.48 0 1 0-28.8768 28.8768L491.52 440.32v5.4272H368.64a20.48 20.48 0 0 0 0 40.96h122.88v62.1568H368.64a20.48 20.48 0 0 0 0 40.96h122.88V706.56a20.48 20.48 0 0 0 40.96 0V589.824h122.88a20.48 20.48 0 0 0 0-40.96H532.48v-62.2592z" p-id="2151"></path></svg>