<?xml version="1.0" standalone="no"?><!DOCTYPE svg PUBLIC "-//W3C//DTD SVG 1.1//EN" "http://www.w3.org/Graphics/SVG/1.1/DTD/svg11.dtd"><svg t="1602225138444" class="icon" viewBox="0 0 1024 1024" version="1.1" xmlns="http://www.w3.org/2000/svg" p-id="4032" xmlns:xlink="http://www.w3.org/1999/xlink" width="200" height="200"><defs><style type="text/css"></style></defs><path d="M298.666667 298.666667h128c12.8 0 21.333333 8.533333 21.333333 21.333333v85.333333c0 12.8-8.533333 21.333333-21.333333 21.333334H298.666667c-12.8 0-21.333333-8.533333-21.333334-21.333334v-85.333333c0-12.8 8.533333-21.333333 21.333334-21.333333z m529.066666 379.733333h-153.6c-12.8 0-21.333333 8.533333-21.333333 21.333333v149.333334l4.266667-4.266667 170.666666-166.4z m-251.733333-230.4H768v-42.666667h-192v42.666667z m0-128H768v-42.666667h-192v42.666667z m-341.333333 384H597.333333v-42.666667H234.666667v42.666667z m0-128H768v-42.666667H234.666667v42.666667zM298.666667 256c-34.133333 0-64 29.866667-64 64v85.333333c0 34.133333 29.866667 64 64 64h128c34.133333 0 64-29.866667 64-64v-85.333333c0-34.133333-29.866667-64-64-64H298.666667zM192 128h640c34.133333 0 64 29.866667 64 64v452.266667c0 17.066667-8.533333 34.133333-17.066667 46.933333l-187.733333 187.733333c-12.8 12.8-29.866667 17.066667-46.933333 17.066667H192c-34.133333 0-64-29.866667-64-64v-640C128 157.866667 157.866667 128 192 128z" p-id="4033"></path></svg>