<?xml version="1.0" standalone="no"?><!DOCTYPE svg PUBLIC "-//W3C//DTD SVG 1.1//EN" "http://www.w3.org/Graphics/SVG/1.1/DTD/svg11.dtd"><svg t="1742440289733" class="icon" viewBox="0 0 1024 1024" version="1.1" xmlns="http://www.w3.org/2000/svg" p-id="4774" xmlns:xlink="http://www.w3.org/1999/xlink" width="200" height="200"><path d="M967.607808 781.653333c-13.653333 23.893333-44.373333 30.72-68.266667 17.066667l-37.546666-20.48c-71.68 92.16-177.493333 157.013333-300.373334 170.666667v27.306666c0 27.306667-20.48 47.786667-47.786666 47.786667-27.306667 0-47.786667-20.48-47.786667-47.786667v-27.306666c-122.88-13.653333-232.106667-78.506667-300.373333-170.666667l-37.546667 20.48c-23.893333 13.653333-51.2 6.826667-64.853333-17.066667-13.653333-23.893333-6.826667-54.613333 17.066666-68.266666l37.546667-20.48C93.794475 638.293333 80.141141 576.853333 80.141141 512c0-58.026667 10.24-109.226667 30.72-160.426667L73.314475 334.506667C49.421141 320.853333 42.594475 290.133333 56.247808 269.653333c13.653333-23.893333 44.373333-30.72 68.266667-17.066666l27.306666 13.653333c71.68-102.4 184.32-174.08 314.026667-191.146667v-27.306666c0-27.306667 20.48-47.786667 47.786667-47.786667 27.306667 0 47.786667 20.48 47.786666 47.786667v27.306666c54.613333 6.826667 105.813333 23.893333 150.186667 47.786667 13.653333 0 30.72 10.24 37.546667 23.893333 13.653333 23.893333 6.826667 54.613333-17.066667 68.266667-13.653333 6.826667-30.72 6.826667-47.786667 0v3.413333c-51.2-30.72-109.226667-47.786667-170.666666-47.786666-191.146667 0-341.333333 153.6-341.333334 341.333333s153.6 341.333333 341.333334 341.333333 341.333333-153.6 341.333333-341.333333c0-10.24 0-23.893333-3.413333-34.133333h3.413333c-6.826667-20.48 3.413333-44.373333 23.893333-54.613334 23.893333-13.653333 54.613333-6.826667 68.266667 17.066667 6.826667 10.24 6.826667 23.893333 3.413333 37.546667 0 13.653333 3.413333 23.893333 3.413334 37.546666 0 64.853333-13.653333 126.293333-37.546667 180.906667l37.546667 20.48c20.48 10.24 27.306667 40.96 13.653333 64.853333zM926.647808 262.826667L530.701141 655.36c-3.413333 6.826667-10.24 17.066667-20.48 20.48-23.893333 13.653333-54.613333 6.826667-68.266666-17.066667 0 0 0-3.413333-3.413334-3.413333l-98.986666-98.986667c-3.413333-3.413333-10.24-10.24-17.066667-20.48-13.653333-23.893333-6.826667-54.613333 17.066667-68.266666 23.893333-13.653333 54.613333-6.826667 68.266666 17.066666v3.413334l78.506667 78.506666L858.381141 197.973333c3.413333-10.24 10.24-17.066667 20.48-23.893333 23.893333-13.653333 54.613333-6.826667 68.266667 17.066667 10.24 27.306667 3.413333 58.026667-20.48 71.68z" p-id="4775"></path></svg>