<?xml version="1.0" standalone="no"?><!DOCTYPE svg PUBLIC "-//W3C//DTD SVG 1.1//EN" "http://www.w3.org/Graphics/SVG/1.1/DTD/svg11.dtd"><svg t="1596095173639" class="icon" viewBox="0 0 1024 1024" version="1.1" xmlns="http://www.w3.org/2000/svg" p-id="2355" xmlns:xlink="http://www.w3.org/1999/xlink" width="200" height="200"><defs><style type="text/css"></style></defs><path d="M950.867766 0.034302H73.177982a73.177976 73.177976 0 0 0-73.177976 73.177976v877.609746a73.177976 73.177976 0 0 0 73.177976 73.177976h676.564691a36.588988 36.588988 0 0 0 0-73.177976H73.177982V73.177976h877.689784v676.518954a36.588988 36.588988 0 0 0 73.177976 0V73.177976a73.177976 73.177976 0 0 0-73.177976-73.177976z m0 0" p-id="2356"></path><path d="M831.724874 779.974318a236.181918 236.181918 0 0 0 45.999219-139.987181c-0.160077-131.205824-106.485389-237.531137-237.691214-237.725516-131.217258 0.194379-237.554005 106.519691-237.691213 237.725516 0.137209 131.205824 106.473955 237.542571 237.691213 237.691213a235.633083 235.633083 0 0 0 139.987182-45.999218l126.700805 126.677937a36.588988 36.588988 0 0 0 51.784852-51.704814zM475.473906 639.987137c0-90.694954 73.86402-164.558974 164.558973-164.558974s164.558974 73.86402 164.558974 164.558974-73.86402 164.558974-164.558974 164.558973-164.558974-73.86402-164.558973-164.558973z m365.684067-411.397434a36.588988 36.588988 0 0 0-36.588988-36.588988H219.533934a36.588988 36.588988 0 0 0 0 73.177976h585.057919a36.588988 36.588988 0 0 0 36.588988-36.588988zM219.533934 409.899572a36.588988 36.588988 0 1 0 0 73.177976h109.69836a36.588988 36.588988 0 1 0 0-73.177976z m0 0" p-id="2357"></path></svg>