<?xml version="1.0" standalone="no"?><!DOCTYPE svg PUBLIC "-//W3C//DTD SVG 1.1//EN" "http://www.w3.org/Graphics/SVG/1.1/DTD/svg11.dtd"><svg t="1658453045361" class="icon" viewBox="0 0 1024 1024" version="1.1" xmlns="http://www.w3.org/2000/svg" p-id="2380" width="32" height="32" xmlns:xlink="http://www.w3.org/1999/xlink"><defs><style type="text/css">@font-face { font-family: feedback-iconfont; src: url("//at.alicdn.com/t/font_1031158_u69w8yhxdu.woff2?t=1630033759944") format("woff2"), url("//at.alicdn.com/t/font_1031158_u69w8yhxdu.woff?t=1630033759944") format("woff"), url("//at.alicdn.com/t/font_1031158_u69w8yhxdu.ttf?t=1630033759944") format("truetype"); }
</style></defs><path d="M359 106.1l-41-7.6c-5.1-1-10.2-1.4-15.2-1.4-39.3 0-74.6 28.1-82 68.1L98.4 820.7C90 865.8 120 909.5 165.1 918l41 7.6c5.1 1 10.2 1.4 15.2 1.4 39.3 0 74.6-28.1 82-68.1l122.4-655.6c8.4-45.1-21.6-88.8-66.7-97.2z m25.9 89.6L262.5 851.3c-3.6 19.5-21.4 34.2-41.2 34.2-2.5 0-5.1-0.2-7.6-0.7l-41-7.6C150 873 135 851 139.2 828.4l122.4-655.6c3.6-19.5 21.4-34.2 41.2-34.2 2.6 0 5.1 0.2 7.6 0.7l41 7.7c10.9 2 20.4 8.3 26.8 17.5 6.3 9.2 8.7 20.3 6.7 31.2zM844 346h-41.5c-11.5 0-20.8 9.3-20.8 20.8s9.3 20.8 20.8 20.8H844c11.5 0 20.8-9.3 20.8-20.8S855.5 346 844 346zM844 263h-41.5c-11.5 0-20.8 9.3-20.8 20.8s9.3 20.8 20.8 20.8H844c11.5 0 20.8-9.3 20.8-20.8S855.5 263 844 263zM844 429h-41.5c-11.5 0-20.8 9.3-20.8 20.8s9.3 20.8 20.8 20.8H844c11.5 0 20.8-9.3 20.8-20.8S855.5 429 844 429zM553.5 346H512c-11.5 0-20.8 9.3-20.8 20.8s9.3 20.8 20.8 20.8h41.5c11.5 0 20.8-9.3 20.8-20.8-0.1-11.5-9.3-20.8-20.8-20.8zM553.5 263H512c-11.5 0-20.8 9.3-20.8 20.8s9.3 20.8 20.8 20.8h41.5c11.5 0 20.8-9.3 20.8-20.8-0.1-11.5-9.3-20.8-20.8-20.8zM553.5 429H512c-11.5 0-20.8 9.3-20.8 20.8s9.3 20.8 20.8 20.8h41.5c11.5 0 20.8-9.3 20.8-20.8-0.1-11.5-9.3-20.8-20.8-20.8z" p-id="2381"></path><path d="M844 97h-41.5c-45.7 0-83 37.3-83 83v664c0 45.7 37.3 83 83 83H844c45.7 0 83-37.3 83-83V180c0-45.7-37.3-83-83-83z m41.5 747c0 22.9-18.6 41.5-41.5 41.5h-41.5c-22.9 0-41.5-18.6-41.5-41.5V180c0-22.9 18.6-41.5 41.5-41.5H844c22.9 0 41.5 18.6 41.5 41.5v664zM553.5 97H512c-45.7 0-83 37.3-83 83v664c0 45.7 37.3 83 83 83h41.5c45.7 0 83-37.3 83-83V180c0-45.7-37.3-83-83-83zM595 844c0 22.9-18.6 41.5-41.5 41.5H512c-22.9 0-41.5-18.6-41.5-41.5V180c0-22.9 18.6-41.5 41.5-41.5h41.5c22.9 0 41.5 18.6 41.5 41.5v664zM312.2 350.8l-40.8-7.6c-11.3-2.1-22.1 5.3-24.2 16.6-2.1 11.3 5.3 22.1 16.6 24.2l40.8 7.6c11.3 2.1 22.1-5.3 24.2-16.6 2.1-11.3-5.4-22.1-16.6-24.2zM327.4 269.2l-40.8-7.6c-11.3-2.1-22.1 5.3-24.2 16.6-2.1 11.3 5.3 22.1 16.6 24.2l40.8 7.6c11.3 2.1 22.1-5.3 24.2-16.6 2.1-11.3-5.3-22.1-16.6-24.2zM296.9 432.4l-40.8-7.6c-11.3-2.1-22.1 5.3-24.2 16.6-2.1 11.3 5.3 22.1 16.6 24.2l40.8 7.6c11.3 2.1 22.1-5.3 24.2-16.6 2.1-11.3-5.3-22.1-16.6-24.2z" p-id="2382"></path></svg>