<?xml version="1.0" standalone="no"?><!DOCTYPE svg PUBLIC "-//W3C//DTD SVG 1.1//EN" "http://www.w3.org/Graphics/SVG/1.1/DTD/svg11.dtd"><svg t="1602300458803" class="icon" viewBox="0 0 1024 1024" version="1.1" xmlns="http://www.w3.org/2000/svg" p-id="33051" xmlns:xlink="http://www.w3.org/1999/xlink" width="200" height="200"><defs><style type="text/css"></style></defs><path d="M218.453333 401.408H106.154667C50.858667 401.408 4.096 449.262933 4.096 505.856v402.773333a102.4 102.4 0 0 0 102.4 102.058667H218.453333zM994.7136 403.456A124.859733 124.859733 0 0 0 894.293333 353.826133h-209.851733V139.195733A118.920533 118.920533 0 0 0 565.6576 20.48c-58.845867 0-108.7488 39.389867-118.5792 93.661867C419.566933 263.236267 349.320533 356.078933 279.893333 388.437333V1010.346667h483.669334A149.504 149.504 0 0 0 907.946667 900.573867l107.178666-388.096a123.4944 123.4944 0 0 0-20.411733-109.021867z" p-id="33052"></path></svg>