<?xml version="1.0" standalone="no"?><!DOCTYPE svg PUBLIC "-//W3C//DTD SVG 1.1//EN" "http://www.w3.org/Graphics/SVG/1.1/DTD/svg11.dtd"><svg t="1602300463214" class="icon" viewBox="0 0 1024 1024" version="1.1" xmlns="http://www.w3.org/2000/svg" p-id="33192" xmlns:xlink="http://www.w3.org/1999/xlink" width="200" height="200"><defs><style type="text/css"></style></defs><path d="M902.8 355.2h-221V129.4c0-63.1-51-114.1-114.1-114.1-55.8 0-104.4 36.4-114.1 89.8-29.1 157.8-121.4 298.7-233.1 298.7H99.1C45.7 403.8 2 449.9 2 503.3v410.3c0 53.4 43.7 97.1 97.1 97.1h670.2c65.6 0 123.8-43.7 140.8-106.8l109.3-395.8c21.8-77.6-36.5-152.9-116.6-152.9zM220.5 459.6v502.6H99.1c-26.7 0-48.6-21.9-48.6-48.6V503.3c0-26.7 21.9-51 48.6-51h121.4v7.3z m752.7 34L864 889.4c-12.1 43.7-51 72.8-94.7 72.8H269.1V447.5c92.3-26.7 194.2-133.5 233.1-330.2 4.9-31.6 31.6-53.4 65.6-53.4 36.4 0 65.6 29.1 65.6 65.6v223.4c0 26.7 24.3 51 51 51h218.5c21.9 0 43.7 9.7 58.3 29.1 14.5 16.9 16.9 38.7 12 60.6z" fill="#64c0d3" p-id="33193"></path></svg>