<?xml version="1.0" standalone="no"?><!DOCTYPE svg PUBLIC "-//W3C//DTD SVG 1.1//EN" "http://www.w3.org/Graphics/SVG/1.1/DTD/svg11.dtd"><svg t="1594009841956" class="icon" viewBox="0 0 1024 1024" version="1.1" xmlns="http://www.w3.org/2000/svg" p-id="14295" xmlns:xlink="http://www.w3.org/1999/xlink" width="200" height="200"><defs><style type="text/css"></style></defs><path d="M480.51712 573.7472a216.40704 216.40704 0 0 0 110.26944-188.96384C590.78656 265.7792 495.19616 168.96 377.69728 168.96s-213.0944 96.8192-213.0944 215.82848a216.40704 216.40704 0 0 0 110.26944 188.95872A299.89888 299.89888 0 0 0 81.92 854.60992h56.17664c0-133.80608 107.48416-242.688 239.616-242.688s239.616 108.86144 239.616 242.688h56.17664a299.89888 299.89888 0 0 0-192.98816-280.86272z m-259.7376-188.96384a156.928 156.928 0 1 1 156.91776 158.9248 158.11072 158.11072 0 0 1-156.91776-158.9248zM908.87168 168.96h-325.30432v56.89856h297.216v572.28288h-152.43264V855.04h180.52096a28.27264 28.27264 0 0 0 28.08832-28.44672V197.40672A28.27264 28.27264 0 0 0 908.87168 168.96z" fill="#3B4552" p-id="14296"></path><path d="M833.9712 376.20736h-178.0224V319.29344h178.0224v56.91392z m0 164.2496h-178.0224V483.54304h178.0224v56.91392z m0 164.2496H711.68v-56.91392h122.3168v56.91392z" fill="#FF960B" p-id="14297"></path></svg>