<?xml version="1.0" standalone="no"?><!DOCTYPE svg PUBLIC "-//W3C//DTD SVG 1.1//EN" "http://www.w3.org/Graphics/SVG/1.1/DTD/svg11.dtd"><svg t="1594009095323" class="icon" viewBox="0 0 1024 1024" version="1.1" xmlns="http://www.w3.org/2000/svg" p-id="9505" xmlns:xlink="http://www.w3.org/1999/xlink" width="200" height="200"><defs><style type="text/css"></style></defs><path d="M609.603368 22.204632l161.253053 161.199157a77.608421 77.608421 0 0 1 0 109.783579l-50.283789 50.28379a77.608421 77.608421 0 0 1-109.136843 0.646737l-30.504421 30.504421 359.208421 359.208421a54.325895 54.325895 0 0 1 0 76.8l-75.614315 75.614316a54.325895 54.325895 0 0 1-76.8 0L428.463158 527.090526l-30.504421 30.558316 4.419368 4.850526a77.608421 77.608421 0 0 1-5.066105 104.232421l-50.283789 50.28379a77.608421 77.608421 0 0 1-109.783579 0l-161.199158-161.253053a77.608421 77.608421 0 0 1 0-109.729684l50.283789-50.337684a77.608421 77.608421 0 0 1 109.082948-0.646737l213.423157-213.477053-4.365473-4.850526a77.608421 77.608421 0 0 1 5.01221-104.178526l50.337684-50.28379a77.608421 77.608421 0 0 1 109.729685 0z" fill="#3296FA" p-id="9506"></path><path d="M134.736842 943.157895m-80.842105 0a80.842105 80.842105 0 1 0 161.68421 0 80.842105 80.842105 0 1 0-161.68421 0Z" fill="#3296FA" p-id="9507"></path><path d="M350.315789 943.157895m-80.842105 0a80.842105 80.842105 0 1 0 161.684211 0 80.842105 80.842105 0 1 0-161.684211 0Z" fill="#3296FA" p-id="9508"></path><path d="M565.894737 943.157895m-80.842105 0a80.842105 80.842105 0 1 0 161.68421 0 80.842105 80.842105 0 1 0-161.68421 0Z" fill="#3296FA" p-id="9509"></path></svg>