<?xml version="1.0" standalone="no"?><!DOCTYPE svg PUBLIC "-//W3C//DTD SVG 1.1//EN" "http://www.w3.org/Graphics/SVG/1.1/DTD/svg11.dtd"><svg t="1657618934943" class="icon" viewBox="0 0 1024 1024" version="1.1" xmlns="http://www.w3.org/2000/svg" p-id="2353" width="48" height="48" xmlns:xlink="http://www.w3.org/1999/xlink"><defs><style type="text/css">@font-face { font-family: feedback-iconfont; src: url("//at.alicdn.com/t/font_1031158_u69w8yhxdu.woff2?t=1630033759944") format("woff2"), url("//at.alicdn.com/t/font_1031158_u69w8yhxdu.woff?t=1630033759944") format("woff"), url("//at.alicdn.com/t/font_1031158_u69w8yhxdu.ttf?t=1630033759944") format("truetype"); }
</style></defs><path d="M170.666667 0h682.666666v796.444444H170.666667z" fill="#EFF6FF" p-id="2354"></path><path d="M170.666667 113.777778h153.6c45.511111 0 85.333333 28.444444 102.4 68.266666l182.044444 438.044445c11.377778 22.755556 28.444444 34.133333 51.2 34.133333H853.333333c62.577778 0 113.777778 51.2 113.777778 113.777778V910.222222c0 62.577778-51.2 113.777778-113.777778 113.777778H170.666667c-62.577778 0-113.777778-51.2-113.777778-113.777778V227.555556c0-62.577778 51.2-113.777778 113.777778-113.777778z" fill="#3296FA" p-id="2355"></path><path d="M369.777778 870.4h-113.777778c-5.688889 0-17.066667-11.377778-17.066667-17.066667s5.688889-11.377778 11.377778-11.377777h113.777778c5.688889 0 11.377778 5.688889 11.377778 11.377777s0 17.066667-5.688889 17.066667z" fill="#FFFFFF" p-id="2356"></path><path d="M312.888889 870.4c-5.688889 0-17.066667-11.377778-17.066667-17.066667v-227.555555c0-5.688889 5.688889-11.377778 11.377778-11.377778s22.755556 5.688889 22.755556 11.377778v227.555555c0 5.688889-11.377778 17.066667-17.066667 17.066667zM244.622222 796.444444h-34.133333c-17.066667 0-28.444444-11.377778-28.444445-28.444444v-11.377778l28.444445-91.022222 5.688889-5.688889H233.244444l5.688889 5.688889 28.444445 85.333333c11.377778 22.755556 0 39.822222-11.377778 45.511111h-11.377778zM227.555556 716.8l-17.066667 51.2h34.133333l-17.066666-51.2zM415.288889 796.444444h-34.133333c-17.066667 0-28.444444-11.377778-28.444445-28.444444v-11.377778l28.444445-91.022222 5.688888-5.688889H403.911111l5.688889 5.688889 28.444444 85.333333c11.377778 22.755556 0 39.822222-11.377777 45.511111h-11.377778zM398.222222 716.8l-17.066666 51.2h34.133333l-17.066667-51.2z" fill="#FFFFFF" p-id="2357"></path><path d="M426.666667 671.288889h-227.555556c-5.688889 0-11.377778-5.688889-11.377778-11.377778s5.688889-11.377778 11.377778-11.377778h227.555556c5.688889 0 11.377778 5.688889 11.377777 11.377778s-5.688889 11.377778-11.377777 11.377778z" fill="#FFFFFF" p-id="2358"></path></svg>