<?xml version="1.0" standalone="no"?><!DOCTYPE svg PUBLIC "-//W3C//DTD SVG 1.1//EN" "http://www.w3.org/Graphics/SVG/1.1/DTD/svg11.dtd"><svg t="1658459534169" class="icon" viewBox="0 0 1024 1024" version="1.1" xmlns="http://www.w3.org/2000/svg" p-id="9793" xmlns:xlink="http://www.w3.org/1999/xlink" width="32" height="32"><defs><style type="text/css">@font-face { font-family: feedback-iconfont; src: url("//at.alicdn.com/t/font_1031158_u69w8yhxdu.woff2?t=1630033759944") format("woff2"), url("//at.alicdn.com/t/font_1031158_u69w8yhxdu.woff?t=1630033759944") format("woff"), url("//at.alicdn.com/t/font_1031158_u69w8yhxdu.ttf?t=1630033759944") format("truetype"); }
</style></defs><path d="M844.8 119.466667c-12.8-21.333333-34.133333-34.133333-55.466667-34.133334h-554.666666c-21.333333 0-42.666667 12.8-55.466667 34.133334S170.666667 162.133333 183.466667 183.466667L384 448V768l256 170.666667V460.8c0-4.266667 0-8.533333 4.266667-8.533333L844.8 183.466667c12.8-21.333333 12.8-42.666667 0-64z m-34.133333 38.4L605.866667 426.666667c-8.533333 8.533333-8.533333 21.333333-8.533334 34.133333V682.666667h-170.666666V460.8c0-12.8-4.266667-25.6-8.533334-34.133333L217.6 162.133333c-8.533333-12.8-4.266667-21.333333 0-21.333333 4.266667-8.533333 8.533333-12.8 17.066667-12.8h550.4c8.533333 0 17.066667 4.266667 21.333333 12.8 4.266667 0 8.533333 8.533333 4.266667 17.066667z m-93.866667 17.066666c8.533333 8.533333 12.8 21.333333 4.266667 29.866667l-128 170.666667c-4.266667 4.266667-8.533333 8.533333-17.066667 8.533333-4.266667 0-8.533333 0-12.8-4.266667-8.533333-8.533333-12.8-21.333333-4.266667-29.866666l128-170.666667c8.533333-8.533333 21.333333-12.8 29.866667-4.266667z" fill="" p-id="9794"></path></svg>