<?xml version="1.0" standalone="no"?><!DOCTYPE svg PUBLIC "-//W3C//DTD SVG 1.1//EN" "http://www.w3.org/Graphics/SVG/1.1/DTD/svg11.dtd"><svg t="1602225276139" class="icon" viewBox="0 0 1024 1024" version="1.1" xmlns="http://www.w3.org/2000/svg" p-id="4769" xmlns:xlink="http://www.w3.org/1999/xlink" width="200" height="200"><defs><style type="text/css"></style></defs><path d="M87.80569917 147.89989177v728.20021646c0 13.43281952 11.31184801 24.74466755 24.74466755 24.74466754h798.89926656c13.43281952 0 24.74466755-11.31184801 24.74466755-24.74466754V147.89989177c0-13.43281952-11.31184801-24.74466755-24.74466755-24.74466754H112.55036672c-13.43281952 0-24.74466755 11.31184801-24.74466755 24.74466754zM840.75058315 830.14572563H183.24941685c-13.43281952 0-24.74466755-11.31184801-24.74466755-24.74466755v-459.5438259c0-13.43281952 11.31184801-24.74466755 24.74466755-24.74466756h657.5011663c13.43281952 0 24.74466755 11.31184801 24.74466755 24.74466756v459.5438259c0 13.43281952-11.31184801 24.74466755-24.74466755 24.74466755zM600.37381268 575.62914512h35.34952507c13.43281952 0 24.74466755-11.31184801 24.74466755-24.74466754v-7.06990501c0-13.43281952 11.31184801-24.74466755 24.74466755-24.74466756h77.76895515c13.43281952 0 24.74466755-11.31184801 24.74466755-24.74466754s-11.31184801-24.74466755-24.74466755-24.74466755h-77.76895515c-13.43281952 0-24.74466755-11.31184801-24.74466755-24.74466755v-7.06990502c0-13.43281952-11.31184801-24.74466755-24.74466755-24.74466755H600.37381268c-13.43281952 0-24.74466755 11.31184801-24.74466756 24.74466755v7.06990502c0 13.43281952-11.31184801 24.74466755-24.74466754 24.74466755H275.15818203c-13.43281952 0-24.74466755 11.31184801-24.74466754 24.74466755s11.31184801 24.74466755 24.74466754 24.74466754h275.72629555c13.43281952 0 24.74466755 11.31184801 24.74466754 24.74466756v7.06990501c0 13.43281952 11.31184801 24.74466755 24.74466756 24.74466754z m-197.9573404 21.20971505h-35.34952506c-13.43281952 0-24.74466755 11.31184801-24.74466756 24.74466755v7.06990501c0 13.43281952-11.31184801 24.74466755-24.74466754 24.74466756h-56.55924012c-13.43281952 0-24.74466755 11.31184801-24.74466755 24.74466753s11.31184801 24.74466755 24.74466755 24.74466756h56.55924012c13.43281952 0 24.74466755 11.31184801 24.74466754 24.74466755v14.13981002c0 13.43281952 11.31184801 24.74466755 24.74466756 24.74466755h35.34952506c13.43281952 0 24.74466755-11.31184801 24.74466755-24.74466755v-7.069905c0-13.43281952 11.31184801-24.74466755 24.74466755-24.74466757h304.00591561c13.43281952 0 24.74466755-11.31184801 24.74466755-24.74466753s-11.31184801-24.74466755-24.74466755-24.74466755H451.90580738c-13.43281952 0-24.74466755-11.31184801-24.74466755-24.74466755v-14.13981003c0-13.43281952-11.31184801-24.74466755-24.74466755-24.74466755z" fill="#707070" p-id="4770"></path></svg>