<?xml version="1.0" standalone="no"?><!DOCTYPE svg PUBLIC "-//W3C//DTD SVG 1.1//EN" "http://www.w3.org/Graphics/SVG/1.1/DTD/svg11.dtd"><svg t="1596095400878" class="icon" viewBox="0 0 1024 1024" version="1.1" xmlns="http://www.w3.org/2000/svg" p-id="3119" xmlns:xlink="http://www.w3.org/1999/xlink" width="200" height="200"><defs><style type="text/css"></style></defs><path d="M884.82702222 146.48331105c36.55166877 0 65.79300428 29.2413355 65.79300429 65.79300428v526.3440318c0 36.55166877-29.2413355 65.79300428-65.79300429 65.79300307H139.17297778c-36.55166877 0-65.79300428-29.2413355-65.79300429-65.79300307V212.27631533c0-36.55166877 29.2413355-65.79300428 65.79300429-65.79300428h745.65404444z m-701.7920424 65.79300428c-29.2413355 0-51.17233652 23.39306791-51.17233531 52.63440342v421.07522495c0 29.2413355 21.93100102 52.63440342 51.17233531 52.63440343h657.93004036c29.2413355 0 51.17233652-23.39306791 51.17233531-52.63440343V264.91071875c0-29.2413355-21.93100102-52.63440342-51.17233531-52.63440342h-657.93004036z" fill="#696969" p-id="3120"></path><path d="M736.64655694 363.96574068c22.51582851 2.26620333 28.21788892 25.95168438 16.88687108 39.47580256L544.89650154 586.85781758 386.8470853 429.97805511 302.19342097 515.21654693c-16.88687107 16.88687107-50.73371621-11.91584412-33.84684513-31.65374479l118.42740649-117.91568441L544.89650154 524.79308353l174.86318432-155.19838543a28.94892115 28.94892115 0 0 1 16.95997405-5.62895742z" fill="#696969" p-id="3121"></path></svg>