<?xml version="1.0" standalone="no"?><!DOCTYPE svg PUBLIC "-//W3C//DTD SVG 1.1//EN" "http://www.w3.org/Graphics/SVG/1.1/DTD/svg11.dtd"><svg t="1662107198164" class="icon" viewBox="0 0 1024 1024" version="1.1" xmlns="http://www.w3.org/2000/svg" p-id="35830" xmlns:xlink="http://www.w3.org/1999/xlink" width="32" height="32"><path d="M64.7 97.4V925c0 19.1 15.5 34.5 34.5 34.5h826.6c19.1 0 34.5-15.5 34.5-34.5V97.4c0-19.1-15.5-34.5-34.5-34.5H99.2c-19.1 0-34.5 15.4-34.5 34.5z m59.1 768.5V156.5c0-19.1 15.5-34.5 34.5-34.5h708.4c19.1 0 34.5 15.5 34.5 34.5v709.4c0 19.1-15.5 34.5-34.5 34.5H158.3c-19 0-34.5-15.4-34.5-34.5z" p-id="35831"></path><path d="M229 815.4c0 18.1 14.6 32.7 32.7 32.7h500.1c18.1 0 32.7-14.6 32.7-32.7s-14.6-32.7-32.7-32.7H261.7c-18.1 0-32.7 14.6-32.7 32.7zM467.4 620.9L344.8 498.3l210.8-210.8 122.6 122.6-210.8 210.8zM234 732.3l47.2-166.8 119.5 119.6zM567.4 280.9l81-81c22.6-22.6 58.5-23.1 80-1l39.5 39.5c21.5 21.5 21 57.5-1 80l-81 81" p-id="35832"></path></svg>