<?xml version="1.0" standalone="no"?><!DOCTYPE svg PUBLIC "-//W3C//DTD SVG 1.1//EN" "http://www.w3.org/Graphics/SVG/1.1/DTD/svg11.dtd"><svg t="1605514726416" class="icon" viewBox="0 0 1024 1024" version="1.1" xmlns="http://www.w3.org/2000/svg" p-id="3874" xmlns:xlink="http://www.w3.org/1999/xlink" width="200" height="200"><defs><style type="text/css"></style></defs><path d="M512.023536 958.954565c-60.394509 0-118.990045-11.83249-174.160575-35.166941-53.280484-22.534226-101.127212-54.793954-142.212956-95.878674-41.084721-41.084721-73.343425-88.932472-95.878674-142.212956-23.334451-55.17053-35.166941-113.766067-35.166941-174.160575s11.83249-118.991068 35.166941-174.160575c22.535249-53.280484 54.793954-101.127212 95.878674-142.212956 41.085744-41.084721 88.932472-73.343425 142.212956-95.878674 55.169507-23.334451 113.766067-35.166941 174.160575-35.166941 60.394509 0 118.990045 11.83249 174.159552 35.166941 53.280484 22.535249 101.127212 54.793954 142.212956 95.878674 41.084721 41.085744 73.344448 88.932472 95.878674 142.212956 23.335475 55.169507 35.166941 113.766067 35.166941 174.160575s-11.83249 118.990045-35.166941 174.160575c-22.534226 53.279461-54.793954 101.127212-95.878674 142.212956s-88.931448 73.343425-142.212956 95.878674C631.014604 947.123099 572.418045 958.954565 512.023536 958.954565zM512.023536 94.816482c-229.780337 0-416.71996 186.939623-416.71996 416.71996 0 229.779314 186.939623 416.71996 416.71996 416.71996s416.71996-186.940646 416.71996-416.71996C928.743496 281.756105 741.803873 94.816482 512.023536 94.816482z" fill="#d81e06" p-id="3875"></path><path d="M418.055374 570.3305c1.319042 11.550057 4.454452 25.90295 9.403161 43.058678-39.927361 39.593763-70.117964 71.106478-90.571808 94.53098l-28.210505-32.1707c9.898441-13.857613 14.848173-30.352285 14.848173-49.492204L323.524394 471.345068 263.638469 471.345068l0-35.634592 97.995895 0 0 193.021132C376.809995 614.217033 395.617339 594.747609 418.055374 570.3305zM311.645856 278.323936c38.604226 39.265282 65.659419 67.642586 81.167624 85.126796l-34.645055 29.200042c-20.786419-27.054169-46.360887-56.421011-76.713172-88.096431L311.645856 278.323936zM388.854309 694.557826l68.794829 0L457.649138 420.862303l38.108946 0 0 273.694499 78.69327 0L574.451354 332.765873l-158.3771 0 0-36.625152 330.61079 0 0 36.625152L614.046141 332.765873l0 148.972916 114.822119 0 0 36.625152L614.046141 518.363941l0 176.193885 140.558269 0 0 36.624129-365.750101 0L388.854309 694.557826z" fill="#d81e06" p-id="3876"></path></svg>