<?xml version="1.0" standalone="no"?><!DOCTYPE svg PUBLIC "-//W3C//DTD SVG 1.1//EN" "http://www.w3.org/Graphics/SVG/1.1/DTD/svg11.dtd"><svg t="1605514835106" class="icon" viewBox="0 0 1046 1024" version="1.1" xmlns="http://www.w3.org/2000/svg" p-id="6985" xmlns:xlink="http://www.w3.org/1999/xlink" width="204.296875" height="200"><defs><style type="text/css"></style></defs><path d="M336.016503 593.346278q5.30821 54.229491 12.76012 104.206969-79.749732 73.371713-153.121444 144.614697-21.270951 21.270951-46.787108 51.040482l-62.737599-64.863605q34.020182-36.148911 34.026988-87.194836V394.500728H0v-78.688089h203.098923v406.197846q56.348692-52.099401 132.91758-128.664207zM137.170954 0q82.941463 81.882543 168.008932 176.515679l-74.434716 62.736238Q143.543528 126.542284 73.370352 54.230852z m390.248716 625.245898l32.962623-71.244346q79.751093 28.711972 168.008932 61.674596V400.880108h-238.188913v136.107951q0 310.503068-168.007571 487.011941a803.445233 803.445233 0 0 0-61.674596-70.181343q145.668173-150.989994 145.677701-405.133481V59.547228q288.158225-1.057559 562.508299-46.787108l27.647608 81.877099Q745.396553 122.28891 490.200951 133.981944v186.084068h556.13028v80.814096H812.395691v246.695661q105.269972 40.411812 222.238423 86.131833l-38.280361 89.320842q-87.203003-40.399562-183.958062-81.878459v278.59528h-84.004466V706.059994q-96.236488-39.874185-200.971555-80.814096z" p-id="6986" fill="#d81e06"></path></svg>