<?xml version="1.0" standalone="no"?><!DOCTYPE svg PUBLIC "-//W3C//DTD SVG 1.1//EN" "http://www.w3.org/Graphics/SVG/1.1/DTD/svg11.dtd"><svg t="1594008601592" class="icon" viewBox="0 0 1024 1024" version="1.1" xmlns="http://www.w3.org/2000/svg" p-id="4026" xmlns:xlink="http://www.w3.org/1999/xlink" width="200" height="200"><defs><style type="text/css"></style></defs><path d="M591.829333 17.066667l5.376 4.650666 95.061334 90.624-85.930667 36.010667-63.317333-60.373333-142.762667 146.730666L247.424 298.666667h0.128l494.293333-207.104c16.597333-6.997333 35.029333-8.106667 52.266667-3.328l7.253333 2.389333c17.322667 6.656 31.658667 19.114667 40.448 34.986667l3.029334 6.144L919.509333 298.666667H938.666667a85.333333 85.333333 0 0 1 85.12 78.933333L1024 384v554.666667a85.333333 85.333333 0 0 1-78.933333 85.12L938.666667 1024H85.333333a85.333333 85.333333 0 0 1-85.12-78.933333L0 938.666667V384a85.333333 85.333333 0 0 1 78.933333-85.12L85.333333 298.666667h133.504L486.528 23.722667A78.805333 78.805333 0 0 1 591.829333 17.066667zM725.333333 469.333333a128 128 0 1 0 0 256 128 128 0 0 0 0-256z m44.245334-296.874666L468.309333 298.666667h357.717334l-56.448-126.208z" fill="#008df0" p-id="4027"></path></svg>