<?xml version="1.0" standalone="no"?><!DOCTYPE svg PUBLIC "-//W3C//DTD SVG 1.1//EN" "http://www.w3.org/Graphics/SVG/1.1/DTD/svg11.dtd"><svg t="1594009013618" class="icon" viewBox="0 0 1024 1024" version="1.1" xmlns="http://www.w3.org/2000/svg" p-id="9257" xmlns:xlink="http://www.w3.org/1999/xlink" width="200" height="200"><defs><style type="text/css"></style></defs><path d="M179.518672 195.452282c0-39.302905 31.3361-71.170124 70.107884-71.170124h613.443983c12.746888 0 22.838174-10.622407 22.838175-23.369295 0-12.746888-10.091286-23.369295-22.838175-23.369295H250.157676c-64.26556 0-116.315353 52.580913-116.315352 117.377594v628.846473c0 64.79668 52.049793 117.377593 116.315352 117.377593h636.282158v-674.522821H250.157676c-38.771784 0-70.639004-31.86722-70.639004-71.170125z m660.713693 700.016598H250.157676c-38.771784 0-70.107884-31.86722-70.107883-71.170125V288.929461c19.651452 14.871369 44.082988 23.900415 70.107883 23.900415h590.605809v582.639004z m23.369295-724.979253H254.937759c-12.746888 0-22.838174 10.622407-22.838174 23.369294 0 12.746888 10.091286 23.369295 22.838174 23.369295h608.663901c12.746888 0 22.838174-10.622407 22.838174-23.369295 0-13.278008-10.091286-23.369295-22.838174-23.369294z m-479.60166 485.975103c3.717842 3.717842 6.904564 13.278008 5.842324 18.058092l-16.995851 99.319502c-2.124481 11.684647 0.53112 22.838174 6.904564 30.804979 5.842324 6.904564 14.340249 11.153527 23.900415 11.153527 6.373444 0 12.746888-1.593361 19.120332-5.311203l88.165975-46.73859c1.593361-1.062241 5.311203-1.593361 9.560166-1.593361s7.966805 1.062241 9.560166 1.593361l88.165975 46.73859c6.373444 3.186722 12.746888 5.311203 19.120332 5.311203 9.560166 0 18.058091-3.717842 23.900415-11.153527 6.373444-7.966805 9.029046-18.589212 6.904565-30.804979l-16.995851-99.319502c-1.062241-4.780083 2.124481-14.871369 5.842324-18.058092l71.701244-70.639004c10.622407-10.622407 14.871369-23.900415 10.622407-36.116182-3.717842-12.215768-14.871369-20.713693-29.742739-22.838175L610.788382 512.53112c-4.780083-0.53112-13.278008-6.904564-15.40249-11.153527l-44.082987-90.290456c-6.904564-13.809129-18.058091-21.244813-30.80498-21.244813s-23.900415 7.966805-30.804979 21.244813l-44.082987 90.290456c-2.124481 4.780083-10.622407 10.622407-15.40249 11.153527l-98.788382 14.340249c-14.871369 2.124481-25.493776 10.622407-29.742738 22.838175-3.717842 12.215768 0 25.493776 10.622406 36.116182l71.701245 70.639004z m53.112033-98.257261c20.182573-3.186722 40.896266-18.589212 49.925311-36.647303l33.460581-69.045643 33.460581 69.045643c9.029046 18.589212 29.742739 33.991701 49.925311 36.647303l75.419088 11.153527-54.705395 53.643153c-14.340249 14.340249-22.307054 39.302905-19.120332 59.485478l12.746888 75.950207-67.452282-35.585062c-8.497925-4.780083-19.651452-6.904564-30.804979-6.904565-11.153527 0-22.307054 2.655602-30.804979 6.904565l-67.452282 35.585062 12.746888-75.950207c3.186722-20.182573-4.780083-45.145228-19.120332-59.485478l-54.705395-53.643153 76.481328-11.153527z" p-id="9258"></path></svg>