<?xml version="1.0" standalone="no"?><!DOCTYPE svg PUBLIC "-//W3C//DTD SVG 1.1//EN" "http://www.w3.org/Graphics/SVG/1.1/DTD/svg11.dtd"><svg t="1594008953373" class="icon" viewBox="0 0 1026 1024" version="1.1" xmlns="http://www.w3.org/2000/svg" p-id="8241" xmlns:xlink="http://www.w3.org/1999/xlink" width="200.390625" height="200"><defs><style type="text/css"></style></defs><path d="M161.869824 931.84H33.792A32.06144 32.06144 0 0 1 1.775616 899.70688V449.78176a32.065536 32.065536 0 0 1 32.016384-32.1536h128.069632a32.065536 32.065536 0 0 1 32.016384 32.1536v449.92512A32.06144 32.06144 0 0 1 161.869824 931.84z m-96.0512-64.26624H129.8432V481.91488H65.818624v385.65888zM1013.98528 687.104c-8.41728-19.88608-24.02304-40.20224-51.69152-49.43872V128.38912A32.055296 32.055296 0 0 0 930.28352 96.256H289.937408a32.059392 32.059392 0 0 0-32.016384 32.13312v398.4384a366.137344 366.137344 0 0 0-85.1968 37.80608A32.1536 32.1536 0 1 0 206.848 619.13088c49.870848-31.232 126.519296-52.38784 161.11616-34.28352 3.8912 2.048 9.5232 9.3184 14.92992 16.384 21.99552 28.65152 55.281664 71.96672 155.459584 58.04032 42.115072-5.8368 73.443328 1.536 90.032128 21.46304a50.92352 50.92352 0 0 1 11.913216 30.28992c-4.206592 1.7408-8.708096 3.62496-13.400064 5.59104-19.761152 8.2944-60.860416 25.66144-74.788864 21.95456-24.40192-6.5536-150.063104-42.10688-199.589888-56.0128a32.159744 32.159744 0 0 0-17.430528 61.91104c49.696768 13.94688 175.77984 49.60256 200.275968 56.19712a78.81728 78.81728 0 0 0 20.527104 2.53952c31.111168 0 66.48832-14.90944 96.022528-27.3408 8.112128-3.42016 15.5648-6.57408 21.854208-8.88832a42.24 42.24 0 0 0 20.840448-17.24416c51.88608-6.3488 102.725632-20.13184 152.035328-33.95584 18.71872-5.24288 37.33504-10.4448 55.82848-15.19616 42.78272-10.87488 48.20992 2.048 52.20352 11.55072a118.421504 118.421504 0 0 1 6.67648 19.27168c-83.7632 48.72192-333.563904 136.13056-391.921664 136.13056-66.691072 0-309.352448-76.06272-397.213696-105.34912a32.141312 32.141312 0 1 0-20.369408 60.96896c33.347584 11.14112 328.392704 108.68736 417.5872 108.68736 77.836288 0 355.446784-100.49536 434.7904-151.26528 25.7536-16.44544 29.00992-47.9232 9.75872-93.47072zM674.142208 160.52224v179.52768l-41.398272-41.55392a31.905792 31.905792 0 0 0-45.273088 0l-41.396224 41.55392V160.52224h128.067584zM898.2528 636.12928c-3.95264 0.75776-7.53664 1.08544-11.75552 2.1504-18.96448 4.83328-38.05184 10.19904-57.2416 15.58528-42.32192 11.85792-85.733376 23.7568-128.475136 30.26944-13.991936-52.65408-65.8944-103.05536-171.231232-88.55552-63.188992 8.78592-78.21312-10.8544-95.598592-33.50528-9.238528-11.9808-19.6608-25.6-36.173824-34.2016-22.10816-11.55072-48.5376-14.60224-75.823104-12.92288V160.52224h160.086016v257.10592a32.002048 32.002048 0 0 0 54.652928 22.7328l73.414656-73.68704 73.414656 73.68704a32 32 0 0 0 54.652928-22.7328V160.52224H898.2528v475.60704z" p-id="8242"></path></svg>