<?xml version="1.0" standalone="no"?><!DOCTYPE svg PUBLIC "-//W3C//DTD SVG 1.1//EN" "http://www.w3.org/Graphics/SVG/1.1/DTD/svg11.dtd"><svg t="1658453403277" class="icon" viewBox="0 0 1024 1024" version="1.1" xmlns="http://www.w3.org/2000/svg" p-id="5186" xmlns:xlink="http://www.w3.org/1999/xlink" width="32" height="32"><defs><style type="text/css">@font-face { font-family: feedback-iconfont; src: url("//at.alicdn.com/t/font_1031158_u69w8yhxdu.woff2?t=1630033759944") format("woff2"), url("//at.alicdn.com/t/font_1031158_u69w8yhxdu.woff?t=1630033759944") format("woff"), url("//at.alicdn.com/t/font_1031158_u69w8yhxdu.ttf?t=1630033759944") format("truetype"); }
</style></defs><path d="M595.797333 943.957333c-77.994667 0-140.8-21.162667-196.266666-39.936-43.178667-14.506667-80.384-27.136-116.394667-27.136H59.733333c-14.165333 0-25.6-11.434667-25.6-25.6s11.434667-25.6 25.6-25.6h223.402667c44.373333 0 87.210667 14.506667 132.778667 29.866667 54.272 18.261333 110.421333 37.205333 180.053333 37.205333 115.2 0 257.706667-111.957333 316.928-171.178666 23.210667-23.210667 27.136-40.618667 25.941333-44.885334-0.170667 0.341333-2.56-0.853333-7.850666-0.853333-30.890667 0-240.981333 39.765333-374.613334 66.56-4.437333 0.853333-8.874667 0.682667-13.141333-0.853333l-133.973333-44.714667a25.6 25.6 0 0 1-16.213334-32.426667c4.437333-13.312 18.944-20.650667 32.426667-16.213333l127.488 42.496c56.149333-11.264 334.336-66.218667 378.026667-66.218667 26.453333 0 46.592 11.776 54.954666 32.256 11.776 28.330667-2.048 66.048-36.864 100.864-7.850667 7.850667-188.245333 186.368-353.28 186.368z" fill="#333333" p-id="5187"></path><path d="M551.082667 742.912c-8.192 0-16.384-3.925333-21.333334-11.434667-7.850667-11.776-4.608-27.648 6.997334-35.498666 23.722667-15.872 58.709333-47.445333 62.293333-67.754667 0.682667-3.584-0.170667-5.290667-1.536-7.168-26.282667-34.986667-228.864-123.733333-314.538667-123.733333-74.581333 0-157.184 56.149333-205.312 104.106666-10.069333 10.069333-26.282667 10.069333-36.181333 0s-10.069333-26.282667 0-36.181333c57.685333-57.685333 151.210667-119.125333 241.493333-119.125333 92.501333 0 315.050667 90.282667 355.498667 144.213333 10.069333 13.482667 13.994667 29.525333 10.922667 46.592-8.362667 48.981333-71.68 93.354667-84.309334 101.717333-4.096 2.901333-9.045333 4.266667-13.994666 4.266667zM960.682667 540.842667c-14.165333 0-25.6-11.434667-25.6-25.6V151.04c0-10.922667-8.874667-19.968-19.968-19.968h-546.133334c-10.922667 0-19.968 8.874667-19.968 19.968v182.101333c0 14.165333-11.434667 25.6-25.6 25.6s-25.6-11.434667-25.6-25.6V151.04c0-39.253333 31.914667-71.168 71.168-71.168h546.133334c39.253333 0 71.168 31.914667 71.168 71.168v364.032a25.6 25.6 0 0 1-25.6 25.770667z" fill="#333333" p-id="5188"></path><path d="M755.882667 336.042667H528.384c-14.165333 0-25.6-11.434667-25.6-25.6v-204.8c0-14.165333 11.434667-25.6 25.6-25.6h227.498667c14.165333 0 25.6 11.434667 25.6 25.6v204.8c0 14.165333-11.434667 25.6-25.6 25.6z m-201.898667-51.2h176.298667v-153.6H553.984v153.6z" fill="#333333" p-id="5189"></path></svg>