<?xml version="1.0" standalone="no"?><!DOCTYPE svg PUBLIC "-//W3C//DTD SVG 1.1//EN" "http://www.w3.org/Graphics/SVG/1.1/DTD/svg11.dtd"><svg t="1611714580855" class="icon" viewBox="0 0 1024 1024" version="1.1" xmlns="http://www.w3.org/2000/svg" p-id="2532" xmlns:xlink="http://www.w3.org/1999/xlink" width="200" height="200"><defs><style type="text/css"></style></defs><path d="M503.978667 529.066667c-5.12 0-10.120533-1.194667-14.848-3.566934L85.504 318.2592A31.6416 31.6416 0 0 1 68.266667 290.133333c0-11.776 6.6048-22.6816 17.237333-28.125866L489.130667 54.784c4.608-2.389333 9.6256-3.566933 14.848-3.566933 5.102933 0 10.205867 1.194667 14.813866 3.566933l402.653867 207.36c10.615467 5.4272 17.220267 16.315733 17.220267 28.1088 0 11.776-6.6048 22.664533-17.237334 28.125867L518.8096 525.482667c-4.7104 2.389333-9.728 3.566933-14.830933 3.566933zM169.813333 290.133333l334.1312 171.605334L837.205333 290.133333 503.9616 118.528 169.8304 290.133333z" p-id="2533"></path><path d="M504.0128 733.866667a32.426667 32.426667 0 0 1-14.813867-3.584L85.538133 521.096533a31.829333 31.829333 0 0 1-13.6192-43.076266 31.965867 31.965867 0 0 1 43.178667-13.602134l388.8128 201.5744L891.7504 464.554667a32.085333 32.085333 0 0 1 43.264 13.602133c8.209067 15.684267 2.0992 34.986667-13.6192 43.178667L518.741333 730.453333c-4.608 2.2016-9.608533 3.396267-14.728533 3.396267z" p-id="2534"></path><path d="M503.927467 938.666667a32.426667 32.426667 0 0 1-14.813867-3.584L85.486933 725.9648a31.965867 31.965867 0 1 1 29.5424-56.746667l388.898134 201.386667 387.822933-201.386667a32.085333 32.085333 0 0 1 43.264 13.585067 31.914667 31.914667 0 0 1-13.6192 43.178667l-402.6368 209.066666a32.426667 32.426667 0 0 1-14.830933 3.601067z" p-id="2535"></path></svg>