<?xml version="1.0" standalone="no"?><!DOCTYPE svg PUBLIC "-//W3C//DTD SVG 1.1//EN" "http://www.w3.org/Graphics/SVG/1.1/DTD/svg11.dtd"><svg class="icon" width="200px" height="200.00px" viewBox="0 0 1024 1024" version="1.1" xmlns="http://www.w3.org/2000/svg"><path fill="#dbdbdb" d="M758.7328 0a51.2 51.2 0 0 1 37.2224 16.0512l188.4672 199.552A51.2 51.2 0 0 1 998.4 250.752V896c0 70.6944-57.3056 128-128 128H153.6C82.9056 1024 25.6 966.6944 25.6 896V128C25.6 57.3056 82.9056 0 153.6 0h605.1328zM737.408 51.2H153.6a76.8 76.8 0 0 0-76.8 76.8v768a76.8 76.8 0 0 0 76.8 76.8h716.8a76.8 76.8 0 0 0 76.8-76.8V266.1376H788.608a51.2 51.2 0 0 1-51.2-51.2V51.2z"  /><path fill="#dbdbdb" d="M522.6624 601.0496a24.7552 24.7552 0 0 1 33.7408-9.0368l0.1792 0.1024a24.768 24.768 0 0 1 9.088 33.8816l-24.9344 42.944c-0.384 0.6656-0.8064 1.3184-1.2416 1.9328 51.1488 39.0016 87.6288 99.2256 87.6288 170.9824 0 0.256 0 0.576 0.0256 0.9216A26.0608 26.0608 0 0 1 601.1392 870.4H205.2608a26.0608 26.0608 0 0 1-25.984-27.904l0.0384-1.088c0-74.0864 39.1168-135.936 93.1584-174.72l-23.6288-40.704a24.7424 24.7424 0 0 1 8.9728-33.8048l0.1024-0.064 0.192-0.1024a24.7552 24.7552 0 0 1 33.728 9.0368l23.7952 40.96c28.0704-12.3904 58.0736-19.1488 87.5392-19.1488 31.744 0 64.1152 7.8464 94.0288 22.144l0.5248-1.0112zM328.5376 771.392a24.832 24.832 0 0 0-24.896 24.7424 24.832 24.832 0 0 0 24.896 24.7552 24.832 24.832 0 0 0 24.8832-24.7552 24.832 24.832 0 0 0-24.8832-24.7424z m149.3248 0a24.832 24.832 0 0 0-24.8832 24.7424 24.832 24.832 0 0 0 24.8832 24.7552 24.832 24.832 0 0 0 24.896-24.7552 24.832 24.832 0 0 0-24.896-24.7424z"  /></svg>