<?xml version="1.0" standalone="no"?><!DOCTYPE svg PUBLIC "-//W3C//DTD SVG 1.1//EN" "http://www.w3.org/Graphics/SVG/1.1/DTD/svg11.dtd"><svg class="icon" width="200px" height="200.00px" viewBox="0 0 1024 1024" version="1.1" xmlns="http://www.w3.org/2000/svg"><path fill="#dbdbdb" d="M758.7328 0a51.2 51.2 0 0 1 37.2224 16.0512l188.4672 199.552A51.2 51.2 0 0 1 998.4 250.752V896c0 70.6944-57.3056 128-128 128H153.6C82.9056 1024 25.6 966.6944 25.6 896V128C25.6 57.3056 82.9056 0 153.6 0h605.1328zM737.408 51.2H153.6a76.8 76.8 0 0 0-76.8 76.8v768a76.8 76.8 0 0 0 76.8 76.8h716.8a76.8 76.8 0 0 0 76.8-76.8V266.1376H788.608a51.2 51.2 0 0 1-51.2-51.2V51.2z"  /><path fill="#dbdbdb" d="M250.5856 852.4416c13.696 0 25.536-3.4816 35.4816-10.432a80.4352 80.4352 0 0 0 24-26.2784c0.6656 5.76 1.792 11.3664 3.328 16.8576 1.536 5.4784 3.392 10.688 5.5424 15.6416h58.6752a143.3216 143.3216 0 0 1-7.36-26.6752c-1.536-8.96-2.304-18.5216-2.304-28.6848v-89.6512c0-24.4736-8.1152-43.264-24.32-56.3584C327.4496 633.7536 306.2528 627.2 280.0256 627.2c-27.4176 0-49.6256 6.656-66.6368 19.968-16.9984 13.2992-25.0368 29.1072-24.0896 47.424l0.3968 1.2032h56.6656c0-8.0256 2.5856-14.336 7.7568-18.944 5.184-4.6208 12.544-6.9248 22.08-6.9248 10.8928 0 19.0976 2.8672 24.6016 8.6144 5.504 5.76 8.2688 13.8496 8.2688 24.2688v17.2544h-33.0624c-31.5904 0-55.6288 5.8496-72.0896 17.5488-16.4736 11.6992-24.704 28.1856-24.704 49.4464 0 20.1856 6.1824 36.1344 18.56 47.8336 12.3648 11.6992 29.9648 17.536 52.8256 17.536z m14.5152-43.328c-8.4736 0-15.0912-2.176-19.8656-6.5152-4.7744-4.352-7.1552-10.2016-7.1552-17.5488 0-8.96 3.2-16.512 9.5744-22.656 6.4-6.1568 15.8336-9.2416 28.3392-9.2416h33.0624v30.6944c-2.944 6.6816-8.4608 12.5696-16.5376 17.6512-8.064 5.0816-17.2032 7.616-27.4176 7.616zM441.536 908.8L473.6 845.6192V798.08h-57.2672v45.7344L402.2144 908.8h39.3216z"  /></svg>