<?xml version="1.0" standalone="no"?><!DOCTYPE svg PUBLIC "-//W3C//DTD SVG 1.1//EN" "http://www.w3.org/Graphics/SVG/1.1/DTD/svg11.dtd"><svg class="icon" width="200px" height="200.00px" viewBox="0 0 1024 1024" version="1.1" xmlns="http://www.w3.org/2000/svg"><path fill="#dbdbdb" d="M758.7328 0a51.2 51.2 0 0 1 37.2224 16.0512l188.4672 199.552A51.2 51.2 0 0 1 998.4 250.752V896c0 70.6944-57.3056 128-128 128H153.6C82.9056 1024 25.6 966.6944 25.6 896V128C25.6 57.3056 82.9056 0 153.6 0h605.1328zM737.408 51.2H153.6a76.8 76.8 0 0 0-76.8 76.8v768a76.8 76.8 0 0 0 76.8 76.8h716.8a76.8 76.8 0 0 0 76.8-76.8V266.1376H788.608a51.2 51.2 0 0 1-51.2-51.2V51.2z"  /><path fill="#dbdbdb" d="M192 601.6m25.6 0l204.8 0q25.6 0 25.6 25.6l0 0q0 25.6-25.6 25.6l-204.8 0q-25.6 0-25.6-25.6l0 0q0-25.6 25.6-25.6Z"  /><path fill="#dbdbdb" d="M192 755.2m25.6 0l332.8 0q25.6 0 25.6 25.6l0 0q0 25.6-25.6 25.6l-332.8 0q-25.6 0-25.6-25.6l0 0q0-25.6 25.6-25.6Z"  /></svg>