<?xml version="1.0" standalone="no"?><!DOCTYPE svg PUBLIC "-//W3C//DTD SVG 1.1//EN" "http://www.w3.org/Graphics/SVG/1.1/DTD/svg11.dtd"><svg class="icon" width="200px" height="200.00px" viewBox="0 0 1024 1024" version="1.1" xmlns="http://www.w3.org/2000/svg"><path d="M758.7328 0a51.2 51.2 0 0 1 37.2224 16.0512l188.4672 199.552A51.2 51.2 0 0 1 998.4 250.752V896c0 70.6944-57.3056 128-128 128H153.6C82.9056 1024 25.6 966.6944 25.6 896V128C25.6 57.3056 82.9056 0 153.6 0h605.1328zM737.408 51.2H153.6a76.8 76.8 0 0 0-76.8 76.8v768a76.8 76.8 0 0 0 76.8 76.8h716.8a76.8 76.8 0 0 0 76.8-76.8V266.1376H788.608a51.2 51.2 0 0 1-51.2-51.2V51.2z" fill="#BBBBBB" /><path d="M496.4736 681.92c-2.2144-13.5424-12.224-23.7056-26.6624-24.832-8.9088-1.1264-17.792-6.7712-22.2464-14.6688-4.4288-7.8976-4.4288-18.048-1.1008-27.0848a31.5648 31.5648 0 0 0-7.7824-36.1216 193.9968 193.9968 0 0 0-46.6688-27.0848c-12.224-4.5184-26.6752 0-34.4704 11.2896-5.5552 7.8976-14.464 12.416-24.448 12.416a28.9024 28.9024 0 0 1-23.3344-12.416c-8.8832-11.2896-23.3216-15.808-35.5712-11.2896a194.304 194.304 0 0 0-46.6432 27.0848c-11.1232 9.0368-14.464 23.7056-8.8832 37.248 4.4288 9.024 3.328 19.1872-1.1264 27.0848a28.8 28.8 0 0 1-22.2208 14.6688c-13.376 1.0496-24.3584 11.264-26.7008 24.832-1.1136 9.0368-2.2144 18.0608-2.2144 27.0848 0 9.0368 1.1008 19.2 4.4288 28.224 2.24 13.5424 12.2496 23.7056 26.688 24.832 8.8832 1.1264 17.792 6.7712 22.2208 14.6688 4.4544 7.8976 4.4544 18.048 1.1008 27.0848a31.5648 31.5648 0 0 0 7.7824 36.1216 194.2784 194.2784 0 0 0 46.6944 27.0848c3.328 1.1264 6.656 2.2528 9.984 2.2528 8.9088 0 18.9056-4.5184 23.36-14.6688 5.5552-7.8976 14.464-12.416 24.448-12.416 9.2544 0.0768 17.92 4.6976 23.3344 12.416 8.896 11.2768 23.3472 15.7952 35.5712 11.2768 16.6784-6.7584 33.3312-15.7952 46.6688-27.0848 9.9968-7.8976 13.3376-23.6928 7.7824-36.1088-4.4416-9.0368-3.328-19.1872 1.1008-27.0848a28.8256 28.8256 0 0 1 22.2464-14.6688c13.3632-1.0752 24.32-11.2768 26.6624-24.832 1.1136-9.0368 2.24-18.0608 2.24-27.0976 0-9.024-1.1264-19.1872-2.24-28.2112" fill="#BBBBBB" /><path d="M333.1072 775.5904c-35.5456 0-64.4608-29.3376-64.4608-65.4592 0-36.1088 28.8896-65.4592 64.4608-65.4592 35.5584 0 64.4608 29.3504 64.4608 65.4592 0 36.1216-28.9024 65.4592-64.4608 65.4592" fill="#FFFFFF" /><path d="M333.1072 670.6304c-21.12 0-38.912 18.0608-38.912 39.5008 0 21.4528 17.7792 39.5008 38.912 39.5008 21.1072 0 38.8992-18.048 38.8992-39.5008 0-21.44-17.7792-39.5008-38.912-39.5008" fill="#BBBBBB" /></svg>