<?xml version="1.0" standalone="no"?><!DOCTYPE svg PUBLIC "-//W3C//DTD SVG 1.1//EN" "http://www.w3.org/Graphics/SVG/1.1/DTD/svg11.dtd"><svg class="icon" width="200px" height="200.00px" viewBox="0 0 1024 1024" version="1.1" xmlns="http://www.w3.org/2000/svg"><path d="M758.7328 0a51.2 51.2 0 0 1 37.2224 16.0512l188.4672 199.552A51.2 51.2 0 0 1 998.4 250.752V896c0 70.6944-57.3056 128-128 128H153.6C82.9056 1024 25.6 966.6944 25.6 896V128C25.6 57.3056 82.9056 0 153.6 0h605.1328zM737.408 51.2H153.6a76.8 76.8 0 0 0-76.8 76.8v768a76.8 76.8 0 0 0 76.8 76.8h716.8a76.8 76.8 0 0 0 76.8-76.8V266.1376H788.608a51.2 51.2 0 0 1-51.2-51.2V51.2z" fill="#BBBBBB" /><path d="M537.6 768m-102.4 0a102.4 102.4 0 1 0 204.8 0 102.4 102.4 0 1 0-204.8 0Z" fill="#E8E8E8" /><path d="M396.8 768m-102.4 0a102.4 102.4 0 1 0 204.8 0 102.4 102.4 0 1 0-204.8 0Z" fill="#D3D3D3" /><path d="M256 768m-102.4 0a102.4 102.4 0 1 0 204.8 0 102.4 102.4 0 1 0-204.8 0Z" fill="#BBBBBB" /></svg>