<?xml version="1.0" standalone="no"?><!DOCTYPE svg PUBLIC "-//W3C//DTD SVG 1.1//EN" "http://www.w3.org/Graphics/SVG/1.1/DTD/svg11.dtd"><svg class="icon" width="200px" height="200.00px" viewBox="0 0 1024 1024" version="1.1" xmlns="http://www.w3.org/2000/svg"><path fill="#dbdbdb" d="M758.7328 0a51.2 51.2 0 0 1 37.2224 16.0512l188.4672 199.552A51.2 51.2 0 0 1 998.4 250.752V896c0 70.6944-57.3056 128-128 128H153.6C82.9056 1024 25.6 966.6944 25.6 896V128C25.6 57.3056 82.9056 0 153.6 0h605.1328zM737.408 51.2H153.6a76.8 76.8 0 0 0-76.8 76.8v768a76.8 76.8 0 0 0 76.8 76.8h716.8a76.8 76.8 0 0 0 76.8-76.8V266.1376H788.608a51.2 51.2 0 0 1-51.2-51.2V51.2z"  /><path fill="#dbdbdb" d="M385.344 615.488c5.0432-1.664 10.752-1.408 17.024 0.6656 5.12 1.6768 9.1776 4.4032 12.0832 8.1536 2.9952 3.8784 3.584 8.7424 2.0608 14.2208l-0.6656 2.0864-75.0592 218.0736-0.7808 1.8432a16.3328 16.3328 0 0 1-11.52 9.1648 28.6208 28.6208 0 0 1-21.4784-3.6608 19.968 19.968 0 0 1-5.4016-4.9664 18.6496 18.6496 0 0 1-3.1104-6.4128 13.5168 13.5168 0 0 1 0-6.656l0.512-1.7152 74.9824-218.4192 0.7552-1.9968c1.92-4.5568 4.8896-7.8592 8.8448-9.6896l1.7536-0.6912z m58.432 71.3728c3.6224-1.3312 7.7056-1.152 12.1728 0.384l1.9456 0.7168 88.4224 35.6608 2.1376 0.96c4.5824 2.24 8.1408 5.3376 10.5984 9.2544a25.984 25.984 0 0 1 0 28.1984c-2.4576 3.9168-6.144 7.04-10.9568 9.4208l-2.5088 1.1136-87.872 35.136-1.92 0.6784c-9.7152 3.136-17.4592 0.3584-21.5552-8.3712a35.2384 35.2384 0 0 1-2.2272-14.272c0.256-3.84 1.8688-7.424 4.7104-10.688 2.4192-2.7776 6.0288-5.12 10.7904-7.0784l2.4832-0.96 51.2-19.0976-53.3888-20.1088-2.1888-0.8064c-8.8064-3.5584-13.6192-9.728-13.6192-17.9584 0-4.7744 0.8448-9.2928 2.688-13.8368a16.384 16.384 0 0 1 7.424-7.6288l1.664-0.7168z m-182.6688 0.3456c15.2064-4.8256 24.2432 2.1888 24.2432 18.4064 0 10.368-4.992 17.792-14.2592 21.4528l-2.048 0.7168-53.4016 20.1344 51.2 19.1232 2.304 0.8832c4.8384 1.984 8.4864 4.3264 10.9312 7.1296 2.8416 3.2512 4.4544 6.848 4.7104 10.752 0.4352 8.7808-1.5744 15.4752-6.3488 19.776-4.6208 4.1728-10.6496 5.0048-17.4592 2.816l-2.048-0.768-87.8976-35.1232-2.2784-1.024c-4.8384-2.368-8.5376-5.5168-11.008-9.4464a25.984 25.984 0 0 1 0.2176-28.4416c2.5088-3.7632 5.9904-6.7584 10.3936-8.9856l2.2784-1.0496 88.4992-35.6736 1.9712-0.6784z"  /></svg>