<?xml version="1.0" standalone="no"?><!DOCTYPE svg PUBLIC "-//W3C//DTD SVG 1.1//EN" "http://www.w3.org/Graphics/SVG/1.1/DTD/svg11.dtd"><svg class="icon" width="200px" height="200.00px" viewBox="0 0 1024 1024" version="1.1" xmlns="http://www.w3.org/2000/svg"><path fill="#dbdbdb" d="M758.7328 0a51.2 51.2 0 0 1 37.2224 16.0512l188.4672 199.552A51.2 51.2 0 0 1 998.4 250.752V896c0 70.6944-57.3056 128-128 128H153.6C82.9056 1024 25.6 966.6944 25.6 896V128C25.6 57.3056 82.9056 0 153.6 0h605.1328zM737.408 51.2H153.6a76.8 76.8 0 0 0-76.8 76.8v768a76.8 76.8 0 0 0 76.8 76.8h716.8a76.8 76.8 0 0 0 76.8-76.8V266.1376H788.608a51.2 51.2 0 0 1-51.2-51.2V51.2z"  /><path fill="#dbdbdb" d="M257.024 588.8c11.072 0 17.408 6.4512 17.408 17.6384 0 8.7552-3.904 14.72-11.328 16.6912l-1.9328 0.4096-2.2016 0.2176-1.9456 0.0384h-17.024c-5.9776 0-9.0112 2.1248-10.1888 7.2192l-0.3328 1.8048-0.192 1.9712-0.0768 2.2272v55.8976c0 15.1936-5.376 26.8032-15.6672 33.92l-2.2784 1.472-1.9456 1.024 0.704 0.4352c8.8832 5.7216 14.7584 13.504 17.472 23.2576l0.7936 3.328 0.512 3.1488 0.3072 3.4176 0.1024 3.3664v56.192c0 7.1424 2.0096 10.9056 6.016 12.2624l1.4208 0.3712 1.536 0.2176 1.8048 0.0768h17.0368c11.0464 0 17.408 6.336 17.408 17.3568 0 8.4352-3.7376 14.3104-10.88 16.6272l-2.0224 0.5376-2.176 0.3328-2.3296 0.1408h-22.8096c-14.5664 0-26.0992-4.8896-34.0608-14.592-4.992-6.1696-8.192-13.7216-9.6768-22.656l-0.5376-3.904-0.2944-3.968-0.1024-3.968v-53.2736c0-7.3216-1.408-12.2368-4.0064-14.8864-3.0464-3.4944-9.0624-5.696-18.5088-6.272-8.704-1.408-13.4272-7.68-13.4272-17.2544 0-9.6 4.736-15.8592 13.7856-17.3568 8.9216-0.768 15.2064-2.9824 18.112-5.888a16.64 16.64 0 0 0 3.3408-7.4624l0.4096-2.4704 0.2176-2.4576 0.0768-2.816v-52.992c0-14.4 3.4816-25.9712 10.5856-34.752 5.8624-7.3984 13.7984-11.968 23.8336-13.7728l3.4304-0.4864 3.4432-0.2816 3.3792-0.0896h22.8096z m225.5616 0c14.5664 0 26.0992 4.8896 34.0608 14.592 4.992 6.1696 8.192 13.7216 9.6768 22.656l0.5376 3.904 0.2944 3.968 0.1024 3.968v53.2736c0 7.3216 1.408 12.2368 4.0064 14.8864 3.0464 3.4944 9.0624 5.696 18.5088 6.272 8.704 1.408 13.4272 7.68 13.4272 17.2544 0 9.6-4.736 15.8592-13.7856 17.3568-8.9216 0.768-15.2064 2.9824-18.112 5.888a16.64 16.64 0 0 0-3.3408 7.4624l-0.4096 2.4704-0.2176 2.4576-0.0768 2.816v52.992c0 14.4-3.4816 25.9712-10.5856 34.752-5.8624 7.3984-13.7984 11.968-23.8336 13.7728l-3.4304 0.4864-3.4432 0.2816-3.3792 0.0896H459.776c-11.072 0-17.408-6.4512-17.408-17.6384 0-8.7552 3.904-14.72 11.328-16.6912l1.9328-0.4096 2.2016-0.2176 1.9456-0.0384h17.024c5.9776 0 9.0112-2.1248 10.1888-7.2192l0.3328-1.8048 0.192-1.9712 0.0768-2.2272v-55.8976c0-15.1936 5.376-26.8032 15.6672-33.92l2.2784-1.472 1.92-1.0496-0.6784-0.4096c-8.8832-5.7216-14.7584-13.504-17.472-23.2576l-0.7936-3.328-0.512-3.1488-0.3072-3.4176-0.1024-3.3664v-56.192c0-7.1424-2.0096-10.9056-6.016-12.2624l-1.4208-0.3712-1.536-0.2176-1.8048-0.0768H459.776c-11.0464 0-17.408-6.336-17.408-17.3568 0-8.4352 3.7376-14.3104 10.88-16.6272l2.0224-0.5376 2.176-0.3328 2.3296-0.1408h22.8096z m-91.3536 177.92c9.3184 0 17.3056 3.9168 23.4624 11.5072 5.632 7.36 8.4992 16.8704 8.4992 27.9808 0 16.1536-4.7616 30.6176-14.1824 43.264-7.9744 11.2128-16.4352 15.9232-24.9856 12.8-7.7952-2.8672-9.7664-13.376-5.248-19.7248l1.0496-1.28 1.4976-1.6128 1.216-1.536 2.816-4.2112c2.048-2.7648 3.6224-5.4912 4.8128-8.3456l1.0752-2.8928 0.0896-0.3712-2.1248 0.0896c-5.6192 0-10.6624-1.536-15.0784-4.5696l-2.1632-1.6512-2.048-1.8944c-5.1584-5.1968-7.7568-11.904-7.7568-19.712 0-8.32 2.8672-15.1936 8.32-20.0064 5.2224-5.248 12.1728-7.8208 20.7488-7.8208z m-81.9456 1.6256c7.3344 0 13.312 2.4704 18.4576 7.6416 4.9664 5.0176 7.5648 11.392 7.5648 18.5728 0 7.04-2.4832 13.0944-7.7824 18.7776-5.4144 4.7616-11.4048 7.1424-18.24 7.1424-7.0656 0-13.4144-2.56-18.176-7.3472a25.0496 25.0496 0 0 1-7.552-18.5728c0-6.592 1.92-12.224 5.76-16.6784l3.4048-3.5328c4.3648-4.0192 9.9584-6.016 16.5632-6.016z m0-98.6752c7.7568 0 14.144 2.6368 19.584 8.128 5.2864 5.3248 8.0512 12.096 8.0512 19.712 0 7.4624-2.6496 13.9136-8.2816 19.9296-5.76 5.0688-12.1088 7.616-19.3536 7.616a26.7136 26.7136 0 0 1-19.3024-7.8336 26.6624 26.6624 0 0 1-8.0384-19.712c0-5.9648 1.5104-11.2256 4.6464-15.744l1.6896-2.1888 1.4848-1.536c4.8256-5.568 11.5072-8.3712 19.52-8.3712z"  /></svg>