<?xml version="1.0" standalone="no"?><!DOCTYPE svg PUBLIC "-//W3C//DTD SVG 1.1//EN" "http://www.w3.org/Graphics/SVG/1.1/DTD/svg11.dtd"><svg class="icon" width="200px" height="200.00px" viewBox="0 0 1024 1024" version="1.1" xmlns="http://www.w3.org/2000/svg"><path fill="#dbdbdb" d="M128 76.8a76.8 76.8 0 0 0-76.8 76.8v716.8a76.8 76.8 0 0 0 76.8 76.8h768a76.8 76.8 0 0 0 76.8-76.8V153.6a76.8 76.8 0 0 0-76.8-76.8H128z m0-51.2h768c70.6944 0 128 57.3056 128 128v716.8c0 70.6944-57.3056 128-128 128H128C57.3056 998.4 0 941.0944 0 870.4V153.6C0 82.9056 57.3056 25.6 128 25.6z"  /><path fill="#dbdbdb" d="M420.3776 588.928V351.0912c0-10.112 8.448-18.2912 18.8672-18.2912h207.488c10.4192 0 18.8672 8.192 18.8672 18.2912v219.4816c0 0.4864-0.0256 0.9728-0.064 1.4592 0.0512 1.152 0.064 2.368 0.064 3.6352v22.272c0 35.3536-29.568 64-66.0224 64h-18.8672c-36.4544 0-66.0096-28.6464-66.0096-64 0-35.3408 29.5552-64 66.0096-64h41.856c1.8944 0 3.648 0.0384 5.312 0.128V442.496H458.0992V652.8c0 35.3408-29.5552 64-66.0096 64h-18.8672C336.7552 716.8 307.2 688.1408 307.2 652.8s29.568-64 66.0224-64h41.8432c1.8944 0 3.6608 0.0384 5.312 0.128z"  /></svg>