<?xml version="1.0" standalone="no"?><!DOCTYPE svg PUBLIC "-//W3C//DTD SVG 1.1//EN" "http://www.w3.org/Graphics/SVG/1.1/DTD/svg11.dtd"><svg class="icon" width="200px" height="200.00px" viewBox="0 0 1024 1024" version="1.1" xmlns="http://www.w3.org/2000/svg"><path fill="#dbdbdb" d="M758.7328 0a51.2 51.2 0 0 1 37.2224 16.0512l188.4672 199.552A51.2 51.2 0 0 1 998.4 250.752V896c0 70.6944-57.3056 128-128 128H153.6C82.9056 1024 25.6 966.6944 25.6 896V128C25.6 57.3056 82.9056 0 153.6 0h605.1328zM737.408 51.2H153.6a76.8 76.8 0 0 0-76.8 76.8v768a76.8 76.8 0 0 0 76.8 76.8h716.8a76.8 76.8 0 0 0 76.8-76.8V266.1376H788.608a51.2 51.2 0 0 1-51.2-51.2V51.2z"  /><path fill="#dbdbdb" d="M472.96 751.296c-8.4992 0-16.9984 0-26.2016 2.112 9.2032 4.9408 19.8272 6.3488 29.7344 7.7568 6.3744 0.704 14.1568 0 19.8272-2.112 0.704-2.816-3.5456-7.7568-23.36-7.7568m-136.6528-52.9024l-0.704 2.112-0.704-0.7168c-8.4992 23.296-19.1232 45.8624-29.7344 67.7248l2.1248-0.704v2.112c21.952-7.7568 46.016-15.5136 67.968-19.7504l-0.704-0.704h2.816c-16.2688-16.2176-29.7216-33.856-41.0624-50.0736m-7.0656-144.6144H326.4c-0.704 0-2.8288 0-3.5328 0.704-3.5456 16.9344-0.7168 35.2768 5.6576 50.7904 5.6704-17.6384 5.6704-34.56 0.7168-51.4944M196.1344 852.864l2.8288-0.704c14.1696-4.9408 24.7808-15.5136 33.28-27.52-14.8736 5.6576-27.6096 15.5264-36.096 28.224m280.3456-61.3632c-26.9056-2.1248-52.3904-12.6976-73.6256-29.632-41.0624 8.4608-80.7168 21.8624-118.9376 38.0928C253.4784 854.9888 223.744 883.2 198.9632 883.2c-4.9536 0-11.328-0.704-15.5648-3.5328C172.0576 874.752 166.4 863.4496 166.4 852.864c0-8.4608 2.1248-34.56 96.9984-74.7648a679.8336 679.8336 0 0 0 52.3776-124.16c-12.736-23.9744-38.2208-83.2256-19.8144-112.8576 5.6576-11.2896 18.4064-16.9344 30.4384-16.2176 9.2032 0 19.8272 4.928 25.4976 13.4016 13.44 18.3424 12.736 56.4224-4.9664 111.4496a327.2576 327.2576 0 0 0 62.3104 80.4224c21.2352-3.5328 41.7664-6.3616 63.0016-6.3616 46.72 0.7168 53.8112 23.296 52.3904 35.968 2.1248 31.744-30.4384 31.744-48.128 31.744"  /></svg>