<?xml version="1.0" standalone="no"?><!DOCTYPE svg PUBLIC "-//W3C//DTD SVG 1.1//EN" "http://www.w3.org/Graphics/SVG/1.1/DTD/svg11.dtd"><svg class="icon" width="200px" height="200.00px" viewBox="0 0 1024 1024" version="1.1" xmlns="http://www.w3.org/2000/svg"><path d="M128 76.8a76.8 76.8 0 0 0-76.8 76.8v716.8a76.8 76.8 0 0 0 76.8 76.8h768a76.8 76.8 0 0 0 76.8-76.8V153.6a76.8 76.8 0 0 0-76.8-76.8H128z m0-51.2h768c70.6944 0 128 57.3056 128 128v716.8c0 70.6944-57.3056 128-128 128H128C57.3056 998.4 0 941.0944 0 870.4V153.6C0 82.9056 57.3056 25.6 128 25.6z" fill="#BBBBBB" /><path d="M743.1936 556.1984L919.424 782.8352A38.4 38.4 0 0 1 889.1008 844.8H294.4l224.3968-288.6016c61.9648-58.9312 162.432-58.9312 224.3968 0z" fill="#BBBBBB" /><path d="M450.5088 653.9264L627.2 844.8H151.872a38.4 38.4 0 0 1-28.1728-64.4864l116.992-126.3872c57.9328-52.6976 151.8848-52.6976 209.8176 0z" fill="#D3D3D3" /><path d="M230.4 422.4m-64 0a64 64 0 1 0 128 0 64 64 0 1 0-128 0Z" fill="#D3D3D3" /></svg>