<?xml version="1.0" standalone="no"?><!DOCTYPE svg PUBLIC "-//W3C//DTD SVG 1.1//EN" "http://www.w3.org/Graphics/SVG/1.1/DTD/svg11.dtd"><svg class="icon" width="200px" height="200.00px" viewBox="0 0 1024 1024" version="1.1" xmlns="http://www.w3.org/2000/svg"><path fill="#dbdbdb" d="M733.1328 0a51.2 51.2 0 0 1 37.2224 16.0512l188.4672 199.552A51.2 51.2 0 0 1 972.8 250.752V896c0 70.6944-57.3056 128-128 128H128C57.3056 1024 0 966.6944 0 896V128C0 57.3056 57.3056 0 128 0h605.1328zM711.808 51.2H128a76.8 76.8 0 0 0-76.8 76.8v768a76.8 76.8 0 0 0 76.8 76.8h716.8a76.8 76.8 0 0 0 76.8-76.8V266.1376H763.008a51.2 51.2 0 0 1-51.2-51.2V51.2z"  /><path fill="#dbdbdb" d="M460.8 716.8c0 84.8256-68.7744 153.6-153.6 153.6s-153.6-68.7744-153.6-153.6 68.7744-153.6 153.6-153.6v153.6z"  /><path fill="#dbdbdb" d="M332.8 537.6c84.8256 0 153.6 68.7744 153.6 153.6H332.8z"  /></svg>