<?xml version="1.0" standalone="no"?><!DOCTYPE svg PUBLIC "-//W3C//DTD SVG 1.1//EN" "http://www.w3.org/Graphics/SVG/1.1/DTD/svg11.dtd"><svg class="icon" width="200px" height="200.00px" viewBox="0 0 1024 1024" version="1.1" xmlns="http://www.w3.org/2000/svg"><path fill="#dbdbdb" d="M758.7328 0a51.2 51.2 0 0 1 37.2224 16.0512l188.4672 199.552A51.2 51.2 0 0 1 998.4 250.752V896c0 70.6944-57.3056 128-128 128H153.6C82.9056 1024 25.6 966.6944 25.6 896V128C25.6 57.3056 82.9056 0 153.6 0h605.1328zM737.408 51.2H153.6a76.8 76.8 0 0 0-76.8 76.8v768a76.8 76.8 0 0 0 76.8 76.8h716.8a76.8 76.8 0 0 0 76.8-76.8V266.1376H788.608a51.2 51.2 0 0 1-51.2-51.2V51.2z"  /><path fill="#dbdbdb" d="M485.9648 862.08a15.0912 15.0912 0 0 1-14.9376-13.6576l-0.0768-1.5488v-40.5248c0-7.8592 5.888-14.3488 13.4784-15.1296l1.536-0.0768 1.7024-0.0128-0.4864-2.3808c-10.8672-48.896-46.1184-87.296-91.5584-99.8528l-1.9456-0.512-0.0256 0.1536a15.104 15.104 0 0 1-13.1584 12.0704l-1.536 0.0768h-41.1136a14.976 14.976 0 0 1-13.1328-7.8464l-0.7296-1.5488-2.5984 0.9472c-40.5248 15.2576-71.0528 51.4048-81.1136 96.128l-0.5888 2.7776 1.3056 0.0768c7.0784 0.7296 12.672 6.4256 13.3888 13.568l0.0768 1.5616v40.5248c0 7.8592-5.888 14.336-13.4656 15.1296l-1.536 0.0768h-41.1136a15.0912 15.0912 0 0 1-14.9248-13.6576l-0.0768-1.5488v-40.5248c0-7.8592 5.888-14.3488 13.4656-15.1296l1.536-0.0768 5.4016-0.0128 0.128-0.8448c7.2704-43.7376 30.08-82.4704 63.5008-108.5696l2.752-2.0992h-31.552l-1.408 1.7664a35.712 35.712 0 0 1-24.4992 12.1984l-2.3808 0.0768a35.5584 35.5584 0 0 1-35.5584-35.456 35.5456 35.5456 0 0 1 67.392-15.7696l0.6016 1.3312h80.1792l0.0256-0.3712a15.104 15.104 0 0 1 13.3888-13.568l1.536-0.0896h41.1136c7.7824 0 14.1568 6.0032 14.9248 13.6576l0.0128 0.3712h80.1664l0.8064-1.6896c2.7264-5.312 6.7712-9.9072 11.7248-13.2608l2.176-1.3568a35.5328 35.5328 0 0 1 53.312 30.7328 35.5456 35.5456 0 0 1-61.9392 23.808l-1.9584-2.3808H457.216l2.7648 2.0992c33.4208 26.0992 56.2304 64.832 63.488 108.5824l0.128 0.832h3.4688c7.7952 0 14.1696 6.016 14.9376 13.6576l0.0768 1.5616v40.5248c0 7.8592-5.888 14.336-13.4784 15.1296l-1.536 0.0768h-41.1008z"  /></svg>