<?xml version="1.0" standalone="no"?><!DOCTYPE svg PUBLIC "-//W3C//DTD SVG 1.1//EN" "http://www.w3.org/Graphics/SVG/1.1/DTD/svg11.dtd"><svg class="icon" width="200px" height="200.00px" viewBox="0 0 1024 1024" version="1.1" xmlns="http://www.w3.org/2000/svg"><path fill="#dbdbdb" d="M758.7328 0a51.2 51.2 0 0 1 37.2224 16.0512l188.4672 199.552A51.2 51.2 0 0 1 998.4 250.752V896c0 70.6944-57.3056 128-128 128H153.6C82.9056 1024 25.6 966.6944 25.6 896V128C25.6 57.3056 82.9056 0 153.6 0h605.1328zM737.408 51.2H153.6a76.8 76.8 0 0 0-76.8 76.8v768a76.8 76.8 0 0 0 76.8 76.8h716.8a76.8 76.8 0 0 0 76.8-76.8V266.1376H788.608a51.2 51.2 0 0 1-51.2-51.2V51.2z"  /><path fill="#dbdbdb" d="M356.3008 602.0736a19.008 19.008 0 0 1 18.8672 21.2736 24.192 24.192 0 0 1-24.0128 21.2864h-63.7056l-24.32 206.2464a28.5056 28.5056 0 0 1-30.8992 25.024 22.5664 22.5664 0 0 1-19.8272-25.024l23.9104-206.2464h-63.7056A19.008 19.008 0 0 1 153.728 623.36a24.192 24.192 0 0 1 24.0128-21.2736zM537.6 833.0112a21.5168 21.5168 0 1 1 0 43.0336H309.9136a19.1744 19.1744 0 0 1-19.0208-21.504 24.512 24.512 0 0 1 24.32-21.5296z m0-115.712a21.5168 21.5168 0 0 1 0 43.0464H322.048a19.3024 19.3024 0 0 1-19.1616-21.5168 24.32 24.32 0 0 1 24.1536-21.5296zM537.5104 601.6a21.5936 21.5936 0 1 1 0 43.1872h-119.04a19.7504 19.7504 0 0 1-19.6736-21.5936A23.8208 23.8208 0 0 1 422.5152 601.6z"  /></svg>