<?xml version="1.0" standalone="no"?><!DOCTYPE svg PUBLIC "-//W3C//DTD SVG 1.1//EN" "http://www.w3.org/Graphics/SVG/1.1/DTD/svg11.dtd"><svg class="icon" width="200px" height="200.00px" viewBox="0 0 1024 1024" version="1.1" xmlns="http://www.w3.org/2000/svg"><path fill="#dbdbdb" d="M128 76.8a76.8 76.8 0 0 0-76.8 76.8v716.8a76.8 76.8 0 0 0 76.8 76.8h768a76.8 76.8 0 0 0 76.8-76.8V153.6a76.8 76.8 0 0 0-76.8-76.8H128z m0-51.2h768c70.6944 0 128 57.3056 128 128v716.8c0 70.6944-57.3056 128-128 128H128C57.3056 998.4 0 941.0944 0 870.4V153.6C0 82.9056 57.3056 25.6 128 25.6z"  /><path fill="#dbdbdb" d="M650.9568 537.5232l-197.7472 111.0272A29.2736 29.2736 0 0 1 409.6 623.0144V400.9728a29.2736 29.2736 0 0 1 43.6096-25.5232l197.7472 111.0144a29.2736 29.2736 0 0 1 0 51.072z"  /></svg>