<?xml version="1.0" standalone="no"?><!DOCTYPE svg PUBLIC "-//W3C//DTD SVG 1.1//EN" "http://www.w3.org/Graphics/SVG/1.1/DTD/svg11.dtd"><svg class="icon" width="200px" height="200.00px" viewBox="0 0 1024 1024" version="1.1" xmlns="http://www.w3.org/2000/svg"><path fill="#dbdbdb" d="M758.7328 0a51.2 51.2 0 0 1 37.2224 16.0512l188.4672 199.552A51.2 51.2 0 0 1 998.4 250.752V896c0 70.6944-57.3056 128-128 128H153.6C82.9056 1024 25.6 966.6944 25.6 896V128C25.6 57.3056 82.9056 0 153.6 0h605.1328zM737.408 51.2H153.6a76.8 76.8 0 0 0-76.8 76.8v768a76.8 76.8 0 0 0 76.8 76.8h716.8a76.8 76.8 0 0 0 76.8-76.8V266.1376H788.608a51.2 51.2 0 0 1-51.2-51.2V51.2z"  /><path fill="#dbdbdb" d="M360.7168 712.1152c0-13.824-4.032-25.6768-12.0832-35.5968-8.064-9.92-20.1472-14.8736-36.2496-14.8736-7.8976 0-15.1296 1.3184-21.7088 3.968a55.4752 55.4752 0 0 0-17.2672 10.9056c-4.928 4.608-8.8704 10.0096-11.84 16.2048a50.304 50.304 0 0 0-4.928 19.392h104.0768zM435.2 745.5872l-0.256 10.7264a10.24 10.24 0 0 1-10.24 9.984H256.64c0.6528 7.4496 2.7136 14.1824 6.1696 20.1984s7.8848 11.2512 13.312 15.68c5.4272 4.4288 11.52 7.8848 18.2528 10.368 6.7456 2.4704 13.7344 3.712 20.9664 3.712 12.8256 0 23.68-2.56 32.5504-7.7056 4.5312-2.624 9.8304-7.1168 15.8848-13.504a10.24 10.24 0 0 1 13.184-1.408l39.936 27.1616a10.24 10.24 0 0 1 2.2656 14.8096c-6.1824 7.8464-11.4176 13.6064-15.6672 17.28a117.888 117.888 0 0 1-23.296 15.6928C361.2928 878.336 339.3408 883.2 314.368 883.2c-18.4192 0-35.84-3.0976-52.288-9.2928a125.2352 125.2352 0 0 1-43.1616-27.0976c-12.3264-11.8656-22.0288-26.4832-29.0944-43.84-7.0784-17.3568-10.6112-37.1968-10.6112-59.5072 0-21.6064 3.456-41.1776 10.368-58.7136 6.8992-17.536 16.256-32.4096 28.1088-44.6336a124.48 124.48 0 0 1 41.92-28.416c16.128-6.7328 33.536-10.0992 52.288-10.0992 18.0864 0 34.688 3.2768 49.8176 9.8304a108.4544 108.4544 0 0 1 38.976 28.416c10.8416 12.416 19.3152 27.456 25.3952 45.1712 6.08 17.7152 9.1264 37.9008 9.1264 60.5696z"  /></svg>