<?xml version="1.0" standalone="no"?><!DOCTYPE svg PUBLIC "-//W3C//DTD SVG 1.1//EN" "http://www.w3.org/Graphics/SVG/1.1/DTD/svg11.dtd"><svg class="icon" width="200px" height="200.00px" viewBox="0 0 1024 1024" version="1.1" xmlns="http://www.w3.org/2000/svg"><path fill="#dbdbdb" d="M758.7328 0a51.2 51.2 0 0 1 37.2224 16.0512l188.4672 199.552A51.2 51.2 0 0 1 998.4 250.752V896c0 70.6944-57.3056 128-128 128H153.6C82.9056 1024 25.6 966.6944 25.6 896V128C25.6 57.3056 82.9056 0 153.6 0h605.1328zM737.408 51.2H153.6a76.8 76.8 0 0 0-76.8 76.8v768a76.8 76.8 0 0 0 76.8 76.8h716.8a76.8 76.8 0 0 0 76.8-76.8V266.1376H788.608a51.2 51.2 0 0 1-51.2-51.2V51.2z"  /><path fill="#dbdbdb" d="M263.04 820.288c9.6 0 18.0608 3.2768 24.832 9.8176 6.3616 6.592 9.728 14.9888 9.728 24.6528 0 9.9072-3.5456 18.688-10.24 25.1776-6.656 6.4384-14.784 9.664-24.32 9.664-9.3952 0-17.536-3.456-24.32-10.0352-6.656-6.4256-9.9072-14.784-9.9072-24.8064 0-10.0224 3.2512-18.3808 9.9072-24.8064 6.656-6.4384 14.7584-9.664 24.32-9.664z m10.0736-263.488c27.3152 0 49.472 7.6416 66.1248 23.2192 17.0368 15.5008 25.5616 36.7616 25.5616 63.296 0 21.2864-5.312 39.3856-16.0384 54.208l-1.6384 1.8176c-4.544 4.8256-13.9008 13.7984-26.88 25.6896l-5.76 5.2736a56.2816 56.2816 0 0 0-14.08 18.2784 53.376 53.376 0 0 0-5.248 23.9232c-0.7424 18.0992-11.136 28.16-29.1328 28.16-18.048 0-28.288-10.1504-28.6464-28.416 0-16.9472 2.7008-31.104 8.4224-42.56 4.992-10.8032 18.2016-26.1504 39.872-46.7072l6.7584-6.3232 4.608-5.5808c6.144-7.808 9.1904-16.1664 9.1904-24.9088 0-11.6224-3.2-20.7488-9.1648-27.2896-6.016-6.272-14.8224-9.4208-26.688-9.4208-15.3728 0-25.344 4.48-31.552 13.9776-5.6832 7.9872-8.6016 20.032-8.6016 36.1472 0 13.6192-13.7088 28.5696-30.4896 27.5328-17.408-1.0752-25.9584-10.432-26.9312-27.52 0-31.9616 8.96-57.088 27.2896-75.264 18.1248-18.4064 42.496-27.5328 73.024-27.5328z"  /></svg>