<?xml version="1.0" standalone="no"?><!DOCTYPE svg PUBLIC "-//W3C//DTD SVG 1.1//EN" "http://www.w3.org/Graphics/SVG/1.1/DTD/svg11.dtd"><svg class="icon" width="200px" height="200.00px" viewBox="0 0 1024 1024" version="1.1" xmlns="http://www.w3.org/2000/svg"><path d="M861.8624 0C937.2672 0 998.4 61.1328 998.4 136.5376v750.9248C998.4 962.8672 937.2672 1024 861.8624 1024H162.1376C86.7328 1024 25.6 962.8672 25.6 887.4624V136.5376C25.6 61.1328 86.7328 0 162.1376 0h699.7248z m0 51.2H162.1376a85.3376 85.3376 0 0 0-85.2864 82.3424L76.8 136.5376v750.9248c0 46.1312 36.608 83.712 82.3424 85.2864l2.9952 0.0512h699.7248c46.1312 0 83.712-36.608 85.2864-82.3424l0.0512-2.9952V136.5376c0-46.1312-36.608-83.712-82.3424-85.2864L861.8624 51.2z" fill="#BBBBBB" /><path d="M614.4 435.2v64h-102.4v-64h102.4z m-102.4-64v64h-102.4v-64h102.4z m102.4-64v64h-102.4v-64h102.4z m-102.4-64v64h-102.4v-64h102.4z m102.4-64v64h-102.4v-64h102.4z m-102.4-64v64h-102.4V115.2h102.4z" fill="#BBBBBB" /><path d="M456.1024 819.2v-24.8832h-74.2272l72.3328-120.6784v-16.2176h-110.4384v24.9984h71.8848l-72 119.8976V819.2h112.448z m57.7792 0V657.4208h-32.448V819.2h32.448z m64.5504 0v-58.6624h29.44c18.5984 0 33.2288-4.7104 43.904-14.1184 10.6624-9.408 16-21.8496 16-37.3248 0-15.488-5.3376-27.968-16-37.4528-10.6752-9.472-25.3056-14.208-43.904-14.208h-61.888V819.2h32.448z m29.44-83.6608h-29.44v-53.12h29.44c9.1136 0 15.9872 2.5344 20.608 7.616 4.6336 5.0688 6.9504 11.4944 6.9504 19.2768 0 7.6288-2.3296 13.9008-7.0016 18.8288-4.6592 4.928-11.52 7.3984-20.5568 7.3984z" fill="#B6B6B6" /></svg>