<svg t="1653641546032" class="icon" viewBox="0 0 1024 1024" version="1.1" xmlns="http://www.w3.org/2000/svg" p-id="8263" width="32" height="32"><path d="M704 0H192a64 64 0 0 0-64 64v320h576a64 64 0 0 1 64 64v416a64 64 0 0 1-64 64H128v32a64 64 0 0 0 64 64h768a64 64 0 0 0 64-64V320L704 0z" fill="#EAEAEA" p-id="8264"></path><path d="M704 0v256a64 64 0 0 0 64 64h256L704 0z" fill="#434854" p-id="8265"></path><path d="M768 320l256 256v-256z" fill="" p-id="8266"></path><path d="M704 832a32 32 0 0 1-32 32H32a32 32 0 0 1-32-32V480a32 32 0 0 1 32-32h640a32 32 0 0 1 32 32v352z" fill="#EACA44" p-id="8267"></path><path d="M160 544H112a16 16 0 0 0-16 16v192a16 16 0 0 0 32 0V672h32a64 64 0 0 0 0-128z m0 96H128v-64h32a32 32 0 1 1 0 64zM608 672h-80a16 16 0 0 0 0 32H576a32 32 0 0 1-32 32h-32a32 32 0 0 1-32-32v-96a32 32 0 0 1 32-32h32a32 32 0 0 1 32 32 16 16 0 0 0 32 0 64 64 0 0 0-64-64h-32a64 64 0 0 0-64 64v96a64 64 0 0 0 64 64h32a64 64 0 0 0 64-64 16 16 0 0 0 0-32zM400 544a16 16 0 0 0-16 16v137.44l-98.752-146.368c-0.256-0.448-0.672-0.64-0.992-0.992a16.576 16.576 0 0 0-4.8-4 17.44 17.44 0 0 0-6.016-1.792C272.928 544.256 272.512 544 272 544s-0.928 0.256-1.44 0.288a16.8 16.8 0 0 0-6.176 1.92c-0.448 0.224-0.896 0.256-1.344 0.576-0.448 0.256-0.64 0.672-0.992 0.992a16.576 16.576 0 0 0-4 4.8 17.44 17.44 0 0 0-1.792 6.016c0 0.48-0.256 0.896-0.256 1.408v192a16 16 0 0 0 32 0v-139.648l96 142.304c0.192 0.288 0.48 0.416 0.672 0.672A15.776 15.776 0 0 0 400 768a16 16 0 0 0 16-16v-192a16 16 0 0 0-16-16z" fill="#FFFFFF" p-id="8268"></path></svg>