<svg t="1653642494921" class="icon" viewBox="0 0 1024 1024" version="1.1" xmlns="http://www.w3.org/2000/svg" p-id="27892" width="32" height="32"><path d="M861.229614 308.148965V914.040032c0 14.992938-12.170738 27.163675-27.163675 27.163675H206.373377c-11.394633 0-20.672615-9.242705-20.672616-20.672615V101.211148c0-8.360768 6.77328-15.134048 15.134048-15.134047h423.012506c0.881938 0 1.305268 1.023048 0.740827 1.658042-0.388053 0.388053-0.352775 1.023048 0.070555 1.4111l236.288697 218.261894c0.176388 0.211665 0.28222 0.458608 0.28222 0.740828z" fill="#112402" p-id="27893"></path><path d="M530.150274 403.574603H52.2107c-2.575258 0-4.65663-2.081373-4.65663-4.65663V206.055879c0-2.575258 2.081373-4.65663 4.65663-4.65663h477.939574c2.575258 0 4.65663 2.081373 4.65663 4.65663v192.897371c0 2.575258-2.081373 4.621353-4.65663 4.621353zM623.882592 293.508802V86.077101L861.123781 307.725635h-223.024356c-7.831605 0-14.216833-6.34995-14.216833-14.216833zM321.871912 774.764461v-234.101492h67.450581c69.320288 0 103.998071 38.029145 103.998071 114.087436 0 36.159438-9.701313 65.228098-29.103938 87.135425-19.402625 21.907328-44.44965 32.87863-75.141076 32.878631H321.871912z m41.592173-193.285424v152.504633h22.683433c19.7554 0 35.242223-7.0555 46.495745-21.1665 11.253523-14.111 16.897923-33.196128 16.897923-57.29066 0-23.28315-5.891343-41.415785-17.63875-54.468461-11.782685-13.052675-27.057843-19.579013-45.896028-19.579012h-22.542323zM721.072105 607.619664l-40.322183 167.144797h-42.721052l-21.413443-100.364489c-1.446378-6.738003-2.187205-13.652393-2.25776-20.707892h-0.881938c-0.599718 7.972715-1.481655 14.67544-2.645812 20.108175l-23.071485 100.964206h-42.227168l-39.722465-167.144797h41.592173l20.284562 110.912461c0.84666 4.444965 1.516933 10.512695 2.010818 18.273745h0.881937c0.42333-7.443553 1.234713-13.758225 2.39887-18.873462l24.941193-110.312744h38.558308l22.29538 111.088849c0.599718 3.033865 1.199435 9.17215 1.904985 18.450132h1.023047c0.246943-5.326903 0.952493-11.500465 2.151928-18.450132l19.402625-111.088849H721.072105z" fill="#67FC02" p-id="27894"></path><path d="M195.966514 345.437283V260.806559h26.070073c26.775623 0 40.181073 13.758225 40.181072 41.239398 0 13.087953-3.739415 23.56537-11.253522 31.502808-7.514108 7.937438-17.180143 11.888518-29.033383 11.888518h-25.96424z m16.08654-69.849451v55.138733H220.837152c7.61994 0 13.617115-2.53998 17.991525-7.655218 4.339133-5.115238 6.526338-11.99435 6.526337-20.707892 0-8.396045-2.25776-14.992938-6.808557-19.684845-4.550798-4.727185-10.44214-7.090778-17.744583-7.090778h-8.74882zM350.235023 285.006925l-15.592656 60.430358h-16.50987l-8.290212-36.265271c-0.56444-2.434148-0.84666-4.93885-0.881938-7.47883h-0.352775c-0.211665 2.892755-0.56444 5.291625-1.023047 7.267165l-8.925208 36.476936h-16.333482L267.050677 285.006925h16.08654l7.831605 40.110517c0.317498 1.587488 0.599718 3.80997 0.776105 6.596893h0.352775c0.176388-2.68109 0.458608-4.974128 0.917215-6.843835l9.630758-39.863575h14.922382l8.60771 40.145795c0.211665 1.093603 0.458608 3.316085 0.740828 6.667447h0.388052c0.105833-1.940263 0.388053-4.162745 0.811383-6.667447l7.514107-40.145795h14.604886z" fill="" p-id="27895"></path></svg>