<svg t="1653641301056" class="icon" viewBox="0 0 1024 1024" version="1.1" xmlns="http://www.w3.org/2000/svg" p-id="5652" width="32" height="32"><path d="M704 0H192a64 64 0 0 0-64 64v320h576a64 64 0 0 1 64 64v416a64 64 0 0 1-64 64H128v32a64 64 0 0 0 64 64h768a64 64 0 0 0 64-64V320L704 0z" fill="#EAEAEA" p-id="5653"></path><path d="M704 0v256a64 64 0 0 0 64 64h256L704 0z" fill="#434854" p-id="5654"></path><path d="M768 320l256 256v-256z" fill="" p-id="5655"></path><path d="M704 832a32 32 0 0 1-32 32H32a32 32 0 0 1-32-32V480a32 32 0 0 1 32-32h640a32 32 0 0 1 32 32v352z" fill="#3AAD73" p-id="5656"></path><path d="M320 544H272a16 16 0 0 0-16 16v192a16 16 0 0 0 32 0V672h32a64 64 0 0 0 0-128z m0 96H288v-64h32a32 32 0 1 1 0 64zM576 672h-80a16 16 0 0 0 0 32H544a32 32 0 0 1-32 32h-32a32 32 0 0 1-32-32v-96a32 32 0 0 1 32-32h32a32 32 0 0 1 32 32 16 16 0 0 0 32 0 64 64 0 0 0-64-64h-32a64 64 0 0 0-64 64v96a64 64 0 0 0 64 64h32a64 64 0 0 0 64-64 16 16 0 0 0 0-32zM208 544a16 16 0 0 0-16 16V704a32 32 0 1 1-64 0v-16a16 16 0 0 0-32 0v16a64 64 0 0 0 128 0v-144a16 16 0 0 0-16-16z" fill="#FFFFFF" p-id="5657"></path></svg>