<?xml version="1.0" standalone="no"?><!DOCTYPE svg PUBLIC "-//W3C//DTD SVG 1.1//EN" "http://www.w3.org/Graphics/SVG/1.1/DTD/svg11.dtd"><svg t="1578024566222" class="icon" viewBox="0 0 1575 1024" version="1.1" xmlns="http://www.w3.org/2000/svg" p-id="6710" xmlns:xlink="http://www.w3.org/1999/xlink" width="307.6171875" height="200"><defs><style type="text/css"></style></defs><path d="M1517.016615 682.692923H641.811692a57.659077 57.659077 0 0 1-58.368-56.871385c0-31.428923 26.151385-56.950154 58.368-56.950153h875.204923c32.216615 0 58.368 25.521231 58.368 56.950153a57.659077 57.659077 0 0 1-58.368 56.871385z m0-284.435692H641.811692a57.737846 57.737846 0 0 1-58.368-56.950154c0-31.428923 26.151385-56.871385 58.368-56.871385h875.204923c32.216615 0 58.368 25.442462 58.368 56.871385a57.737846 57.737846 0 0 1-58.368 56.950154z m0-284.514462H641.811692a57.659077 57.659077 0 0 1-58.368-56.871384c0-31.428923 26.151385-56.871385 58.368-56.871385h875.204923c32.216615 0 58.368 25.442462 58.368 56.871385a57.659077 57.659077 0 0 1-58.368 56.871384zM350.050462 1024H116.657231C52.224 1024 0 973.036308 0 910.178462V682.692923c0-62.857846 52.224-113.821538 116.657231-113.821538h233.393231c64.512 0 116.736 50.963692 116.736 113.821538v227.485539c0 62.857846-52.224 113.821538-116.736 113.821538z m0-568.871385H116.657231C52.224 455.128615 0 404.164923 0 341.307077V113.742769C0 50.963692 52.224 0 116.657231 0h233.393231c64.512 0 116.736 50.963692 116.736 113.742769v227.564308c0 62.857846-52.224 113.821538-116.736 113.821538z m291.76123 398.178462h875.204923c32.216615 0 58.368 25.521231 58.368 56.871385a57.737846 57.737846 0 0 1-58.368 56.950153H641.811692a57.737846 57.737846 0 0 1-58.368-56.950153c0-31.350154 26.151385-56.871385 58.368-56.871385z" fill="" p-id="6711"></path></svg>