<?xml version="1.0" standalone="no"?><!DOCTYPE svg PUBLIC "-//W3C//DTD SVG 1.1//EN" "http://www.w3.org/Graphics/SVG/1.1/DTD/svg11.dtd"><svg t="1677571390030" class="icon" viewBox="0 0 1061 1024" version="1.1" xmlns="http://www.w3.org/2000/svg" p-id="1579" xmlns:xlink="http://www.w3.org/1999/xlink" width="33.15625" height="32"><path d="M159.592296 431.407407h455.111111a37.925926 37.925926 0 0 1 37.925926 37.925926v322.370371a37.925926 37.925926 0 0 1-37.925926 37.925926h-455.111111a37.925926 37.925926 0 0 1-37.925926-37.925926v-322.370371a37.925926 37.925926 0 0 1 37.925926-37.925926z" fill="#FFD6AB" p-id="1580"></path><path d="M256.303407 707.849481l223.762963 0.18963a33.185185 33.185185 0 1 0 0.037926-66.37037l-223.762963-0.18963a33.185185 33.185185 0 1 0-0.037926 66.37037z" fill="#FF960B" p-id="1581"></path><path d="M532.859259 929.185185H110.098963c-23.817481 0-43.766519-20.973037-43.766519-47.597037V113.967407c0-26.624 19.949037-47.597037 43.766519-47.597037h731.022222c23.817481 0 43.766519 20.973037 43.766519 47.597037v434.744889a33.185185 33.185185 0 0 0 66.37037 0V113.967407c0-62.577778-48.924444-113.967407-110.136889-113.967407H110.136889C48.924444 0 0 51.38963 0 113.967407v767.620741c0 62.577778 48.924444 113.967407 110.136889 113.967408h422.684444a33.185185 33.185185 0 0 0 0-66.370371z" fill="#333333" p-id="1582"></path><path d="M905.746963 723.437037h32.540444v24.76563h59.847112v27.610074H938.287407v28.672h70.807704v29.392592h-174.155852v-29.392592h70.807704v-28.672h-60.909037v-27.610074h60.909037v-24.76563z m152.917333-39.291259v281.789629c0 20.48-12.401778 31.099259-36.48474 31.09926h-44.942223l-8.83674-31.857778c15.54963 1.099852 30.075259 1.782519 43.538963 1.782518 8.836741 0 13.425778-4.247704 13.425777-12.743111v-239.274666h-206.013629v109.37837c-0.682667 71.86963-13.084444 130.275556-37.850074 174.838519l-25.486223-22.983112c19.114667-39.291259 29.013333-88.860444 29.733926-149.048888v-142.980741h272.914963z m-212.764444 170.970074h148.669629v91.666963h-148.669629v-91.666963z m116.470518 62.994963v-35.043556h-84.233481v35.043556h84.233481zM256.644741 248.225185h54.423703l61.477926 246.025482h1.782519l64.587852-246.025482h50.441481l64.625778 246.025482h1.744593l61.515851-246.025482h54.423704l-91.136 315.922963h-51.351704l-64.13274-243.787852h-1.782519l-64.170666 243.787852H347.32563z" fill="#333333" p-id="1583"></path></svg>