<?xml version="1.0" standalone="no"?><!DOCTYPE svg PUBLIC "-//W3C//DTD SVG 1.1//EN" "http://www.w3.org/Graphics/SVG/1.1/DTD/svg11.dtd"><svg t="1677138032153" class="icon" viewBox="0 0 1024 1024" version="1.1" xmlns="http://www.w3.org/2000/svg" p-id="1463" id="mx_n_1677138032153" width="32" height="32" xmlns:xlink="http://www.w3.org/1999/xlink"><path d="M303.2 224a32 32 0 0 0 32-32V32a32 32 0 0 0-64 0v160a32 32 0 0 0 32 32zM399.2 79.2h161.568v64h-161.568zM656.8 224a32 32 0 0 0 32-32V32a32 32 0 0 0-64 0v160a32 32 0 0 0 32 32z" fill="#52A0F5" p-id="1464"></path><path d="M64 388.48h896.32v-64H960V117.6a38.368 38.368 0 0 0-38.272-38.368h-168.96v64H896v181.312H64V143.2h143.2v-64H38.272A38.368 38.368 0 0 0 0 117.568v755.264a38.368 38.368 0 0 0 38.272 38.4h346.944v-64H64z" fill="#52A0F5" p-id="1465"></path><path d="M736 448a288 288 0 1 0 288 288 288.32 288.32 0 0 0-288-288z m0 512a224 224 0 1 1 224-224 224.256 224.256 0 0 1-224 224z" fill="#52A0F5" p-id="1466"></path><path d="M853.024 704.896H767.04v-121.44a32 32 0 1 0-64 0v153.44a32 32 0 0 0 32 32h117.952a32 32 0 0 0 0-64z" fill="#52A0F5" p-id="1467"></path></svg>
