<?xml version="1.0" encoding="utf-8"?>
<svg version="1.1" xmlns:xlink="http://www.w3.org/1999/xlink" width="27px" height="27px" xmlns="http://www.w3.org/2000/svg">
  <g transform="matrix(1 0 0 1 -967 -417 )">
    <path d="M 22.271484375 14.291015625  C 22.482421875 14.080078125  22.587890625 13.81640625  22.587890625 13.5  C 22.587890625 13.18359375  22.482421875 12.919921875  22.271484375 12.708984375  L 20.671875 11.109375  L 14.30859375 4.74609375  C 14.09765625 4.53515625  13.833984375 4.4296875  13.517578125 4.4296875  C 13.201171875 4.4296875  12.9375 4.53515625  12.7265625 4.74609375  L 11.126953125 6.345703125  C 10.916015625 6.556640625  10.810546875 6.8203125  10.810546875 7.13671875  C 10.810546875 7.453125  10.916015625 7.716796875  11.126953125 7.927734375  L 14.44921875 11.25  L 5.625 11.25  C 5.3203125 11.25  5.056640625 11.361328125  4.833984375 11.583984375  C 4.611328125 11.806640625  4.5 12.0703125  4.5 12.375  L 4.5 14.625  C 4.5 14.9296875  4.611328125 15.193359375  4.833984375 15.416015625  C 5.056640625 15.638671875  5.3203125 15.75  5.625 15.75  L 14.44921875 15.75  L 11.126953125 19.072265625  C 10.904296875 19.294921875  10.79296875 19.55859375  10.79296875 19.86328125  C 10.79296875 20.16796875  10.904296875 20.431640625  11.126953125 20.654296875  L 12.7265625 22.25390625  C 12.9375 22.46484375  13.201171875 22.5703125  13.517578125 22.5703125  C 13.833984375 22.5703125  14.09765625 22.46484375  14.30859375 22.25390625  L 20.671875 15.890625  L 22.271484375 14.291015625  Z M 25.189453125 6.7236328125  C 26.396484375 8.7919921875  27 11.05078125  27 13.5  C 27 15.94921875  26.396484375 18.2080078125  25.189453125 20.2763671875  C 23.982421875 22.3447265625  22.3447265625 23.982421875  20.2763671875 25.189453125  C 18.2080078125 26.396484375  15.94921875 27  13.5 27  C 11.05078125 27  8.7919921875 26.396484375  6.7236328125 25.189453125  C 4.6552734375 23.982421875  3.017578125 22.3447265625  1.810546875 20.2763671875  C 0.603515625 18.2080078125  0 15.94921875  0 13.5  C 0 11.05078125  0.603515625 8.7919921875  1.810546875 6.7236328125  C 3.017578125 4.6552734375  4.6552734375 3.017578125  6.7236328125 1.810546875  C 8.7919921875 0.603515624999998  11.05078125 0  13.5 0  C 15.94921875 0  18.2080078125 0.603515624999998  20.2763671875 1.810546875  C 22.3447265625 3.017578125  23.982421875 4.6552734375  25.189453125 6.7236328125  Z " fill-rule="nonzero" fill="#b3d1ff" stroke="none" transform="matrix(1 0 0 1 967 417 )" />
  </g>
</svg>