<?xml version="1.0" standalone="no"?><!DOCTYPE svg PUBLIC "-//W3C//DTD SVG 1.1//EN" "http://www.w3.org/Graphics/SVG/1.1/DTD/svg11.dtd"><svg t="1680243128495" class="icon" viewBox="0 0 1024 1024" version="1.1" xmlns="http://www.w3.org/2000/svg" p-id="1504" xmlns:xlink="http://www.w3.org/1999/xlink" width="32" height="32"><path d="M895.96 309.68v586.34H128.03V127.98h517.16a31.995 31.995 0 0 0 31.99-31.99c0-8.49-3.37-16.62-9.37-22.62-6-6-14.13-9.37-22.62-9.37H126.04c-34.24 0-61.99 27.75-61.99 61.99v772.03c0 34.23 27.75 61.99 61.99 61.99h772.03a61.892 61.892 0 0 0 43.81-18.22 61.887 61.887 0 0 0 18.06-43.88V309.68c0-8.49-3.37-16.62-9.37-22.62-6-6-14.13-9.37-22.62-9.37a31.96 31.96 0 0 0-22.62 9.37c-6 6-9.37 14.14-9.37 22.62z m0 0" p-id="1505"></path><path d="M250.74 795.07V563.89c1-17.65 11.07-27.67 29.67-29.72 18.76 1.11 28.61 11.07 29.72 29.72v85.95l98.41-104.71A37.983 37.983 0 0 1 432 534.06c17.66 3.15 27.67 13.06 29.67 29.72 0 9.35-6.75 19.82-20.31 31.27l-74.99 75.11 92.15 95.31a4.58 4.58 0 0 0 1.61 3.16c10.35 11.45 15.61 20.86 15.61 28.11-1.11 16.61-11.45 25.02-31.27 25.02-10.46 0-20.87-5.26-31.27-15.61L310.12 693.57v101.5c-2.1 17.71-11.97 26.57-29.61 26.57-19.81 0-29.77-8.81-29.77-26.57zM595.99 537.27h-71.95c-19.81 1.05-29.66 11.52-29.66 31.27v224.98c0 18.76 9.85 28.12 29.66 28.12 18.78 0 28.69-9.37 29.72-28.12v-65.36h43.72c62.47-4.13 95.79-35.9 99.96-95.31-4.06-59.55-37.88-91.41-101.45-95.58z m-1.44 137.53h-40.68v-84.46h40.68c24.96 2.16 38.74 16.27 40.62 42.23-2.04 27.12-15.66 41.23-40.62 42.23zM716.37 793.52V565.38c0-19.76 9.85-30.22 29.72-31.27 18.71 1.03 28.6 11.45 29.67 31.27v228.14c-1.03 18.74-10.92 28.12-29.67 28.12-19.87 0-29.72-9.36-29.72-28.12z" fill="#52a0f5" p-id="1506" data-spm-anchor-id="a313x.7781069.0.i5" class="selected"></path><path d="M268.45 457.46c-13.38 0.04-25.36-8.28-30.01-20.82a31.921 31.921 0 0 1 9.15-35.36l159.95-138.03c13.02-11.21 32.56-10.13 44.28 2.44l123.37 114.23L784 177.29c12.87-11.07 32.15-10.16 43.92 2.08 11.77 12.24 11.93 31.54 0.36 43.97L595.82 448.49a31.444 31.444 0 0 1-22.58 8.96 32.111 32.111 0 0 1-22.58-10.12L426.07 331.76l-136.71 118a31.59 31.59 0 0 1-20.91 7.7z" p-id="1507"></path></svg>