<svg t="1683512709837" class="icon" viewBox="0 0 1024 1024" version="1.1" xmlns="http://www.w3.org/2000/svg" p-id="81588" width="26" height="26"><path d="M778.1 578.19A180.91 180.91 0 0 0 597.19 759.1c0 99.91 81 180.9 180.91 180.9A180.9 180.9 0 0 0 959 759.1c0-99.91-81-180.91-180.9-180.91z m99.84 243.06v15.94a26.31 26.31 0 0 1-26.56 26.56H704.76a26.31 26.31 0 0 1-26.57-26.56v-15.94a26.3 26.3 0 0 1 26.57-26.56h15.93l42.5-52.06a43.11 43.11 0 0 1-28.68-28.69c-8.51-23.37 4.25-48.87 28.68-57.37 5.32-1.07 9.56-2.13 14.88-2.13 19.12 0 37.18 11.69 43.56 30.81 8.5 23.38-4.25 48.88-28.69 57.38l42.5 52.06h15.94c14.87 0 27.62 12.75 26.56 26.56z" p-id="81589" fill="#AAAAAA"></path><path d="M754.83 579.63l0.61-0.12c-0.38 0.08-0.76 0.13-1.15 0.19h0.22zM598.69 735.31c0-0.3 0.11-0.6 0.15-0.91-0.06 0.32-0.11 0.6-0.15 0.91zM753.63 579.8l0.66-0.1c-0.2 0.02-0.43 0.06-0.66 0.1zM598.69 735.31c-0.06 0.38-0.1 0.76-0.18 1.13 0-0.21 0.08-0.42 0.12-0.61s0-0.21 0-0.32a1.5 1.5 0 0 1 0.06-0.2z" p-id="81590" fill="#AAAAAA"></path><path d="M562.79 682a234.47 234.47 0 0 1 83.77-109.9c34.64-24.92 76.75-38.94 119.29-41.33V143.93A59.93 59.93 0 0 0 705.92 84h-581A59.93 59.93 0 0 0 65 143.93v696.79a59.92 59.92 0 0 0 59.92 59.92h473.5C550.87 839.92 535.8 755.28 562.79 682zM187.67 283.19a24 24 0 0 1 24-24h181.12a24 24 0 0 1 24 24 24 24 0 0 1-24 24H211.64a24 24 0 0 1-24-24z m325.56 377.45a24 24 0 0 1-24 24H211.64a24 24 0 0 1-24-24 24 24 0 0 1 24-24h277.62a24 24 0 0 1 24 24zM211.64 494.79a24 24 0 0 1-24-24 24 24 0 0 1 24-24H539a24 24 0 0 1 24 24 24 24 0 0 1-24 24z" p-id="81591" fill="#AAAAAA"></path></svg>
