<svg t="1683512578591" class="icon" viewBox="0 0 1024 1024" version="1.1" xmlns="http://www.w3.org/2000/svg" p-id="78554" width="26" height="26"><path d="M111.7 0h800.6C974 0 1024 50 1024 111.7v800.6c0 61.7-50 111.7-111.7 111.7H111.7C50 1024 0 974 0 912.3V111.7C0 50 50 0 111.7 0z m0 74.5c-20.6 0-37.2 16.7-37.2 37.2v800.6c0 20.6 16.7 37.2 37.2 37.2h800.6c20.6 0 37.2-16.7 37.2-37.2V111.7c0-20.6-16.7-37.2-37.2-37.2H111.7z m79.9 226.9h302.7v54.9H255.9V479h224.2v54.9H255.9v133.9h248.4v54.9H191.6V301.4z m640.8 233v188.2h-62.5V539.7c0-51.9-23.8-77.9-71.4-77.9-18.5 0-34 6.3-46.6 18.9-14.5 14.5-23 34-25.4 58.4v183.5H564v-305h62.5v37.8c11.4-14.9 25-26.3 40.7-34.2 14.5-7.9 31.7-11.8 51.3-11.8 75.9-0.1 113.9 41.6 113.9 125z" p-id="78555" fill="#AAAAAA"></path></svg>
