<svg t="1683362164631" class="icon" viewBox="0 0 1024 1024" version="1.1" xmlns="http://www.w3.org/2000/svg" p-id="1449" width="32" height="32"><path d="M661.411 241.06v-29.955H212.073c-32.951 0-59.911 26.959-59.911 59.911v629.072c0 32.952 26.96 59.912 59.911 59.912h479.294c32.952 0 59.911-26.96 59.911-59.912V300.972h-29.955c-32.952 0-59.912-26.961-59.912-59.912zM609.86 681.222H284.94c-9.699 0-17.563-12.897-17.563-28.804s7.864-28.804 17.563-28.804h324.92c9.699 0 17.563 12.897 17.563 28.804s-7.864 28.804-17.563 28.804z m0-97.213H284.94c-9.699 0-17.563-12.897-17.563-28.804s7.864-28.804 17.563-28.804h324.92c9.699 0 17.563 12.897 17.563 28.804s-7.864 28.804-17.563 28.804z m0-104.413H284.94c-9.699 0-17.563-12.897-17.563-28.804 0-15.907 7.864-28.804 17.563-28.804h324.92c9.699 0 17.563 12.897 17.563 28.804-0.001 15.907-7.864 28.804-17.563 28.804z" p-id="1450" fill="#52A0F5"></path><path d="M895.174 153.867c-32.953 0-59.911-26.96-59.911-59.911V64H385.924c-32.95 0-59.911 26.958-59.911 59.911v33.701h402.265v29.956c0 32.951 26.958 59.911 59.911 59.911h29.956v565.417h47.074c32.953 0 59.911-26.962 59.911-59.911V153.867h-29.956z" p-id="1451" fill="#52A0F5"></path></svg>
