<?xml version="1.0" standalone="no"?><!DOCTYPE svg PUBLIC "-//W3C//DTD SVG 1.1//EN" "http://www.w3.org/Graphics/SVG/1.1/DTD/svg11.dtd"><svg t="1684743557114" class="icon" viewBox="0 0 1024 1024" version="1.1" xmlns="http://www.w3.org/2000/svg" p-id="26225" width="256" height="256" xmlns:xlink="http://www.w3.org/1999/xlink"><path d="M446.656 520a104 104 0 1 0 208 0 104 104 0 1 0-208 0z" fill="#0B72B2" p-id="26226"></path><path d="M308 590.016a62.016 62.016 0 1 0 124.032 0 62.016 62.016 0 1 0-124.032 0zM0 923.328a62.016 62.016 0 1 0 124.032 0 62.016 62.016 0 1 0-124.032 0zM121.344 492.672a47.328 47.328 0 1 0 94.656 0 47.328 47.328 0 1 0-94.656 0zM417.344 766.656a47.328 47.328 0 1 0 94.656 0 47.328 47.328 0 1 0-94.656 0zM680 462.752a71.328 71.328 0 1 0 142.656 0 71.328 71.328 0 1 0-142.656 0zM68 137.696a71.328 71.328 0 1 0 142.656 0 71.328 71.328 0 1 0-142.656 0zM686.688 872.032a71.328 71.328 0 1 0 142.656 0 71.328 71.328 0 1 0-142.656 0z" fill="#5FAFD6" p-id="26227"></path><path d="M833.312 347.552a35.68 35.68 0 1 0 71.36 0 35.68 35.68 0 1 0-71.36 0zM85.664 693.696a35.68 35.68 0 1 0 71.36 0 35.68 35.68 0 1 0-71.36 0zM910.976 153.216a35.68 35.68 0 1 0 71.36 0 35.68 35.68 0 1 0-71.36 0zM314.976 347.552a35.68 35.68 0 1 0 71.36 0 35.68 35.68 0 1 0-71.36 0zM868.992 765.024a35.68 35.68 0 1 0 71.36 0 35.68 35.68 0 1 0-71.36 0z" fill="#9ED1E5" p-id="26228"></path></svg>