<?xml version="1.0" standalone="no"?><!DOCTYPE svg PUBLIC "-//W3C//DTD SVG 1.1//EN" "http://www.w3.org/Graphics/SVG/1.1/DTD/svg11.dtd"><svg t="1689834862476" class="icon" viewBox="0 0 1024 1024" version="1.1" xmlns="http://www.w3.org/2000/svg" p-id="2316" width="32" height="32" xmlns:xlink="http://www.w3.org/1999/xlink"><path d="M499.157333 703.872a209.066667 209.066667 0 1 1 209.066667 209.066667 209.365333 209.365333 0 0 1-209.066667-209.066667z m64 0a145.066667 145.066667 0 1 0 145.066667-145.066667 143.957333 143.957333 0 0 0-145.066667 145.066667z m-366.933333 204.8a91.050667 91.050667 0 0 1-89.6-93.866667v-610.133333a93.866667 93.866667 0 0 1 89.6-93.866667h469.333333a90.88 90.88 0 0 1 89.6 93.866667v183.466667a33.578667 33.578667 0 0 1-34.133333 34.133333 31.232 31.232 0 0 1-34.133333-34.133333v-183.466667a28.586667 28.586667 0 0 0-25.6-29.866667h-469.333334a28.586667 28.586667 0 0 0-25.813333 29.866667v610.133333a28.416 28.416 0 0 0 25.813333 29.866667h256a33.706667 33.706667 0 0 1 34.133334 34.133333 26.922667 26.922667 0 0 1-29.866667 29.866667z m490.666667-89.6v-34.133333h-38.4v8.533333h-29.866667v-115.2h68.266667v-17.066667h34.133333v17.066667h72.533333v115.2h-34.133333v-8.533333h-38.4v34.133333z m38.4-64h38.4v-12.8h-38.4z m-72.533334 0h38.4v-12.8h-38.4z m72.533334-38.4h38.4v-12.586667h-38.4z m-72.533334 0h38.4v-12.586667h-38.4z m-409.6-8.533333a33.834667 33.834667 0 0 1-34.133333-34.133334 31.445333 31.445333 0 0 1 34.133333-34.133333h183.466667a34.133333 34.133333 0 0 1 0 68.266667z m529.066667-38.4v-12.8h-132.266667v12.8h-34.133333v-46.933334h81.066667c0-4.266667-4.266667-8.533333-4.266667-12.8l34.133333-8.533333a61.44 61.44 0 0 1 8.533334 25.6h81.066666v42.666667z m34.133333-42.666667z m0-4.266667v4.266667z m-563.2-93.866666a33.621333 33.621333 0 0 1-34.133333-34.133334 31.445333 31.445333 0 0 1 34.133333-34.133333h260.266667a34.133333 34.133333 0 1 1 0 68.266667z m0-174.933334a33.621333 33.621333 0 0 1-34.133333-34.133333 31.445333 31.445333 0 0 1 34.133333-34.133333h379.733334a34.133333 34.133333 0 1 1 0 68.266666z" p-id="2317" fill="#aaaaaa"></path></svg>