<?xml version="1.0" standalone="no"?><!DOCTYPE svg PUBLIC "-//W3C//DTD SVG 1.1//EN" "http://www.w3.org/Graphics/SVG/1.1/DTD/svg11.dtd"><svg t="1690353964872" class="icon" viewBox="0 0 1024 1024" version="1.1" xmlns="http://www.w3.org/2000/svg" p-id="1489" width="28" height="28" xmlns:xlink="http://www.w3.org/1999/xlink"><path d="M690.331337 349.508982c0-20.439122-17.884232-37.301397-39.856287-37.301397H273.373253c-21.972056 0-39.856287 16.862275-39.856287 37.301397s17.884232 37.301397 39.856287 37.301397h377.101797c22.483034 0 39.856287-16.862275 39.856287-37.301397zM273.373253 468.055888c-21.972056 0-39.856287 16.862275-39.856287 37.301397s17.884232 37.301397 39.856287 37.301398h271.329342c21.972056 0 39.856287-16.862275 39.856287-37.301398s-17.884232-37.301397-39.856287-37.301397H273.373253z" fill="#409EFF" p-id="1490"></path><path d="M463.457086 1017.868263H188.550898c-92.487026 0-168.111776-76.135729-168.111776-169.133732v-679.600798C20.439122 76.135729 96.063872 0 188.550898 0h600.399202c92.487026 0 168.111776 76.135729 168.111776 169.133733v283.592814c0 20.439122-16.351297 36.790419-36.790419 36.790419-19.928144 0-28.61477-16.862275-28.61477-36.790419V169.133733c0-52.630739-50.586826-103.217565-102.706587-103.217565H188.550898c-52.11976 0-102.706587 50.586826-102.706587 103.217565v679.600798c0 52.630739 50.586826 103.217565 102.706587 103.217565h274.906188c19.928144 0 36.790419 8.175649 36.790419 28.61477 0 20.9501-16.351297 37.301397-36.790419 37.301397z" fill="#409EFF" p-id="1491"></path><path d="M590.690619 0H386.810379c-11.241517 0-20.439122 9.197605-20.439122 20.439122v81.756487c0 11.241517 9.197605 20.439122 20.439122 20.439122h203.88024c11.241517 0 20.439122-9.197605 20.439122-20.439122V20.9501c-0.510978-11.752495-9.197605-20.9501-20.439122-20.9501z m387.832335 959.105788l-68.982036-64.383233c27.081836-35.257485 42.922156-78.690619 42.922156-125.189621 0-119.057884-104.239521-216.143713-232.49501-216.143712s-232.49501 97.085828-232.49501 216.143712 104.239521 216.143713 232.49501 216.143713c49.56487 0 95.041916-14.307385 132.854291-38.834332l69.493014 64.383234c7.664671 7.153693 17.884232 10.730539 28.103793 10.730539 10.730539 0 20.9501-4.087824 28.103792-10.730539 14.307385-12.774451 15.840319-35.257485 3.065868-49.56487-1.021956-1.021956-2.043912-2.043912-3.065868-2.554891z m-411.337325-189.572854c0-78.690619 68.471058-142.051896 152.782435-142.051896s152.271457 63.361277 152.782435 142.051896c0 78.690619-68.471058 142.051896-152.782435 142.051896-84.822355 0-152.782435-63.872255-152.782435-142.051896z" fill="#409EFF" p-id="1492"></path></svg>