<?xml version="1.0" standalone="no"?><!DOCTYPE svg PUBLIC "-//W3C//DTD SVG 1.1//EN" "http://www.w3.org/Graphics/SVG/1.1/DTD/svg11.dtd"><svg height="480" node-id="1" sillyvg="true" template-height="480" template-width="480" version="1.1" viewBox="0 0 480 480" width="480" xmlns="http://www.w3.org/2000/svg" xmlns:xlink="http://www.w3.org/1999/xlink"><defs node-id="34"><linearGradient gradientUnits="objectBoundingBox" id="linearGradient-2" node-id="9" spreadMethod="pad" x1="0.056882627" x2="1" y1="0.5" y2="0.5"><stop offset="0" stop-color="#1fabfb"></stop><stop offset="1" stop-color="#406cfc"></stop></linearGradient><linearGradient gradientUnits="objectBoundingBox" id="linearGradient-3" node-id="12" spreadMethod="pad" x1="0" x2="1" y1="1" y2="1"><stop offset="0" stop-color="#fff0e4"></stop><stop offset="1" stop-color="#ffdcc8"></stop></linearGradient><linearGradient gradientUnits="objectBoundingBox" id="linearGradient-4" node-id="15" spreadMethod="pad" x1="0" x2="1" y1="0.5" y2="0.5"><stop offset="0" stop-color="#fff1e4"></stop><stop offset="1" stop-color="#ffdbc5"></stop></linearGradient><filter height="7" id="filter-1" node-id="7" width="1.217" x="-0.109" y="-3"><feGaussianBlur color-interpolation-filters="linearRGB" in="SourceGraphic" result="result1" stdDeviation="8 8"></feGaussianBlur></filter></defs><g node-id="57"><g node-id="58"><path d="M 132.00 95.00 L 358.00 95.00 L 359.83 95.17 L 361.50 95.63 L 363.05 96.37 L 364.45 97.36 L 365.64 98.55 L 366.63 99.95 L 367.37 101.50 L 367.83 103.17 L 368.00 105.00 L 368.00 109.00 L 367.83 110.83 L 367.37 112.50 L 366.63 114.05 L 365.64 115.45 L 364.45 116.64 L 363.05 117.63 L 361.50 118.37 L 359.83 118.83 L 358.00 119.00 L 132.00 119.00 L 130.17 118.83 L 128.50 118.37 L 126.95 117.63 L 125.55 116.64 L 124.36 115.45 L 123.37 114.05 L 122.63 112.50 L 122.17 110.83 L 122.00 109.00 L 122.00 105.00 L 122.17 103.17 L 122.63 101.50 L 123.37 99.95 L 124.36 98.55 L 125.55 97.36 L 126.95 96.37 L 128.50 95.63 L 130.17 95.17 L 132.00 95.00 Z" fill="#eeeeee" fill-rule="evenodd" group-id="1,2" id="矩形" node-id="21" stroke="none" target-height="24" target-width="246" target-x="122" target-y="95"></path><path d="M 104.00 144.00 L 376.00 144.00 L 377.83 144.17 L 379.50 144.63 L 381.05 145.37 L 382.45 146.36 L 383.64 147.55 L 384.63 148.95 L 385.37 150.50 L 385.83 152.17 L 386.00 154.00 L 386.00 157.00 L 385.83 158.83 L 385.37 160.50 L 384.63 162.05 L 383.64 163.45 L 382.45 164.64 L 381.05 165.63 L 379.50 166.37 L 377.83 166.83 L 376.00 167.00 L 104.00 167.00 L 102.17 166.83 L 100.50 166.37 L 98.95 165.63 L 97.55 164.64 L 96.36 163.45 L 95.37 162.05 L 94.63 160.50 L 94.17 158.83 L 94.00 157.00 L 94.00 154.00 L 94.17 152.17 L 94.63 150.50 L 95.37 148.95 L 96.36 147.55 L 97.55 146.36 L 98.95 145.37 L 100.50 144.63 L 102.17 144.17 L 104.00 144.00 Z" fill="#eeeeee" fill-rule="evenodd" group-id="1,2" id="矩形备份" node-id="22" stroke="none" target-height="23" target-width="292" target-x="94" target-y="144"></path><path d="M 106.00 247.00 L 377.00 247.00 L 378.83 247.17 L 380.50 247.63 L 382.05 248.37 L 383.45 249.36 L 384.64 250.55 L 385.63 251.95 L 386.37 253.50 L 386.83 255.17 L 387.00 257.00 L 387.00 260.00 L 386.83 261.83 L 386.37 263.50 L 385.63 265.05 L 384.64 266.45 L 383.45 267.64 L 382.05 268.63 L 380.50 269.37 L 378.83 269.83 L 377.00 270.00 L 106.00 270.00 L 104.17 269.83 L 102.50 269.37 L 100.95 268.63 L 99.55 267.64 L 98.36 266.45 L 97.37 265.05 L 96.63 263.50 L 96.17 261.83 L 96.00 260.00 L 96.00 257.00 L 96.17 255.17 L 96.63 253.50 L 97.37 251.95 L 98.36 250.55 L 99.55 249.36 L 100.95 248.37 L 102.50 247.63 L 104.17 247.17 L 106.00 247.00 Z" fill="#eeeeee" fill-rule="evenodd" group-id="1,2" id="矩形备份-2" node-id="23" stroke="none" target-height="23" target-width="291" target-x="96" target-y="247"></path><path d="M 85.00 194.00 L 394.00 194.00 L 395.83 194.17 L 397.50 194.63 L 399.05 195.37 L 400.45 196.36 L 401.64 197.55 L 402.63 198.95 L 403.37 200.50 L 403.83 202.17 L 404.00 204.00 L 404.00 207.00 L 403.83 208.83 L 403.37 210.50 L 402.63 212.05 L 401.64 213.45 L 400.45 214.64 L 399.05 215.63 L 397.50 216.37 L 395.83 216.83 L 394.00 217.00 L 85.00 217.00 L 83.17 216.83 L 81.50 216.37 L 79.95 215.63 L 78.55 214.64 L 77.36 213.45 L 76.37 212.05 L 75.63 210.50 L 75.17 208.83 L 75.00 207.00 L 75.00 204.00 L 75.17 202.17 L 75.63 200.50 L 76.37 198.95 L 77.36 197.55 L 78.55 196.36 L 79.95 195.37 L 81.50 194.63 L 83.17 194.17 L 85.00 194.00 Z" fill="#eeeeee" fill-rule="evenodd" group-id="1,2" id="矩形备份-3" node-id="24" stroke="none" target-height="23" target-width="329" target-x="75" target-y="194"></path><path d="M 132.00 296.00 L 347.00 296.00 L 348.83 296.17 L 350.50 296.63 L 352.05 297.37 L 353.45 298.36 L 354.64 299.55 L 355.63 300.95 L 356.37 302.50 L 356.83 304.17 L 357.00 306.00 L 357.00 310.00 L 356.83 311.83 L 356.37 313.50 L 355.63 315.05 L 354.64 316.45 L 353.45 317.64 L 352.05 318.63 L 350.50 319.37 L 348.83 319.83 L 347.00 320.00 L 132.00 320.00 L 130.17 319.83 L 128.50 319.37 L 126.95 318.63 L 125.55 317.64 L 124.36 316.45 L 123.37 315.05 L 122.63 313.50 L 122.17 311.83 L 122.00 310.00 L 122.00 306.00 L 122.17 304.17 L 122.63 302.50 L 123.37 300.95 L 124.36 299.55 L 125.55 298.36 L 126.95 297.37 L 128.50 296.63 L 130.17 296.17 L 132.00 296.00 Z" fill="#eeeeee" fill-rule="evenodd" group-id="1,2" id="矩形备份-5" node-id="25" stroke="none" target-height="24" target-width="235" target-x="122" target-y="296"></path><g node-id="60"><path d="M 350.00 381.00 L 349.72 381.28 L 348.32 381.70 L 344.37 382.26 L 338.23 382.80 L 328.68 383.36 L 304.76 384.23 L 274.43 384.80 L 239.50 385.00 L 204.57 384.80 L 174.24 384.23 L 150.32 383.36 L 140.77 382.80 L 134.63 382.26 L 130.68 381.70 L 129.28 381.28 L 129.00 381.00 L 129.28 380.72 L 130.68 380.30 L 134.63 379.74 L 140.77 379.20 L 150.32 378.64 L 174.24 377.77 L 204.57 377.20 L 239.50 377.00 L 274.43 377.20 L 304.76 377.77 L 328.68 378.64 L 338.23 379.20 L 344.37 379.74 L 348.32 380.30 L 349.72 380.72 L 350.00 381.00 Z" fill="#3d3d3d" fill-opacity="0.4" fill-rule="evenodd" filter="url(#filter-1)" group-id="1,2,4" id="椭圆形" node-id="26" stroke="none" target-height="8" target-width="221" target-x="129" target-y="377"></path></g></g><g node-id="59"><path d="M 292.00 166.00 L 294.56 166.24 L 296.90 166.88 L 299.07 167.91 L 301.03 169.30 L 302.70 170.97 L 304.09 172.93 L 305.12 175.10 L 305.76 177.44 L 306.00 180.00 L 306.00 283.00 L 305.76 285.56 L 305.12 287.90 L 304.09 290.07 L 302.70 292.03 L 301.03 293.70 L 299.07 295.09 L 296.90 296.12 L 294.56 296.76 L 292.00 297.00 L 187.00 297.00 L 184.44 296.76 L 182.10 296.12 L 179.93 295.09 L 177.97 293.70 L 176.30 292.03 L 174.91 290.07 L 173.88 287.90 L 173.24 285.56 L 173.00 283.00 L 173.00 180.00 L 173.24 177.44 L 173.88 175.10 L 174.91 172.93 L 176.30 170.97 L 177.97 169.30 L 179.93 167.91 L 182.10 166.88 L 184.44 166.24 L 187.00 166.00 L 190.25 166.00 L 190.25 171.77 L 190.48 174.23 L 191.09 176.49 L 192.07 178.58 L 193.39 180.49 L 194.98 182.11 L 196.85 183.47 L 198.92 184.50 L 201.16 185.15 L 203.60 185.43 L 203.91 185.43 L 206.41 185.20 L 208.69 184.58 L 210.81 183.57 L 212.72 182.21 L 214.35 180.59 L 215.71 178.67 L 216.72 176.55 L 217.34 174.27 L 217.57 171.77 L 217.57 171.77 L 217.57 166.00 L 226.20 166.00 L 226.20 171.77 L 226.43 174.23 L 227.03 176.49 L 228.02 178.58 L 229.34 180.49 L 230.93 182.11 L 232.80 183.47 L 234.87 184.50 L 237.10 185.15 L 239.55 185.43 L 239.86 185.43 L 242.35 185.20 L 244.64 184.58 L 246.75 183.57 L 248.67 182.21 L 250.30 180.59 L 251.65 178.67 L 252.66 176.55 L 253.29 174.27 L 253.52 171.77 L 253.52 171.77 L 253.52 166.00 L 260.71 166.00 L 260.71 171.77 L 260.93 174.23 L 261.54 176.49 L 262.52 178.58 L 263.85 180.49 L 265.43 182.11 L 267.31 183.47 L 269.38 184.50 L 271.61 185.15 L 274.05 185.43 L 274.37 185.43 L 276.86 185.20 L 279.15 184.58 L 281.26 183.57 L 283.18 182.21 L 284.80 180.59 L 286.16 178.67 L 287.17 176.55 L 287.79 174.27 L 288.03 171.77 L 288.03 171.77 L 288.03 166.00 L 292.00 166.00 Z" fill="url(#linearGradient-2)" fill-rule="evenodd" group-id="1,3" id="形状结合" node-id="28" stroke="none" target-height="131" target-width="133" target-x="173" target-y="166"></path><path d="M 204.20 147.00 L 206.13 147.26 L 207.84 147.98 L 209.30 149.11 L 210.42 150.57 L 211.15 152.27 L 211.41 154.20 L 211.41 169.80 L 211.15 171.73 L 210.42 173.43 L 209.30 174.89 L 207.84 176.02 L 206.13 176.74 L 204.20 177.00 L 202.27 176.74 L 200.57 176.02 L 199.11 174.89 L 197.98 173.43 L 197.26 171.73 L 197.00 169.80 L 197.00 154.20 L 197.26 152.27 L 197.98 150.57 L 199.11 149.11 L 200.57 147.98 L 202.27 147.26 L 204.20 147.00 Z M 239.50 147.00 L 241.43 147.26 L 243.14 147.98 L 244.59 149.11 L 245.72 150.57 L 246.44 152.27 L 246.70 154.20 L 246.70 169.80 L 246.44 171.73 L 245.72 173.43 L 244.59 174.89 L 243.14 176.02 L 241.43 176.74 L 239.50 177.00 L 237.57 176.74 L 235.86 176.02 L 234.41 174.89 L 233.28 173.43 L 232.56 171.73 L 232.30 169.80 L 232.30 154.20 L 232.56 152.27 L 233.28 150.57 L 234.41 149.11 L 235.86 147.98 L 237.57 147.26 L 239.50 147.00 Z M 274.80 147.00 L 276.73 147.26 L 278.43 147.98 L 279.89 149.11 L 281.02 150.57 L 281.74 152.27 L 282.00 154.20 L 282.00 169.80 L 281.74 171.73 L 281.02 173.43 L 279.89 174.89 L 278.43 176.02 L 276.73 176.74 L 274.80 177.00 L 272.87 176.74 L 271.16 176.02 L 269.70 174.89 L 268.58 173.43 L 267.85 171.73 L 267.59 169.80 L 267.59 154.20 L 267.85 152.27 L 268.58 150.57 L 269.70 149.11 L 271.16 147.98 L 272.87 147.26 L 274.80 147.00 Z" fill="#b2dfff" fill-rule="evenodd" group-id="1,3" id="形状结合" node-id="29" stroke="none" target-height="30" target-width="85" target-x="197" target-y="147"></path><path d="M 272.19 212.00 L 273.77 212.22 L 275.12 212.79 L 276.30 213.70 L 277.21 214.88 L 277.78 216.23 L 278.00 217.81 L 278.00 278.19 L 277.78 279.77 L 277.21 281.12 L 276.30 282.30 L 275.12 283.21 L 273.77 283.78 L 272.19 284.00 L 270.61 283.78 L 269.26 283.21 L 268.08 282.30 L 267.17 281.12 L 266.60 279.77 L 266.38 278.19 L 266.38 217.81 L 266.60 216.23 L 267.17 214.88 L 268.08 213.70 L 269.26 212.79 L 270.61 212.22 L 272.19 212.00 Z M 250.40 226.40 L 251.97 226.62 L 253.33 227.19 L 254.51 228.10 L 255.42 229.28 L 255.98 230.63 L 256.21 232.21 L 256.21 278.19 L 255.98 279.77 L 255.42 281.12 L 254.51 282.30 L 253.33 283.21 L 251.97 283.78 L 250.40 284.00 L 248.82 283.78 L 247.47 283.21 L 246.29 282.30 L 245.37 281.12 L 244.81 279.77 L 244.58 278.19 L 244.58 232.21 L 244.81 230.63 L 245.37 229.28 L 246.29 228.10 L 247.47 227.19 L 248.82 226.62 L 250.40 226.40 Z M 228.60 240.80 L 230.18 241.02 L 231.53 241.59 L 232.71 242.50 L 233.63 243.68 L 234.19 245.03 L 234.42 246.61 L 234.42 278.19 L 234.19 279.77 L 233.63 281.12 L 232.71 282.30 L 231.53 283.21 L 230.18 283.78 L 228.60 284.00 L 227.03 283.78 L 225.67 283.21 L 224.49 282.30 L 223.58 281.12 L 223.02 279.77 L 222.79 278.19 L 222.79 246.61 L 223.02 245.03 L 223.58 243.68 L 224.49 242.50 L 225.67 241.59 L 227.03 241.02 L 228.60 240.80 Z M 206.81 255.20 L 208.39 255.42 L 209.74 255.99 L 210.92 256.90 L 211.83 258.08 L 212.40 259.43 L 212.62 261.01 L 212.62 278.19 L 212.40 279.77 L 211.83 281.12 L 210.92 282.30 L 209.74 283.21 L 208.39 283.78 L 206.81 284.00 L 205.23 283.78 L 203.88 283.21 L 202.70 282.30 L 201.79 281.12 L 201.22 279.77 L 201.00 278.19 L 201.00 261.01 L 201.22 259.43 L 201.79 258.08 L 202.70 256.90 L 203.88 255.99 L 205.23 255.42 L 206.81 255.20 Z" fill="url(#linearGradient-3)" fill-rule="evenodd" group-id="1,3" id="形状结合" node-id="30" stroke="none" target-height="72" target-width="77" target-x="201" target-y="212"></path></g></g></svg>