<?xml version="1.0" encoding="utf-8"?>
<svg version="1.1" xmlns:xlink="http://www.w3.org/1999/xlink" width="28px" height="28px" xmlns="http://www.w3.org/2000/svg">
  <g transform="matrix(1 0 0 1 -307 -81 )">
    <path d="M 27.714285718750002 2.5714285625000004  L 27.71428571875 14.809142843750001  C 27.058387062284933 14.065892114906806  26.286499118366624 13.433715887602993  25.428571437499997 12.93714284375  L 25.428571437499997 3.7142857187500007  C 25.428571437499997 3.083103140118138  24.91689685988186 2.5714285625000004  24.285714281249998 3  L 3.7142857187500007 3  C 3.083103140118138 2.5714285625000004  2.5714285625000004 3.083103140118138  3 3.7142857187500002  L 3 24.28571428125  C 2.5714285625000004 24.916896859881863  3.083103140118138 25.4285714375  3.7142857187500002 25.4285714375  L 12.937142843750001 25.4285714375  C 13.4354285625 26.289142875  14.068571406250001 27.060571437500002  14.809142843750003 27.714285718750002  L 2.5714285625000004 27.714285718750002  C 1.3090634224951683 27.714285718750002  0.2857142812500002 26.690936577504832  0.2857142812500002 25.4285714375  L 0.2857142812500002 2.5714285625000004  C 0.2857142812500002 1.3090634224951723  1.3090634224951723 0.2857142812500002  2.5714285625000004 0.2857142812500002  L 25.4285714375 0.2857142812500002  C 26.690936577504825 0.2857142812500002  27.714285718750002 1.3090634224951723  27.714285718750002 2.5714285625000004  Z M 17.976 12.177142843749998  L 17.977142843750002 12.177142843750001  C 17.199077248962592 12.435399196822743  16.45944360025578 12.797527527653545  15.778285718749999 13.25371428125  L 11.243428562499998 10.4685714375  L 7.92685715625 16.5794285625  C 7.7388627267403045 16.937332468421353  7.367922908403105 17.161489120768678  6.96364934829753 17.161489120768678  C 6.766730421104473 17.161489120768678  6.573503268587565 17.10804559596653  6.404571437499998 17.00685715625  C 5.870857156249998 16.6845714375  5.689142874999998 15.970285718749999  5.996571437499997 15.4114285625  L 10.427428562499998 7.277714281249999  L 16.171428562499997 10.80571428125  L 18.930285718749996 5.70628571875  C 19.11828015260713 5.348381826007192  19.489219963756167 5.124225184252297  19.8934935142164 5.124225184252297  C 20.0904124463504 5.124225184252297  20.28363960352736 5.177668711734649  20.452571437499998 5.278857156249999  C 20.986285718749997 5.601142874999999  21.168 6.315428593749999  20.8605714375 6.874285718749999  L 17.976 12.177142843749998  Z M 24.481142843750003 22.86628571875  L 24.48228571875 22.86514284375  L 26.9874285625 25.3714285625  C 27.193221272123647 25.584501767534054  27.308241510124393 25.869156687985935  27.308241510124393 26.165384353874394  C 27.308241510124393 26.79656693250626  26.79656693250626 27.308241510124393  26.165384353874394 27.308241510124393  C 25.869156687985935 27.308241510124393  25.584501767534054 27.193221272123647  25.3714285625 26.9874285625  L 22.86514284375 24.48228571875  C 21.930401543132287 25.100152147001637  20.834635720613445 25.42957325137322  19.71414465762323 25.42957325137322  C 16.55823179898171 25.42957325137322  13.99985893887323 22.87120039126474  13.99985893887323 19.71528753262322  C 13.99985893887323 16.559374673981697  16.558231798981712 14.001001813873216  19.71414465762323 14.001001813873216  C 22.870057516264747 14.001001813873216  25.428430376373232 16.559374673981697  25.428430376373232 19.71528753262322  C 25.428430376373232 20.83577859561344  25.09900927200165 21.931544418132283  24.481142843750003 22.86628571875  Z M 23.14285715625 19.71428571875  C 23.14285715625 17.82073800011331  21.60783343738669 16.285714281249998  19.71428571875 16.285714281249998  C 17.82073800011331 16.285714281249998  16.285714281249998 17.82073800011331  16.285714281249998 19.71428571875  C 16.285714281249998 21.60783343738669  17.82073800011331 23.14285715625  19.71428571875 23.14285715625  C 21.60783343738669 23.14285715625  23.14285715625 21.60783343738669  23.14285715625 19.71428571875  Z " fill-rule="nonzero" fill="#52a0f5" stroke="none" transform="matrix(1 0 0 1 307 81 )" />
  </g>
</svg>