<?xml version="1.0" encoding="utf-8"?>
<svg version="1.1" xmlns:xlink="http://www.w3.org/1999/xlink" width="18px" height="18px" xmlns="http://www.w3.org/2000/svg">
  <g transform="matrix(1 0 0 1 -538 -17 )">
    <path d="M 0.25 9  C 0.25 4.1675  4.1675 0.25  9 0.25  C 13.8325 0.25  17.75 4.1675  17.75 9  C 17.75 13.8325  13.8325 17.75  9 17.75  C 4.1675 17.75  0.25 13.8325  0.25 9  Z M 16.5 9  C 16.5 4.85787109375  13.14212890625 1.5  9 1.5  C 4.85787109375 1.5  1.5 4.85787109375  1.5 9  C 1.5 13.14212890625  4.85787109375 16.5  9 16.5  C 13.14212890625 16.5  16.5 13.14212890625  16.5 9  Z M 13.462929687499999 9.771484375  C 13.80810546875 9.771484375  14.087929687499999 10.05130859375  14.087929687499999 10.396484375  C 14.087929687499999 10.738203124999998  13.813671875 11.015878906249998  13.473261718749999 11.02140625  L 13.46291015625 11.021484375  L 6.0655859375 11.021484375  L 6.9517578125 11.907617187499998  C 7.1958203125 12.1516796875  7.1958593749999995 12.547421875000001  6.9517578125 12.791484375  C 6.71013671875 13.033125000000002  6.319863281249999 13.03556640625  6.0752539062499995 12.798769531250002  L 6.0678906249999995 12.791503906250002  L 4.1342968749999995 10.858027343750003  C 4.130859375 10.854570312500002  4.127460937499999 10.85109375  4.1241015625 10.847597656250002  C 4.005527343749999 10.733828125  3.9316992187499995 10.573769531250004  3.9316992187499995 10.396484375000002  C 3.9316992187499995 10.054765625000002  4.20595703125 9.777089843750003  4.546347656249999 9.771562500000002  L 4.5566992187499995 9.771484375000002  L 13.462949218749998 9.771484375000002  Z M 11.067792968749998 5.208515624999999  C 11.3094140625 4.966874999999999  11.6996875 4.964433593749998  11.944296875 5.2012304687499995  L 11.951660156249996 5.20849609375  L 13.885253906249996 7.141972656250001  C 13.888691406249999 7.145429687500002  13.892089843749998 7.148906250000001  13.895449218749999 7.152402343750001  C 14.014023437499999 7.2661718749999995  14.0878515625 7.426230468749999  14.0878515625 7.603515625  C 14.0878515625 7.945234375  13.813593749999999 8.22291015625  13.473203124999998 8.2284375  L 13.4628515625 8.228515625  L 4.556601562499999 8.228515625  C 4.211425781249998 8.228515625  3.931601562499999 7.948691406249999  3.931601562499999 7.603515625  C 3.931601562499999 7.261796875  4.205859374999998 6.98412109375  4.546269531249999 6.97859375  L 4.556621093749998 6.978515625  L 11.953964843749999 6.978515625  L 11.067792968749998 6.0923828125  C 10.82373046875 5.8483203125  10.82369140625 5.4525781250000005  11.067792968749998 5.208515624999999  Z " fill-rule="nonzero" fill="#52a0f5" stroke="none" transform="matrix(1 0 0 1 538 17 )" />
  </g>
</svg>